<svg width="82" height="125" viewBox="0 0 82 125" xmlns="http://www.w3.org/2000/svg"><title>Page 1</title><g fill="none" fill-rule="evenodd"><path d="M-19.167 126.122a3.124 3.124 0 0 1-1.03-2.514 3.144 3.144 0 0 1 3.316-2.95c.034.002 3.908.206 8.522-.513 3.997-.623 9.406-2.08 12.474-5.488 3.192-3.546 3.962-7.794 4.852-12.713.873-4.82 1.776-9.806 5.1-14.522 4.318-6.126 10.295-8.44 16.075-10.678 3.474-1.345 7.066-2.736 10.43-4.985 8.205-5.49 11.922-19.73 11.96-19.874a3.143 3.143 0 0 1 3.81-2.272 3.127 3.127 0 0 1 2.265 3.804c-.172.68-4.335 16.71-14.56 23.55-3.938 2.637-7.86 4.155-11.653 5.623-5.357 2.075-9.984 3.866-13.205 8.438-2.525 3.58-3.267 7.68-4.053 12.02-.973 5.37-1.978 10.926-6.367 15.8-8.1 8.997-25.298 8.112-26.026 8.07a3.113 3.113 0 0 1-1.91-.796M-41.19 102.628a3.113 3.113 0 0 1-1.026-2.11c-.05-.73-1.11-17.92 7.8-26.114 4.828-4.44 10.37-5.503 15.73-6.53 4.33-.83 8.422-1.616 11.976-4.178 4.537-3.27 6.28-7.915 8.3-13.294 1.427-3.81 2.905-7.747 5.5-11.715 6.733-10.295 22.718-14.623 23.395-14.802a3.126 3.126 0 0 1 3.828 2.23 3.142 3.142 0 0 1-2.236 3.83c-.214.06-14.353 3.924-19.743 12.167-2.214 3.386-3.568 6.994-4.877 10.482C5.28 58.398 3.027 64.4-3.053 68.78c-4.68 3.375-9.654 4.33-14.464 5.252-4.91.94-9.148 1.754-12.66 4.984-3.375 3.103-4.777 8.528-5.36 12.532-.67 4.622-.426 8.495-.424 8.533a3.145 3.145 0 0 1-2.92 3.344 3.12 3.12 0 0 1-2.31-.796M-32.623 112.72a3.122 3.122 0 0 1-1.034-2.433 3.143 3.143 0 0 1 3.238-3.035c.036 0 3.915.103 8.508-.738 3.98-.728 9.35-2.327 12.326-5.814 3.098-3.628 3.755-7.896 4.516-12.836.746-4.842 1.516-9.848 4.716-14.65 4.156-6.238 10.07-8.708 15.79-11.097 3.437-1.437 6.992-2.92 10.293-5.26 8.092-5.727 11.4-20.032 11.43-20.176a3.142 3.142 0 0 1 3.75-2.375 3.128 3.128 0 0 1 2.367 3.744c-.155.682-3.893 16.817-13.934 23.924-3.87 2.74-7.75 4.36-11.503 5.928-5.3 2.214-9.88 4.127-12.98 8.78C2.43 80.33 1.8 84.447 1.127 88.806c-.83 5.395-1.69 10.973-5.95 15.96-7.86 9.208-25.076 8.778-25.805 8.755a3.115 3.115 0 0 1-1.993-.8" fill="#FAD2C9"/><path d="M27.79 37.08c-3.003 3.333-8.256 3.497-11.734.366-3.478-3.13-3.864-8.373-.862-11.707 3.002-3.335 8.255-3.5 11.733-.367 3.478 3.13 3.864 8.373.862 11.706M44.837 52.43c-3.002 3.334-8.255 3.498-11.733.366-3.477-3.13-3.863-8.372-.86-11.706 3-3.334 8.253-3.498 11.73-.367 3.48 3.132 3.865 8.373.863 11.707M60.28 66.333c-3.003 3.334-8.256 3.498-11.734.367-3.478-3.13-3.864-8.373-.862-11.707 3.002-3.334 8.255-3.498 11.732-.366 3.478 3.13 3.864 8.373.863 11.706" fill="#E49589"/><path d="M75.528 55.636c10.302-11.44 7.01-31.202-7.356-44.136L35.807 47.446l17.63 15.875 4 3.6c2.418 2.18 6.15 1.98 8.332-.445l9.388-10.427c.03-.033.054-.07.084-.103.095-.103.192-.204.286-.31" fill="#FAD2C9"/><path d="M68.172 11.5C53.807-1.434 33.81-2.645 23.508 8.797c-.094.105-.185.212-.277.318-.03.032-.062.06-.092.094l-9.39 10.425c-2.182 2.425-1.99 6.157.43 8.335l3.997 3.6 17.632 15.876L68.172 11.5z" fill="#F3C0B8"/><path d="M74.187 40.39c-1.386 4.265-5.137 6.874-8.378 5.826-3.24-1.047-4.745-5.354-3.36-9.62 1.387-4.264 5.138-6.873 8.38-5.825 3.24 1.048 4.744 5.355 3.357 9.62M59.37 30.487c-3.02 3.316-7.51 4.145-10.026 1.85-2.517-2.292-2.107-6.84.915-10.155 3.02-3.316 7.51-4.145 10.027-1.852 2.516 2.294 2.107 6.84-.916 10.157M44.7 18.596c-4.237 1.47-8.57.05-9.683-3.17-1.11-3.22 1.424-7.022 5.66-8.492 4.237-1.47 8.57-.05 9.682 3.17 1.11 3.22-1.425 7.023-5.66 8.492" fill="#E49589"/></g></svg>