<svg width="188" height="75" viewBox="0 0 188 75" xmlns="http://www.w3.org/2000/svg" xmlns:xlink="http://www.w3.org/1999/xlink"><title>Page 1</title><defs><path id="a" d="M0 0h188v75H0"/><path id="c" d="M0 0h188v75H0"/></defs><g fill="none" fill-rule="evenodd"><g><mask id="b" fill="#fff"><use xlink:href="#a"/></mask><path d="M166.62 32.432h-16.83v-.065c0-8.64-7.043-15.644-15.73-15.644h-23.567c-.845 0-2.482.243-3.5.372V75H166.62C178.428 75 188 65.48 188 53.734v-.036c0-11.745-9.572-21.266-21.38-21.266" fill="#FFF" mask="url(#b)"/></g><g><mask id="d" fill="#fff"><use xlink:href="#c"/></mask><path d="M107.087 17.095C105.14 7.347 96.494 0 86.122 0H53.987c-11.807 0-21.38 9.52-21.38 21.265v.037a21.08 21.08 0 0 0 3.162 11.13H21.38C9.572 32.432 0 41.952 0 53.698v.036C0 65.48 9.572 75 21.38 75h86.631V16.922c-.31.05-.618.106-.923.173" opacity=".5" fill="#FFF" mask="url(#d)"/></g></g></svg>