<svg width="252" height="105" viewBox="0 0 252 105" xmlns="http://www.w3.org/2000/svg" xmlns:xlink="http://www.w3.org/1999/xlink"><title>Page 1</title><defs><path id="a" d="M0 .218h289.637V70H0"/><path id="c" d="M0 35.218h289.637V105H0"/></defs><g fill="none" fill-rule="evenodd"><g transform="translate(72.38)"><mask id="b" fill="#fff"><use xlink:href="#a"/></mask><path d="M289.636 35.11c0 19.27-15.663 34.89-34.984 34.89H34.985C15.663 70 0 54.38 0 35.11 0 15.84 15.662.217 34.984.217h219.667c19.32 0 34.984 15.62 34.984 34.89" fill="#4C3F32" mask="url(#b)"/></g><mask id="d" fill="#fff"><use xlink:href="#c"/></mask><path d="M289.636 70.11c0 19.27-15.663 34.89-34.984 34.89H34.985C15.663 105 0 89.38 0 70.11c0-19.27 15.663-34.892 34.985-34.892h219.667c19.32 0 34.984 15.62 34.984 34.89" fill="#786956" mask="url(#d)"/></g></svg>