<svg width="159" height="71" viewBox="0 0 159 71" xmlns="http://www.w3.org/2000/svg"><title>Fill 1 + Fill 3</title><g fill="none" fill-rule="evenodd"><path d="M137.22 26.97h-28.316c-.56 0-1.115.006-1.666.047a22.19 22.19 0 0 0 .577-5.013C107.815 9.846 98.065 0 86.035 0H79.5v71h57.718C149.25 71 159 61.144 159 48.984c0-12.158-9.75-22.015-21.78-22.015" fill="#FEFEFE"/><path d="M57.72 0C45.69 0 35.937 9.857 35.937 22.016c0 1.704.198 3.302.56 4.953H21.782C9.753 26.97 0 36.825 0 48.983 0 61.144 9.752 71 21.78 71H79.5V0H57.72z" fill-opacity=".5" fill="#FFF"/></g></svg>