<svg width="57" height="57" viewBox="0 0 57 57" xmlns="http://www.w3.org/2000/svg" xmlns:xlink="http://www.w3.org/1999/xlink"><title>Oval 5 + Page 1</title><defs><path id="a" d="M0 .1h29.916v29.826H0V.1z"/><path id="c" d="M0 .1h29.916v29.826H0V.1z"/></defs><g transform="translate(1 1)" fill="none" fill-rule="evenodd"><circle stroke="#FCECA9" stroke-width="1.383" cx="27.5" cy="27.5" r="27.5"/><g transform="translate(12.132 12.132)"><mask id="b" fill="#fff"><use xlink:href="#a"/></mask><path d="M29.916 10.8v14.167c-.042.056-.106.106-.122.168-.792 3.153-2.894 4.79-6.16 4.79-5.807 0-11.616.002-17.425 0-3.61 0-6.112-2.48-6.117-6.072-.006-4.094-.002-8.19 0-12.283 0-.255.022-.51.033-.765h8.542c-1.984 4.496-1.473 7.797 1.558 10.252 2.597 2.104 6.42 2.21 9.173.237 1.376-.987 2.338-2.293 2.82-3.916.69-2.32.313-4.504-1.023-6.58h8.72z" fill="#FCECA9" mask="url(#b)"/></g><g transform="translate(12.132 12.132)"><mask id="d" fill="#fff"><use xlink:href="#c"/></mask><path d="M27.16 5.11c0-.482-.002-.963 0-1.445.005-.638-.325-1.022-.95-1.045a47.13 47.13 0 0 0-3.117-.003c-.546.016-.922.31-.93.9a96.485 96.485 0 0 0 0 3.25c.013.567.34.882.927.884 1.04.005 2.08.007 3.12 0 .622-.006.924-.36.946-.952.018-.53.004-1.06.004-1.588zM5.8.1h.872V7.43h1.163V.1h16.997c.133.05.263.113.4.145 2.05.478 3.47 1.694 4.263 3.628.17.417.282.858.42 1.288v4.772c-2.972-.012-5.946-.014-8.92-.052a1.61 1.61 0 0 1-.957-.352c-2.968-2.566-7.15-2.57-10.137-.005-.243.21-.63.353-.95.357-2.71.028-5.418.017-8.128.014-.212 0-.424-.023-.822-.047.102-1.85.08-3.68.34-5.467.19-1.296 1.046-2.328 2.282-3.2v6.265h1.15c0-2.103.025-4.168-.016-6.232-.013-.664.234-.896.917-.868v7.088H5.8V.1z" fill="#FCECA9" mask="url(#d)"/></g><path d="M27.11 23.015c-2.417.01-4.292 1.91-4.274 4.33.018 2.35 1.96 4.272 4.3 4.26 2.357-.01 4.334-2.01 4.308-4.356-.025-2.337-1.978-4.245-4.333-4.235m-.002-1.572c3.267 0 5.93 2.65 5.91 5.878-.02 3.19-2.684 5.84-5.885 5.855-3.24.016-5.922-2.633-5.935-5.865-.014-3.236 2.637-5.868 5.91-5.867" fill="#FCECA9"/></g></svg>