<svg width="181" height="91" viewBox="0 0 181 91" xmlns="http://www.w3.org/2000/svg" xmlns:xlink="http://www.w3.org/1999/xlink"><title>Page 1</title><defs><path id="a" d="M0 0h221v91H0"/></defs><g fill="none" fill-rule="evenodd"><g><mask id="b" fill="#fff"><use xlink:href="#a"/></mask><path d="M190.047 27.3h-42.643c.566-2.14.634-3.983.634-6.084v-.23c0-11.613-9.06-20.986-20.53-20.986H110.5v91h79.547C207.274 91 221 76.818 221 59.375v-.535c0-17.442-13.726-31.54-30.953-31.54" fill="#FEFEFE" mask="url(#b)"/></g><path d="M92.386 0c-11.47 0-21.01 9.373-21.01 20.987 0 .28.243.425.243.425h-17.3c-11.472 0-21.01 9.373-21.01 20.987 0 2.33.547 4.17 1.113 6.312H21.01C9.54 48.712 0 58.085 0 69.7 0 81.54 9.54 91 21.01 91H110.5V0H92.386z" fill-opacity=".5" fill="#FFF"/></g></svg>