<svg width="57" height="57" viewBox="0 0 57 57" xmlns="http://www.w3.org/2000/svg" xmlns:xlink="http://www.w3.org/1999/xlink"><title>Oval 5 + Page 1</title><defs><path id="a" d="M0 .106h33.083v30.63H0V.105z"/></defs><g transform="translate(1 1)" fill="none" fill-rule="evenodd"><circle stroke="#FCECA9" stroke-width="1.383" cx="27.5" cy="27.5" r="27.5"/><path d="M23.582 40.44l.015-3.626c.004-1.03.008-2.06.01-3.09l.01-5.33c0-1.405.005-2.81.003-4.215-.002-1.202-.01-2.403-.02-3.604 0-.22-.01-.442-.016-.663v-.122c.1-.025 6.824-.037 7.098-.01l.003.466V22.63l.023.007.08-.105c.378-.55.804-1.062 1.307-1.51.885-.79 1.92-1.3 3.094-1.55a8.87 8.87 0 0 1 1.74-.185c.998-.013 1.977.1 2.927.4 1.916.604 3.313 1.795 4.23 3.524.456.865.75 1.782.92 2.735.073.414.12.833.175 1.25.012.095.005.192.01.288.003.05.015.097.023.146v12.81h-7.082l.003-.036v-11.06a8.48 8.48 0 0 0-.133-1.554 4.82 4.82 0 0 0-.494-1.454c-.387-.705-.956-1.204-1.748-1.45a4.13 4.13 0 0 0-1.402-.165 3.653 3.653 0 0 0-1.87.577c-.696.448-1.18 1.064-1.512 1.798-.08.174-.14.36-.184.544-.09.38-.108.767-.108 1.155v11.472c0 .058.003.116.004.174h-7.108zM12.572 40.44c0-.057-.004-.116-.004-.174V19.78h7.09c.003.02.01.038.01.058.004.042.002.084.002.126v20.292c0 .062-.01.124-.017.185h-7.08z" fill="#FCECA9"/><g transform="translate(12.132 9.706)"><mask id="b" fill="#fff"><use xlink:href="#a"/></mask><path d="M4.445.106l.316.05c.898.13 1.683.472 2.304 1.128.45.476.725 1.04.857 1.67.17.8.086 1.576-.286 2.313-.435.86-1.145 1.426-2.07 1.742-.63.215-1.28.277-1.946.236-.605-.038-1.183-.174-1.716-.456C.892 6.257.288 5.437.075 4.346.065 4.29.06 4.23.047 4.173c-.01-.047-.03-.092-.047-.14v-.7c.016-.046.036-.092.046-.14.014-.068.02-.14.033-.21.14-.72.474-1.34 1.026-1.845C1.726.573 2.47.273 3.304.155c.105-.015.21-.033.314-.05h.827z" fill="#FCECA9" mask="url(#b)"/></g></g></svg>