<svg width="141" height="161" viewBox="0 0 141 161" xmlns="http://www.w3.org/2000/svg"><title>Page 1</title><g fill="none" fill-rule="evenodd"><path d="M30.252 159.254a3.964 3.964 0 0 1-1.308-3.19 3.99 3.99 0 0 1 4.21-3.744c.044.002 4.96.26 10.814-.652 5.073-.79 11.936-2.64 15.83-6.964 4.05-4.5 5.027-9.89 6.157-16.133 1.108-6.115 2.253-12.44 6.472-18.426 5.48-7.774 13.064-10.71 20.398-13.55 4.41-1.706 8.968-3.472 13.235-6.326 10.413-6.967 15.13-25.037 15.176-25.218a3.988 3.988 0 0 1 4.836-2.883 3.968 3.968 0 0 1 2.875 4.826c-.22.862-5.5 21.206-18.474 29.886-5 3.344-9.977 5.27-14.79 7.134-6.798 2.632-12.67 4.905-16.757 10.705-3.204 4.544-4.146 9.746-5.143 15.253-1.234 6.816-2.51 13.865-8.08 20.05-10.28 11.416-32.102 10.294-33.026 10.24a3.95 3.95 0 0 1-2.425-1.01M2.306 129.44a3.95 3.95 0 0 1-1.3-2.68c-.064-.922-1.41-22.737 9.897-33.136 6.126-5.634 13.16-6.983 19.96-8.287 5.496-1.054 10.687-2.05 15.198-5.3 5.758-4.15 7.97-10.044 10.53-16.87 1.814-4.834 3.69-9.83 6.982-14.866C72.116 35.237 92.4 29.745 93.26 29.518a3.967 3.967 0 0 1 4.857 2.828 3.988 3.988 0 0 1-2.837 4.864c-.27.072-18.213 4.977-25.053 15.437-2.81 4.296-4.528 8.875-6.19 13.3-2.762 7.366-5.62 14.982-13.335 20.543-5.94 4.28-12.252 5.49-18.356 6.662-6.23 1.195-11.61 2.227-16.065 6.324-4.282 3.94-6.06 10.822-6.8 15.904-.85 5.865-.54 10.78-.538 10.828a3.99 3.99 0 0 1-3.703 4.242 3.958 3.958 0 0 1-2.934-1.01M13.177 142.245a3.962 3.962 0 0 1-1.312-3.085 3.99 3.99 0 0 1 4.11-3.852c.044 0 4.966.13 10.795-.936 5.05-.924 11.862-2.954 15.64-7.38 3.932-4.603 4.766-10.018 5.73-16.287.948-6.144 1.926-12.497 5.986-18.59C59.4 84.198 66.904 81.064 74.16 78.03c4.364-1.822 8.875-3.707 13.065-6.673 10.27-7.27 14.466-25.423 14.507-25.605a3.987 3.987 0 0 1 4.756-3.015 3.97 3.97 0 0 1 3.004 4.75c-.196.868-4.94 21.343-17.68 30.362-4.91 3.475-9.836 5.532-14.598 7.522-6.727 2.81-12.536 5.236-16.47 11.143-3.084 4.626-3.888 9.85-4.74 15.383-1.054 6.845-2.144 13.924-7.55 20.253-9.975 11.684-31.822 11.137-32.747 11.108a3.953 3.953 0 0 1-2.53-1.015" fill="#FAD2C9"/><path d="M89.838 46.26c-3.81 4.23-10.475 4.44-14.89.466-4.412-3.974-4.9-10.625-1.092-14.856 3.81-4.23 10.475-4.44 14.888-.465 4.414 3.974 4.903 10.625 1.094 14.856M111.472 65.74c-3.81 4.23-10.475 4.44-14.888.465C92.17 62.23 91.68 55.58 95.49 51.35c3.81-4.23 10.475-4.44 14.888-.466 4.414 3.974 4.903 10.625 1.094 14.856M131.067 83.383c-3.81 4.23-10.475 4.44-14.89.465-4.412-3.973-4.902-10.625-1.092-14.855s10.475-4.44 14.888-.466 4.903 10.626 1.094 14.856" fill="#E49589"/><path d="M150.42 69.81c13.072-14.52 8.892-39.596-9.337-56.01l-41.07 45.615 22.373 20.145 5.073 4.568c3.07 2.764 7.804 2.51 10.575-.566l11.913-13.23c.038-.043.07-.09.107-.132l.364-.39" fill="#FAD2C9"/><path d="M141.083 13.8C122.853-2.61 97.48-4.147 84.406 10.37c-.12.134-.234.27-.35.404-.04.04-.082.077-.12.12l-11.914 13.23c-2.77 3.077-2.527 7.813.543 10.577l5.073 4.57 22.375 20.145 41.07-45.614z" fill="#F3C0B8"/><path d="M148.717 50.462c-1.76 5.412-6.52 8.722-10.63 7.393-4.114-1.33-6.022-6.794-4.263-12.206 1.76-5.414 6.518-8.724 10.63-7.395 4.114 1.33 6.022 6.795 4.263 12.207M129.916 37.895c-3.835 4.208-9.532 5.26-12.725 2.35-3.192-2.91-2.673-8.682 1.162-12.89 3.835-4.207 9.532-5.26 12.725-2.35 3.194 2.912 2.674 8.682-1.16 12.89M111.297 22.806c-5.376 1.865-10.876.064-12.286-4.022-1.407-4.087 1.808-8.912 7.183-10.777 5.377-1.865 10.876-.064 12.286 4.022 1.408 4.087-1.807 8.91-7.183 10.776" fill="#E49589"/></g></svg>