<svg xmlns="http://www.w3.org/2000/svg" width="57" height="57" viewBox="0 0 57 57"><title>Oval 5 + Page 1</title><circle fill="none" stroke="#FCECA9" stroke-width="1.383" cx="28.5" cy="28.5" r="27.5"/><path fill-rule="evenodd" clip-rule="evenodd" fill="#FBEBA8" d="M46.117 28.157c-.29.362-.59.717-.873 1.085-.904 1.184-1.8 2.37-2.7 3.557l-2.925 3.847c-.846 1.11-1.692 2.22-2.532 3.334-.114.153-.245.2-.43.2a7769.35 7769.35 0 0 0-16.012.003c-.23 0-.358-.098-.488-.26-1.414-1.76-2.833-3.515-4.247-5.272-1.185-1.474-2.366-2.95-3.55-4.425-.487-.605-.977-1.21-1.478-1.83l8.284-11.577L28.45 29.29l9.678-12.468c.31.43.604.836.895 1.245l3.005 4.24c.962 1.362 1.92 2.726 2.885 4.084.395.557.803 1.104 1.204 1.654v.113z"/></svg>