<svg width="151" height="151" viewBox="0 0 151 151" xmlns="http://www.w3.org/2000/svg" xmlns:xlink="http://www.w3.org/1999/xlink"><title>Oval 1 + Page 1</title><defs><path id="a" d="M0 .308h91.997V82H0V.308z"/><path id="c" d="M0 .308h91.997V82H0V.308z"/></defs><g transform="translate(2 2)" fill="none" fill-rule="evenodd"><circle stroke="#EA5C67" stroke-width="3" cx="73.5" cy="73.5" r="73.5"/><g transform="translate(29 31)"><mask id="b" fill="#fff"><use xlink:href="#a"/></mask><path d="M87.333 12.16c0-1.63.002-3.175 0-4.718-.005-2.413-.104-2.51-2.548-2.51H7.225c-.48 0-.997-.1-1.43.046-.4.135-1 .526-1.013.826-.088 2.113-.046 4.232-.046 6.357h82.597zM4.75 16.964c-.032.654-.082 1.228-.082 1.802-.004 18.722-.004 37.445-.003 56.167 0 2.224.165 2.404 2.348 2.405 26.015.003 52.03.004 78.047 0 2.072-.002 2.27-.216 2.27-2.324.004-18.777.004-37.553-.002-56.33 0-.564-.07-1.13-.11-1.72H4.747zM46.16.31c12.98 0 25.964-.002 38.946 0 4.798.002 6.89 2.132 6.89 7.006 0 22.598.002 45.197 0 67.795 0 4.63-2.266 6.89-6.907 6.89H6.873C2.237 81.997 0 79.747 0 75.09V6.975C0 2.548 2.19.316 6.57.314 19.768.303 32.964.31 46.16.31z" fill="#EB5C67" mask="url(#b)"/><mask id="d" fill="#fff"><use xlink:href="#c"/></mask><path d="M52.848 43.472h10.98v-9.53h-10.98v9.53zm15.678 4.622h-20.32V29.212h20.32v18.882zM23.448 51.63h46.058v4.43H23.448v-4.43zM69.552 63.678H23.51v-4.4h46.042v4.4zM23.52 28.618h20.34v4.532H23.52v-4.532zM43.84 40.798H23.47v-4.495h20.37v4.495zM43.864 48.395h-20.36V44.01h20.36v4.385zM25.64 8.71a2.274 2.274 0 0 1-2.195 2.298c-1.347.045-2.33-.92-2.335-2.29-.005-1.337.854-2.236 2.167-2.27 1.364-.034 2.36.92 2.362 2.263M16.437 11.01c-1.247-.025-2.338-1.162-2.283-2.38.057-1.26 1.16-2.236 2.464-2.18 1.212.05 2.202 1.082 2.188 2.277a2.324 2.324 0 0 1-2.37 2.282M11.9 8.656c.027 1.252-.913 2.288-2.135 2.352a2.288 2.288 0 0 1-2.403-2.243c-.024-1.313.844-2.256 2.132-2.315 1.373-.063 2.38.86 2.407 2.206" fill="#EB5C67" mask="url(#d)"/></g></g></svg>