<svg width="176" height="72" viewBox="0 0 176 72" xmlns="http://www.w3.org/2000/svg" xmlns:xlink="http://www.w3.org/1999/xlink"><title>Page 1</title><defs><path id="a" d="M0 0h176v72H0"/></defs><g fill="none" fill-rule="evenodd"><g><mask id="b" fill="#fff"><use xlink:href="#a"/></mask><path d="M151.35 21.6h-33.96c.45-1.694.505-3.15.505-4.813v-.182c0-9.19-7.215-16.605-16.35-16.605H88v72H151.35C165.07 72 176 60.78 176 46.978v-.423c0-13.8-10.93-24.955-24.65-24.955" fill="#FEFEFE" mask="url(#b)"/></g><path d="M73.574 0C64.44 0 56.842 7.416 56.842 16.605c0 .222.194.336.194.336H43.26c-9.137 0-16.734 7.417-16.734 16.606 0 1.844.437 3.3.888 4.995H16.732C7.597 38.54 0 45.958 0 55.147 0 64.516 7.597 72 16.732 72H88V0H73.574z" fill-opacity=".5" fill="#FFF"/></g></svg>