<svg width="128" height="59" viewBox="0 0 128 59" xmlns="http://www.w3.org/2000/svg" xmlns:xlink="http://www.w3.org/1999/xlink"><title>Page 1</title><defs><path id="a" d="M0 .122h161.175v39.21H0"/><path id="c" d="M0 19.79h161.175V59H0"/></defs><g transform="matrix(-1 0 0 1 128 0)" fill="none" fill-rule="evenodd"><g transform="translate(40.278)"><mask id="b" fill="#fff"><use xlink:href="#a"/></mask><path d="M161.175 19.728c0 10.828-8.716 19.605-19.468 19.605H19.467C8.718 39.333 0 30.556 0 19.728 0 8.9 8.716.123 19.468.123h122.24c10.75 0 19.467 8.777 19.467 19.605" fill="#5F4D3D" mask="url(#b)"/></g><mask id="d" fill="#fff"><use xlink:href="#c"/></mask><path d="M161.175 39.395c0 10.827-8.716 19.605-19.468 19.605H19.467C8.718 59 0 50.222 0 39.395 0 28.567 8.716 19.79 19.468 19.79h122.24c10.75 0 19.467 8.777 19.467 19.605" fill="#382E24" mask="url(#d)"/></g></svg>