<svg width="151" height="151" viewBox="0 0 151 151" xmlns="http://www.w3.org/2000/svg" xmlns:xlink="http://www.w3.org/1999/xlink"><title>Oval 1 + Page 1</title><defs><path id="a" d="M0 .26h85.944V92H0"/></defs><g transform="translate(2 2)" fill="none" fill-rule="evenodd"><circle stroke="#EA5C67" stroke-width="3" cx="73.5" cy="73.5" r="73.5"/><g transform="translate(31 28)"><mask id="b" fill="#fff"><use xlink:href="#a"/></mask><path d="M43.64 45.926l-3.615-3.868-2.803 6.686 6.418-2.818m35.264-33.338L73.57 7.232l-2.814 2.426 5.444 5.465 2.704-2.535m-30.546 30.38l23.78-23.978-5.04-5.03c-7.875 7.855-15.84 15.8-23.598 23.536l4.858 5.472m37.586-30.78c-.43.678-.722 1.396-1.228 1.902A19057.312 19057.312 0 0 1 50.32 48.405c-.32.32-.742.577-1.162.76-5.147 2.223-10.312 4.407-15.45 6.652-1.28.56-2.458.755-3.522-.315-1.074-1.078-.815-2.295-.277-3.534 2.118-4.874 4.194-9.768 6.36-14.622.41-.918 1.045-1.795 1.76-2.51C48.55 24.327 59.106 13.85 69.65 3.362c.736-.73 1.404-1.532 2.167-2.233C73.034.01 74.44-.055 75.624 1.094a567.995 567.995 0 0 1 9.432 9.397c.4.407.558 1.048.888 1.7" fill="#EA5C67" mask="url(#b)"/></g><path d="M53.06 101.85c-3.5 0-7.002.073-10.498-.013-8.98-.224-14.418-9.736-9.992-17.523 2.083-3.664 5.376-5.63 9.582-5.89 2.403-.15 4.822-.075 7.232-.045 1.81.02 3 1.164 2.962 2.733-.038 1.507-1.22 2.57-2.954 2.592-2.222.027-4.446-.025-6.667.026-3.68.085-6.384 2.81-6.392 6.373-.007 3.608 2.76 6.38 6.506 6.4 6.902.037 13.806 0 20.71.016 5.64.012 10.3 3.71 11.6 9.163 1.683 7.07-3.774 14.147-11.07 14.278-3.97.073-7.944.026-11.916.01-1.758-.007-2.898-1.035-2.934-2.573-.037-1.584 1.116-2.73 2.93-2.75 3.83-.042 7.662 0 11.492-.02 3.366-.017 5.842-2.146 6.383-5.44.62-3.78-2.314-7.28-6.195-7.32-3.593-.038-7.187-.008-10.78-.008v-.01z" fill="#EA5C67"/></g></svg>