<svg width="154" height="157" viewBox="0 0 154 157" xmlns="http://www.w3.org/2000/svg"><title>Page 1</title><g fill="none" fill-rule="evenodd"><path d="M29.274 155.584A3.86 3.86 0 0 1 28 152.477a3.885 3.885 0 0 1 4.1-3.645c.042.002 4.83.254 10.53-.634 4.94-.77 11.623-2.57 15.414-6.782 3.945-4.38 4.896-9.63 5.996-15.71 1.08-5.956 2.194-12.115 6.302-17.944 5.336-7.57 12.72-10.43 19.863-13.194 4.294-1.662 8.733-3.38 12.888-6.16 10.14-6.784 14.732-24.38 14.778-24.557a3.884 3.884 0 0 1 4.71-2.806 3.864 3.864 0 0 1 2.8 4.7c-.214.84-5.357 20.65-17.99 29.102-4.87 3.257-9.715 5.133-14.402 6.947-6.62 2.563-12.336 4.776-16.317 10.425-3.12 4.425-4.036 9.49-5.007 14.853-1.202 6.64-2.445 13.502-7.867 19.525-10.01 11.117-31.26 10.024-32.16 9.973a3.847 3.847 0 0 1-2.362-.984M2.06 126.552a3.847 3.847 0 0 1-1.267-2.608c-.06-.9-1.372-22.142 9.64-32.268 5.964-5.486 12.813-6.8 19.436-8.07 5.35-1.026 10.406-1.996 14.797-5.16 5.607-4.04 7.76-9.78 10.254-16.428 1.767-4.707 3.593-9.573 6.8-14.476 8.32-12.722 28.072-18.07 28.908-18.29a3.863 3.863 0 0 1 4.73 2.753 3.883 3.883 0 0 1-2.762 4.736c-.265.072-17.736 4.848-24.396 15.034-2.737 4.184-4.41 8.642-6.027 12.952-2.69 7.172-5.473 14.588-12.986 20.003-5.784 4.168-11.93 5.346-17.874 6.486-6.066 1.164-11.304 2.168-15.644 6.16-4.172 3.834-5.904 10.537-6.622 15.485-.83 5.712-.528 10.498-.525 10.545a3.886 3.886 0 0 1-3.607 4.13 3.855 3.855 0 0 1-2.855-.983M12.647 139.022a3.858 3.858 0 0 1-1.278-3.005 3.884 3.884 0 0 1 4-3.75c.044 0 4.836.126 10.513-.912 4.917-.9 11.55-2.876 15.23-7.185 3.828-4.484 4.64-9.757 5.58-15.862.922-5.982 1.874-12.168 5.828-18.103 5.136-7.707 12.444-10.76 19.51-13.712 4.25-1.775 8.642-3.61 12.722-6.498 10-7.078 14.086-24.755 14.126-24.932a3.883 3.883 0 0 1 4.632-2.936 3.865 3.865 0 0 1 2.925 4.626c-.19.844-4.81 20.782-17.217 29.564-4.782 3.385-9.578 5.388-14.215 7.325-6.55 2.736-12.207 5.1-16.038 10.85-3.002 4.506-3.785 9.594-4.615 14.98-1.026 6.666-2.088 13.56-7.35 19.722-9.715 11.377-30.99 10.845-31.89 10.817a3.85 3.85 0 0 1-2.463-.988" fill="#FAD2C9"/><path d="M87.296 45.555c-3.71 4.12-10.2 4.323-14.498.453-4.297-3.87-4.774-10.346-1.064-14.466 3.71-4.12 10.2-4.322 14.497-.453 4.3 3.87 4.776 10.346 1.066 14.465M108.363 64.524c-3.71 4.12-10.2 4.322-14.498.452-4.297-3.87-4.774-10.346-1.065-14.465 3.71-4.12 10.2-4.322 14.498-.452 4.297 3.87 4.774 10.346 1.065 14.466M127.444 81.704c-3.71 4.12-10.2 4.322-14.498.453-4.298-3.87-4.775-10.347-1.065-14.466 3.71-4.12 10.2-4.32 14.498-.452 4.298 3.87 4.775 10.346 1.066 14.466" fill="#E49589"/><path d="M146.288 68.485c12.73-14.138 8.66-38.555-9.09-54.538L97.203 58.364 118.99 77.98l4.94 4.45c2.99 2.69 7.6 2.444 10.3-.552l11.6-12.884c.037-.04.067-.086.103-.127.118-.127.238-.252.355-.382" fill="#FAD2C9"/><path d="M137.197 13.947c-17.75-15.983-42.46-17.478-55.19-3.34-.116.13-.228.26-.342.392-.037.04-.08.075-.116.116L69.947 24c-2.697 2.996-2.46 7.607.53 10.3l4.94 4.447 21.786 19.617 39.993-44.417z" fill="#F3C0B8"/><path d="M144.63 49.646c-1.712 5.27-6.347 8.494-10.352 7.2-4.005-1.295-5.863-6.617-4.15-11.887 1.713-5.272 6.348-8.494 10.353-7.2 4.005 1.294 5.864 6.616 4.15 11.886M126.323 37.41c-3.735 4.097-9.282 5.12-12.392 2.287-3.108-2.834-2.602-8.454 1.132-12.55 3.735-4.098 9.282-5.122 12.392-2.29 3.11 2.836 2.603 8.455-1.13 12.552M108.193 22.716c-5.235 1.816-10.59.062-11.964-3.917-1.373-3.98 1.758-8.68 6.993-10.495 5.235-1.816 10.59-.062 11.963 3.917 1.372 3.98-1.76 8.678-6.993 10.494" fill="#E49589"/></g></svg>