<svg width="226" height="93" viewBox="0 0 226 93" xmlns="http://www.w3.org/2000/svg" xmlns:xlink="http://www.w3.org/1999/xlink"><title>Page 1</title><defs><path id="a" d="M0 0h227v93H0"/></defs><g fill="none" fill-rule="evenodd"><g><mask id="b" fill="#fff"><use xlink:href="#a"/></mask><path d="M194.206 27.9h-43.8c.58-2.188.65-4.07.65-6.217v-.234C151.057 9.58 141.753 0 129.97 0H112.5v93h81.706C211.902 93 226 78.506 226 60.68v-.547c0-17.826-14.098-32.233-31.794-32.233" fill="#FEFEFE" mask="url(#b)"/></g><path d="M94.894 0c-11.782 0-21.58 9.58-21.58 21.45v.233c0 .052.25.2.25.2h-17.77c-11.782 0-21.58 9.578-21.58 21.448v.235c0 2.147.562 4.03 1.144 6.217H21.58C9.8 49.782 0 59.362 0 71.232v.233C0 83.335 9.8 93 21.58 93h91.92V0H94.894z" fill-opacity=".5" fill="#FFF"/></g></svg>