<svg width="150" height="66" viewBox="0 0 150 66" xmlns="http://www.w3.org/2000/svg"><title>Fill 1 + Fill 3</title><g fill="none" fill-rule="evenodd"><path d="M129.452 25.07H102.74c-.53 0-1.052.006-1.572.045.352-1.5.544-3.053.544-4.66C101.712 9.153 92.512 0 81.164 0H75v66h54.452C140.802 66 150 56.838 150 45.535c0-11.302-9.2-20.465-20.548-20.465" fill="#FEFEFE"/><path d="M54.452 0c-11.35 0-20.548 9.163-20.548 20.465 0 1.584.187 3.07.53 4.605H20.547C9.2 25.07 0 34.233 0 45.535S9.2 66 20.548 66H75V0H54.452z" fill-opacity=".5" fill="#FFF"/></g></svg>