<svg width="263" height="105" viewBox="0 0 263 105" xmlns="http://www.w3.org/2000/svg" xmlns:xlink="http://www.w3.org/1999/xlink"><title>Page 1</title><defs><path id="a" d="M0 0h263v105H0"/><path id="c" d="M0 0h263v105H0"/></defs><g fill="none" fill-rule="evenodd"><g><mask id="b" fill="#fff"><use xlink:href="#a"/></mask><path d="M233.09 45.405h-23.545v-.09c0-12.097-9.85-21.903-22.003-21.903h-32.97c-1.182 0-3.472.34-4.897.52V105H233.09C249.61 105 263 91.67 263 75.228v-.05c0-16.443-13.39-29.773-29.91-29.773" fill="#FFF" mask="url(#b)"/></g><g><mask id="d" fill="#fff"><use xlink:href="#c"/></mask><path d="M149.808 23.933C147.082 10.286 134.988 0 120.478 0H75.525C59.006 0 45.616 13.33 45.616 29.772v.05a29.53 29.53 0 0 0 4.423 15.583H29.91C13.39 45.405 0 58.735 0 75.177v.05C0 91.672 13.39 105 29.91 105H151.1V23.69c-.434.07-.865.15-1.292.243" fill="#FFEEEB" mask="url(#d)"/></g></g></svg>