<svg width="223" height="89" viewBox="0 0 223 89" xmlns="http://www.w3.org/2000/svg" xmlns:xlink="http://www.w3.org/1999/xlink"><title>Page 1</title><defs><path id="a" d="M0 0h223v89H0"/><path id="c" d="M0 0h223v89H0"/></defs><g fill="none" fill-rule="evenodd"><g><mask id="b" fill="#fff"><use xlink:href="#a"/></mask><path d="M197.64 38.486h-19.965v-.077c0-10.254-8.353-18.565-18.657-18.565h-27.955c-1.002 0-2.944.288-4.152.44V89h70.729C211.646 89 223 77.702 223 63.765v-.043c0-13.937-11.354-25.236-25.36-25.236" fill="#FFF" mask="url(#b)"/></g><g><mask id="d" fill="#fff"><use xlink:href="#c"/></mask><path d="M127.024 20.286C124.712 8.72 114.458 0 102.154 0H64.04c-14.006 0-25.36 11.298-25.36 25.235v.043c0 4.843 1.373 9.366 3.75 13.208H25.36C11.355 38.486 0 49.786 0 63.722v.043C0 77.702 11.355 89 25.36 89H128.12V20.08c-.37.06-.735.127-1.096.206" fill-opacity=".5" fill="#FFF" mask="url(#d)"/></g></g></svg>