<svg width="154" height="156" viewBox="0 0 154 156" xmlns="http://www.w3.org/2000/svg"><title>Page 1</title><g fill="none" fill-rule="evenodd"><path d="M29.086 154.658a3.86 3.86 0 0 1-1.273-3.107 3.885 3.885 0 0 1 4.098-3.644c.044.002 4.83.254 10.533-.634 4.94-.77 11.622-2.57 15.414-6.782 3.945-4.38 4.895-9.63 5.996-15.71 1.08-5.956 2.194-12.115 6.302-17.944 5.335-7.57 12.72-10.43 19.863-13.194 4.293-1.662 8.732-3.38 12.887-6.16 10.14-6.784 14.733-24.38 14.778-24.557a3.884 3.884 0 0 1 4.71-2.807 3.864 3.864 0 0 1 2.8 4.7c-.214.84-5.357 20.65-17.99 29.102-4.87 3.257-9.715 5.133-14.403 6.947-6.62 2.563-12.336 4.776-16.317 10.425-3.12 4.425-4.037 9.49-5.008 14.853-1.2 6.638-2.444 13.5-7.867 19.524-10.01 11.116-31.26 10.023-32.16 9.972a3.847 3.847 0 0 1-2.362-.984M1.874 125.626a3.847 3.847 0 0 1-1.268-2.608c-.06-.9-1.373-22.142 9.64-32.268 5.964-5.486 12.813-6.8 19.436-8.07 5.35-1.026 10.406-1.996 14.798-5.16 5.606-4.04 7.76-9.78 10.254-16.428 1.765-4.707 3.59-9.573 6.798-14.476 8.32-12.722 28.072-18.07 28.91-18.29a3.863 3.863 0 0 1 4.728 2.753 3.883 3.883 0 0 1-2.762 4.735c-.264.07-17.735 4.847-24.396 15.033-2.736 4.184-4.41 8.642-6.026 12.952-2.69 7.172-5.473 14.588-12.987 20.003-5.784 4.17-11.93 5.347-17.875 6.487-6.066 1.164-11.304 2.168-15.644 6.16-4.17 3.834-5.9 10.537-6.62 15.485-.83 5.71-.528 10.497-.525 10.544a3.886 3.886 0 0 1-3.606 4.13 3.855 3.855 0 0 1-2.856-.984M12.46 138.096a3.858 3.858 0 0 1-1.278-3.005 3.884 3.884 0 0 1 4-3.75c.044 0 4.837.127 10.513-.91 4.917-.9 11.552-2.877 15.23-7.186 3.83-4.484 4.64-9.757 5.58-15.862.923-5.982 1.875-12.168 5.83-18.103 5.134-7.708 12.44-10.76 19.508-13.713 4.25-1.775 8.64-3.61 12.72-6.498 10-7.08 14.088-24.756 14.128-24.933a3.883 3.883 0 0 1 4.633-2.936 3.865 3.865 0 0 1 2.924 4.627c-.19.844-4.81 20.782-17.217 29.564-4.78 3.386-9.577 5.39-14.214 7.326-6.55 2.736-12.207 5.1-16.04 10.85-3 4.506-3.784 9.594-4.613 14.98-1.027 6.666-2.09 13.56-7.35 19.722-9.715 11.377-30.99 10.845-31.89 10.817a3.85 3.85 0 0 1-2.464-.99" fill="#FAD2C9"/><path d="M87.11 44.63c-3.71 4.12-10.2 4.322-14.5.452-4.296-3.87-4.773-10.346-1.064-14.466 3.71-4.12 10.2-4.322 14.498-.453 4.297 3.87 4.774 10.347 1.065 14.466M108.176 63.598c-3.71 4.12-10.2 4.322-14.5.452-4.296-3.87-4.773-10.346-1.063-14.465 3.71-4.12 10.2-4.323 14.497-.453 4.298 3.87 4.775 10.346 1.066 14.466M127.256 80.778c-3.71 4.12-10.2 4.322-14.498.453-4.297-3.87-4.774-10.346-1.065-14.465 3.71-4.12 10.2-4.322 14.498-.453 4.3 3.87 4.775 10.346 1.066 14.466" fill="#E49589"/><path d="M146.1 67.56c12.73-14.14 8.66-38.556-9.09-54.54L97.017 57.44l21.786 19.617 4.94 4.448c2.99 2.692 7.6 2.445 10.298-.55l11.602-12.885c.037-.04.068-.086.104-.127.118-.126.238-.25.354-.38" fill="#FAD2C9"/><path d="M137.01 13.02C119.26-2.96 94.55-4.456 81.82 9.68c-.117.13-.23.262-.342.393-.038.04-.08.076-.116.117l-11.6 12.884c-2.7 2.996-2.463 7.607.527 10.3l4.94 4.447L97.016 57.44 137.01 13.02z" fill="#F3C0B8"/><path d="M144.443 48.72c-1.713 5.27-6.348 8.494-10.352 7.2-4.004-1.295-5.862-6.617-4.15-11.887 1.713-5.27 6.348-8.493 10.353-7.2 4.005 1.295 5.863 6.617 4.15 11.887M126.135 36.483c-3.734 4.098-9.282 5.122-12.39 2.288-3.11-2.833-2.604-8.453 1.13-12.55 3.734-4.097 9.282-5.12 12.39-2.288 3.11 2.835 2.605 8.454-1.13 12.55M108.005 21.79c-5.235 1.816-10.59.062-11.964-3.917-1.37-3.98 1.76-8.678 6.995-10.494 5.235-1.817 10.59-.063 11.964 3.916 1.37 3.98-1.76 8.678-6.995 10.494" fill="#E49589"/></g></svg>