<svg width="238" height="105" viewBox="0 0 238 105" xmlns="http://www.w3.org/2000/svg"><title>Fill 1 + Fill 3</title><g fill="none" fill-rule="evenodd"><path d="M205.397 39.884h-42.383c-.84 0-1.67.01-2.494.07a32.44 32.44 0 0 0 .864-7.412C161.384 14.562 146.787 0 128.78 0H119v105h86.396C223.405 105 238 90.424 238 72.442c0-17.98-14.596-32.558-32.603-32.558" fill="#FEFEFE"/><path d="M86.397 0C68.39 0 53.795 14.577 53.795 32.558c0 2.52.295 4.884.838 7.326h-22.03C14.597 39.884 0 54.46 0 72.442 0 90.422 14.597 105 32.603 105H119V0H86.397z" fill="#FFEEEB"/></g></svg>