<svg width="225" height="93" viewBox="0 0 225 93" xmlns="http://www.w3.org/2000/svg" xmlns:xlink="http://www.w3.org/1999/xlink"><title>Page 1</title><defs><path id="a" d="M0 0h225v93H0"/></defs><g fill="none" fill-rule="evenodd"><g><mask id="b" fill="#fff"><use xlink:href="#a"/></mask><path d="M193.487 27.9h-43.415c.576-2.188.646-4.07.646-6.217v-.234c0-11.87-9.224-21.45-20.902-21.45H112.5v93h80.987C211.027 93 225 78.506 225 60.68v-.547c0-17.826-13.974-32.233-31.513-32.233" fill="#FEFEFE" mask="url(#b)"/></g><path d="M94.058 0c-11.678 0-21.39 9.58-21.39 21.45 0 .285.248.432.248.432H55.302c-11.678 0-21.39 9.58-21.39 21.45 0 2.38.558 4.262 1.134 6.45H21.39C9.713 49.782 0 59.362 0 71.232 0 83.334 9.712 93 21.39 93H112.5V0H94.058z" fill-opacity=".5" fill="#FFF"/></g></svg>