<svg width="237" height="97" viewBox="0 0 237 97" xmlns="http://www.w3.org/2000/svg" xmlns:xlink="http://www.w3.org/1999/xlink"><title>Page 1</title><defs><path id="a" d="M0 0h237v97H0"/></defs><g fill="none" fill-rule="evenodd"><g><mask id="b" fill="#fff"><use xlink:href="#a"/></mask><path d="M203.806 29.1h-45.73c.607-2.282.68-4.246.68-6.485v-.244C158.756 9.99 149.04 0 136.74 0H118.5v97H203.806C222.28 97 237 81.883 237 63.29v-.57c0-18.593-14.72-33.62-33.194-33.62" fill="#FEFEFE" mask="url(#b)"/></g><path d="M99.075 0C86.773 0 76.543 9.99 76.543 22.37v.245c0 .054.262.21.262.21H58.252c-12.302 0-22.532 9.99-22.532 22.37v.244c0 2.238.588 4.2 1.195 6.484H22.532C10.23 51.924 0 61.914 0 74.294v.245C0 86.92 10.23 97 22.532 97H118.5V0H99.075z" fill-opacity=".5" fill="#FFF"/></g></svg>