<svg width="181" height="80" viewBox="0 0 181 80" xmlns="http://www.w3.org/2000/svg"><title>Fill 1 + Fill 3</title><g fill="none" fill-rule="evenodd"><path d="M156.205 30.388h-32.232c-.64 0-1.27.007-1.897.054.425-1.82.657-3.7.657-5.648 0-13.7-11.1-24.794-24.795-24.794H90.5v80h65.705C169.9 80 181 68.894 181 55.194c0-13.7-11.1-24.806-24.795-24.806" fill="#FEFEFE"/><path d="M65.705 0C52.01 0 40.91 11.106 40.91 24.806c0 1.92.226 3.72.64 5.582H24.794C11.1 30.388 0 41.494 0 55.194 0 68.894 11.1 80 24.795 80H90.5V0H65.705z" fill-opacity=".5" fill="#FFF"/></g></svg>