<svg width="151" height="151" viewBox="0 0 151 151" xmlns="http://www.w3.org/2000/svg" xmlns:xlink="http://www.w3.org/1999/xlink"><title>Oval 1 + Page 1</title><defs><path id="a" d="M0 .27h98.896V81H0"/></defs><g fill="none" fill-rule="evenodd"><circle cx="73.5" cy="73.5" r="73.5" stroke-width="3" stroke="#EA5C67" transform="translate(2 2)"/><path d="M82.158 73.18c-11.31 0-22.62 0-33.928-.002-.518 0-1.05.04-1.55-.06-1.098-.216-1.918-.998-1.75-2.04.12-.752.904-1.494 1.565-2.024.37-.298 1.093-.206 1.656-.206 22.67-.01 45.342-.01 68.013.003.612 0 1.37-.046 1.8.277.595.447 1.325 1.248 1.292 1.858-.04.7-.74 1.498-1.362 1.98-.412.32-1.192.208-1.808.21-11.31.008-22.618.005-33.927.005M73.652 46.65H48.615c-.414 0-.83.01-1.244-.007-1.48-.062-2.44-.837-2.514-2.015-.075-1.223.913-2.138 2.457-2.252.413-.03.83-.014 1.244-.014 16.743 0 33.486 0 50.23.005.62 0 1.245.022 1.855.12 1.15.187 1.744.985 1.706 2.08-.04 1.165-.73 1.923-1.95 2.036-.566.052-1.14.044-1.708.044-8.346.003-16.692.002-25.038.002M72.597 112.898c-8.4 0-16.8.008-25.2-.005-1.954-.003-3.1-1.51-2.24-3.002.295-.513.955-.896 1.532-1.142.444-.188 1.02-.083 1.537-.083 16.282-.003 32.564-.003 48.845-.002 2.33 0 3.35.627 3.395 2.075.044 1.446-1.096 2.16-3.447 2.16H72.597M66.453 82.203c6.07 0 12.14 0 18.21.003.518 0 1.178-.15 1.522.106.637.474 1.333 1.122 1.56 1.84.314.992-.297 1.832-1.32 2.14-.584.174-1.23.19-1.846.19-12.09.01-24.177.01-36.265.003-.567 0-1.14-.044-1.7-.13-1.16-.183-1.76-1-1.73-2.07.032-1.15.736-1.924 1.96-2.04.514-.05 1.035-.04 1.553-.04 6.018-.002 12.037-.002 18.055-.002M100.707 99.625c-5.498 0-10.996.014-16.494-.01-1.517-.007-2.373-.823-2.363-2.1.01-1.254.907-2.057 2.376-2.125.052-.003.104 0 .156 0 10.84 0 21.68-.007 32.52.006 1.546.002 2.497.905 2.454 2.204-.04 1.238-.933 2.012-2.466 2.017-5.395.02-10.79.008-16.183.008M60.655 95.39c4.358 0 8.716-.003 13.074.002 1.33.002 2.222.627 2.33 1.992.113 1.4-.77 2.073-2.043 2.293-.404.07-.826.05-1.24.05-2.646.004-5.292.002-7.938.002H48.495c-.415-.002-.833.022-1.244-.02-1.463-.15-2.41-1.024-2.403-2.186.006-1.233 1.03-2.12 2.575-2.128 4.41-.02 8.82-.007 13.23-.006M106.912 82.213c3.522 0 7.044-.035 10.565.015 1.778.025 2.932 1.518 2.13 2.845-.4.666-1.4 1.226-2.198 1.34-1.526.213-3.1.077-4.653.077-5.18.002-10.358.003-15.537-.002a14.3 14.3 0 0 1-1.55-.064c-1.257-.14-2.036-.83-2.006-2.132.032-1.38.878-2.062 2.217-2.072 3.316-.022 6.63-.013 9.945-.016h1.087v.01zM57.392 59.902c-3.37.002-6.744.073-10.11-.054-.737-.028-1.646-.614-2.1-1.225-.313-.418-.215-1.507.133-1.964.397-.523 1.272-.942 1.944-.948 6.74-.068 13.482-.042 20.224-.04 1.34 0 2.184.59 2.26 2.007.074 1.342-.71 2.18-2.24 2.204-3.37.053-6.74.016-10.112.018" fill="#EB5C67"/><g transform="translate(32 37)"><mask id="b" fill="#fff"><use xlink:href="#a"/></mask><path d="M4.783 7.89c1.25 1.064 2.45 1.983 3.526 3.03 1.047 1.022 1.07 2.306.222 3.18-.916.948-2.158.883-3.27-.247-1.49-1.514-2.96-3.05-4.396-4.617C-.284 7.98-.286 7.068.84 5.828a191.17 191.17 0 0 1 4.36-4.65C6.307.038 7.513-.017 8.462.953c.877.896.814 2.008-.214 3.156-.998 1.115-2.02 2.207-3.465 3.78" fill="#EB5C67" mask="url(#b)"/></g><path d="M37.11 97.48c1.12 1.206 2.185 2.327 3.22 3.48.992 1.105 1.04 2.313.17 3.18-.925.92-2.178.832-3.272-.298-1.514-1.562-3.002-3.15-4.485-4.74-.914-.983-1.004-2.06-.09-3.063a151.097 151.097 0 0 1 4.807-5.08c.89-.895 1.968-.894 2.938-.1.897.734.92 2.057.04 3.064-1.046 1.2-2.174 2.33-3.328 3.556M106.22 110.793c-1.19-1.255-2.284-2.356-3.317-3.51-1.003-1.123-1.01-2.314-.027-3.16 1.047-.902 2.098-.75 3.03.206 1.557 1.592 3.116 3.185 4.618 4.83 1.04 1.136 1.007 2.152-.037 3.295a184.033 184.033 0 0 1-4.36 4.64c-1.096 1.12-2.372 1.188-3.27.27-.887-.903-.834-2.01.203-3.166 1-1.118 2.04-2.202 3.16-3.407M125.845 83.886c-1.15-1.207-2.2-2.28-3.216-3.386-1.074-1.168-1.102-2.424-.12-3.306.936-.84 2.09-.737 3.16.356a214.97 214.97 0 0 1 4.408 4.63c1.096 1.187 1.09 2.214-.01 3.416a186.265 186.265 0 0 1-4.377 4.654c-1.014 1.036-2.315 1.102-3.17.263-.893-.877-.86-2.052.146-3.183 1-1.123 2.038-2.21 3.18-3.444" fill="#EB5C67"/></g></svg>