<svg width="162" height="65" viewBox="0 0 162 65" xmlns="http://www.w3.org/2000/svg" xmlns:xlink="http://www.w3.org/1999/xlink"><title>Page 1</title><defs><path id="a" d="M0 0h162v65H0"/><path id="c" d="M0 0h162v65H0"/></defs><g fill="none" fill-rule="evenodd"><g><mask id="b" fill="#fff"><use xlink:href="#a"/></mask><path d="M143.577 28.108h-14.504v-.057c0-7.487-6.068-13.557-13.553-13.557H95.212c-.728 0-2.14.21-3.017.323V65h51.382C153.752 65 162 56.75 162 46.57v-.032c0-10.178-8.248-18.43-18.423-18.43" fill="#FFF" mask="url(#b)"/></g><g><mask id="d" fill="#fff"><use xlink:href="#c"/></mask><path d="M92.277 14.816C90.597 6.368 83.15 0 74.21 0H46.52C36.347 0 28.1 8.25 28.1 18.43v.032c0 3.537.998 6.84 2.724 9.646h-12.4C8.25 28.108 0 36.36 0 46.538v.032C0 56.748 8.25 65 18.423 65h74.651V14.666c-.268.043-.534.092-.797.15" opacity=".5" fill="#FFF" mask="url(#d)"/></g></g></svg>