<svg width="244" height="100" viewBox="0 0 244 100" xmlns="http://www.w3.org/2000/svg" xmlns:xlink="http://www.w3.org/1999/xlink"><title>Page 1</title><defs><path id="a" d="M0 0h244v100H0"/></defs><g fill="none" fill-rule="evenodd"><g><mask id="b" fill="#fff"><use xlink:href="#a"/></mask><path d="M209.825 30h-47.08c.625-2.353.7-4.377.7-6.685v-.252C163.445 10.3 153.443 0 140.778 0H122v100h87.825C228.845 100 244 84.415 244 65.248v-.59C244 45.493 228.846 30 209.825 30" fill="#FEFEFE" mask="url(#b)"/></g><path d="M102 0C89.337 0 78.805 10.3 78.805 23.063v.252c0 .056.27.214.27.214H59.97c-12.664 0-23.197 10.3-23.197 23.062v.252c0 2.308.606 4.332 1.23 6.685H23.198C10.532 53.53 0 63.83 0 76.59v.252C0 89.607 10.532 100 23.197 100H122V0h-20z" fill="#FFEEEB"/></g></svg>