<svg width="57" height="57" viewBox="0 0 57 57" xmlns="http://www.w3.org/2000/svg" xmlns:xlink="http://www.w3.org/1999/xlink"><title>Oval 5 + Page 1</title><defs><path id="a" d="M0 .062h37.03v22.585H0V.062z"/><path id="c" d="M0 .062h37.03v22.585H0V.062z"/></defs><g transform="translate(1 1)" fill="none" fill-rule="evenodd"><circle stroke="#FCECA9" stroke-width="1.383" cx="27.5" cy="27.5" r="27.5"/><g transform="translate(10.515 15.368)"><mask id="b" fill="#fff"><use xlink:href="#a"/></mask><path d="M5.324 3.988v4.978h.098c1.51 0 3.018.003 4.527-.002.333 0 .668-.014 1.002-.042.485-.04.95-.165 1.393-.365.6-.27.98-.715 1.126-1.347a3.294 3.294 0 0 0 .01-1.516c-.172-.718-.612-1.2-1.342-1.41-.736-.212-1.492-.288-2.255-.292-1.496-.01-2.993-.004-4.49-.004h-.07zm-.002 8.72v6.015h.088c.808 0 1.615.002 2.423 0 .985-.004 1.97-.004 2.957-.02a4.656 4.656 0 0 0 1.278-.204c.926-.282 1.535-.875 1.803-1.79a4.1 4.1 0 0 0 .115-1.767c-.074-.504-.27-.956-.64-1.325-.353-.353-.788-.568-1.27-.698-.603-.164-1.222-.21-1.844-.21-1.607-.004-3.214-.002-4.822-.002h-.086zM0 22.648V.06h11.457c.025.004.05.01.076.012.593.024 1.18.087 1.763.203.742.148 1.455.376 2.116.743 1.51.84 2.366 2.124 2.652 3.786a6.68 6.68 0 0 1 .076 1.54c-.027.448-.09.89-.22 1.323-.215.73-.582 1.376-1.15 1.904-.398.37-.856.656-1.34.906l-.088.046c.158.065.308.122.454.187.832.37 1.538.893 2.07 1.63.655.91.944 1.94 1.01 3.037.023.402.014.803-.026 1.203-.05.5-.15.988-.314 1.464a6.682 6.682 0 0 1-1.35 2.294 6.16 6.16 0 0 1-2.86 1.83c-.615.187-1.248.288-1.886.364-.603.072-1.21.113-1.817.113H0z" fill="#FCECA9" mask="url(#b)"/><path d="M32.56 12.252c-.038-.244-.067-.48-.115-.713-.104-.508-.294-.983-.623-1.392-.63-.784-1.472-1.186-2.47-1.295a4.8 4.8 0 0 0-1.5.07c-.724.148-1.327.492-1.795 1.057-.357.43-.604.918-.757 1.45-.076.268-.132.543-.198.822h7.458zm4.47 2.796H25.012c.01.143.016.28.03.414.046.426.128.844.275 1.248.38 1.045 1.122 1.734 2.177 2.106.543.192 1.108.254 1.684.248.527-.005 1.04-.08 1.53-.273.67-.264 1.17-.717 1.538-1.317.04-.065.082-.13.115-.197.022-.047.052-.06.105-.06h4.274c.018 0 .036.003.072.006-.04.185-.072.366-.122.542-.186.66-.53 1.24-.96 1.774-.533.668-1.143 1.258-1.874 1.72-.813.513-1.7.844-2.644 1.036-.825.167-1.66.228-2.5.207-1.475-.037-2.87-.38-4.165-1.085-.68-.37-1.314-.8-1.862-1.343-.668-.664-1.132-1.454-1.45-2.33a9.09 9.09 0 0 1-.45-1.852 13.56 13.56 0 0 1-.11-2.495c.044-1.026.195-2.036.53-3.014a7.176 7.176 0 0 1 1.265-2.293 7.38 7.38 0 0 1 2.616-2 8.063 8.063 0 0 1 2.148-.634c.716-.11 1.437-.14 2.16-.105.71.034 1.41.13 2.095.314.884.237 1.713.59 2.453 1.13a7.086 7.086 0 0 1 1.676 1.764 7.848 7.848 0 0 1 1.18 2.803c.107.502.164 1.01.19 1.522l.03.68c.002.022.008.045.01.068v1.418z" fill="#FCECA9"/><mask id="d" fill="#fff"><use xlink:href="#c"/></mask><path d="M24.163 1.004h9.275v2.253h-9.275V1.004z" fill="#FCECA9" mask="url(#d)"/></g></g></svg>