<svg width="263" height="599" viewBox="0 0 263 599" xmlns="http://www.w3.org/2000/svg" xmlns:xlink="http://www.w3.org/1999/xlink"><title>Page 1</title><defs><path id="a" d="M0 .477h236.848v606.215H0V.477z"/></defs><g fill="none" fill-rule="evenodd"><path d="M165.758 291.2l-1.826-.23 24.883-196.84 1.826.23L165.76 291.2z" fill="#C6C6C5"/><path d="M173.54 30.693l-5.404 20.044c-4.7 17.44 4.133 35.334 20.08 42.54a4.387 4.387 0 0 0-.325.84l-.796 2.958a4.306 4.306 0 0 0 3.037 5.278l.315.085 26.336-97.68c-18.96-4.38-38.133 6.997-43.24 25.935" fill="#76599B"/><path d="M196.038 99.486l.798-2.96c.05-.184.082-.37.107-.557 18.333 3.236 36.426-8.006 41.364-26.32l5.404-20.045c5.225-19.37-6.25-39.31-25.627-44.532-.433-.117-.868-.215-1.302-.316l-26.336 97.68.314.085c2.298.62 4.66-.74 5.28-3.036" fill="#957AB6"/><path d="M165.603 297.526l-26.78-201.023 1.826-.242 25.812 193.775 48.48-128.514 1.72.65-51.06 135.356z" fill="#C6C6C5"/><path d="M143.843 567.347c-.384 5.49-5.27 9.62-10.91 9.225-5.64-.395-9.903-5.164-9.52-10.653l1.346-19.242c.383-5.49 5.267-9.62 10.91-9.225 5.64.395 9.902 5.164 9.518 10.654l-1.345 19.24z" fill="#82242F"/><path d="M98.556 39.85l2.568 19.487c2.234 16.955 16.465 29.386 33.026 29.887-.02.28-.015.565.023.852l.38 2.876a4.078 4.078 0 0 0 4.574 3.51l.305-.04-12.51-94.97C108.753 4.52 96.13 21.437 98.555 39.85" fill="#9DB22E"/><path d="M143.248 91.807l-.38-2.876a4.093 4.093 0 0 0-.108-.526c17.204-3.836 28.93-20.243 26.585-38.048l-2.567-19.488c-2.48-18.834-19.765-32.092-38.603-29.612-.422.056-.837.127-1.253.197l12.51 94.97.305-.04a4.078 4.078 0 0 0 3.51-4.576" fill="#BDCC4E"/><path d="M127.094 294.35s6.087 3.47 7.23 10.725c1.996 12.66-5.338 18.186-5.338 18.186l-9.526-12.265 7.634-16.644zM51.258 301.793c-1.063 15.2-12.072 26.51-12.095 36.623-.025 11.2 9.938 11.922 9.402 19.586-.536 7.66-10.3 15.61-2.76 24.428l39.18 2.74 6.5-92.953-40.227 9.576z" fill="#32100D"/><path d="M128.712 318.894c-1.063 15.2 8.2 16.244 6.833 26.262-1.514 11.097-11.218 10.443-11.753 18.106-.536 7.662 7.783 16.876-.696 24.572l-38.144-2.667 6.5-92.95 37.26 26.677z" fill="#32100D"/><path d="M130.784 303.245c1.534-21.935-15.007-40.96-36.947-42.493-21.94-1.534-40.968 15.002-42.5 36.937-1.535 21.933 15.006 40.957 36.946 42.49 21.94 1.535 40.968-15 42.5-36.935" fill="#32100D"/><path d="M98.404 386.444l-16.1 36.804-10.482-38.663 2.037-29.138 26.58 1.86-2.036 29.137z" fill="#E9C8AD"/><path d="M92.797 275.618c-12.905-.903-33.828 5.005-36.23 39.376-1.39 19.845 5.694 29.743 8.263 33.537 2.363 3.49 14.934 15.118 21.778 15.596l6.19-88.508z" fill="#E9C8AD"/><path d="M49.573 322.74c-.186-5.532 2.774-10.222 6.606-10.477 3.833-.256 7.09 4.022 7.277 9.555.184 5.53-2.774 10.22-6.61 10.475-3.832.255-7.09-4.022-7.274-9.552" fill="#E9C8AD"/><path d="M92.693 275.61c12.905.903 32.8 9.665 30.397 44.036-1.388 19.845-9.778 28.66-12.85 32.06-2.826 3.127-16.894 12.892-23.736 12.413l6.19-88.51z" fill="#F2D7BC"/><path d="M129.086 327.686c.952-5.453-1.325-10.51-5.084-11.295-3.762-.786-7.582 2.997-8.536 8.45-.953 5.45 1.324 10.506 5.084 11.292 3.76.786 7.582-2.995 8.536-8.446" fill="#F2D7BC"/><path d="M87.454 352.02c5.032.353 9.326-2.45 9.593-6.26l-18.22-1.274c-.266 3.81 3.597 7.184 8.627 7.535" fill="#FEFEFE"/><path d="M91.612 265.597c-23.583-1.65-32.196 18.505-32.86 28.017-9.386 11.286-.805 22.57 5.533 26.767l.41-5.846c.536-7.685 8.344-14.29 19.24-12.34 9.764 1.75 16.35-3.374 22.244-12.46 7.346-12.205.004-23.118-14.568-24.137" fill="#32100D"/><path d="M105.443 285.778s3.988 22.137 18.56 30.613c4.09-19.916 5.34-14.96 1.806-25.843-3.534-10.886-19.31-19.892-19.31-19.892l-1.057 15.123z" fill="#32100D"/><path d="M79.868 459.607l5.927-84.767-12.487-4.61s-22.342 3.577-27.81 10.933c-4.797 5.29 13.02 1.16 9.012 35.162-1.062 9.01-4.175 41.217-4.175 41.217l29.533 2.065z" fill="#65121E"/><path d="M85.795 374.84l-12.8-7.003-7 3.902 8.596 15.452 11.205-12.353z" fill="#FEFEFE"/><path d="M7.832 441.08c-2.698 4.28-1.167 10.092 3.42 12.983 4.587 2.89 10.492 1.765 13.19-2.514l36.84-58.428c2.698-4.28 1.166-10.09-3.42-12.982-4.586-2.89-10.492-1.766-13.19 2.513L7.832 441.08z" fill="#65121E"/><path d="M84.024 326.046a.613.613 0 0 1-.552-.765c.004-.02.52-2.136-.63-3.72-.786-1.085-2.19-1.706-4.174-1.845-2.022-.14-3.598.293-4.685 1.292-1.56 1.433-1.61 3.555-1.61 3.576a.613.613 0 0 1-.622.604.606.606 0 0 1-.603-.622c0-.108.06-2.675 2.005-4.46 1.346-1.237 3.23-1.78 5.602-1.614 2.368.167 4.08.96 5.09 2.36 1.483 2.06.844 4.63.816 4.738a.613.613 0 0 1-.636.458M55.068 283.408s-6.51 2.587-8.653 9.614c-3.738 12.26 2.756 18.75 2.756 18.75l11.14-10.82-5.242-17.544zM71.248 314.213a1.226 1.226 0 0 1-.638-2.215c7.473-5.444 14.048-1.58 16.48 1.225a1.226 1.226 0 0 1-1.853 1.61c-.235-.267-5.693-6.307-13.18-.852a1.22 1.22 0 0 1-.81.233" fill="#32100D"/><path d="M65.076 281.033s-6.51 2.587-8.653 9.614c-3.74 12.26 2.755 18.75 2.755 18.75l11.14-10.82-5.242-17.544zM72.384 322.692a.604.604 0 0 1-.265-.082l-3.188-1.856a.613.613 0 1 1 .617-1.06l3.187 1.857a.612.612 0 0 1-.353 1.142M73.893 320.865a.613.613 0 0 1-.438-.23l-2.196-2.776a.612.612 0 1 1 .96-.763l2.197 2.775a.613.613 0 0 1-.524.993M97.548 327.19a.613.613 0 0 1-.566-.543c-.014-.11-.29-2.745 1.466-4.576 1.194-1.246 3-1.794 5.37-1.63 2.37.167 4.162.967 5.322 2.378 1.678 2.04 1.38 4.59 1.366 4.697a.614.614 0 0 1-1.218-.15c.003-.023.24-2.153-1.105-3.778-.937-1.134-2.435-1.78-4.45-1.922-1.99-.14-3.47.283-4.4 1.255-1.36 1.42-1.135 3.567-1.132 3.59a.613.613 0 0 1-.652.68M111.846 317.25a1.22 1.22 0 0 1-.768-.343c-6.66-6.448-12.91-1.216-13.172-.99a1.23 1.23 0 0 1-1.73-.127 1.225 1.225 0 0 1 .12-1.727c2.8-2.438 9.848-5.35 16.49 1.08a1.226 1.226 0 0 1-.94 2.106" fill="#32100D"/><path d="M109.54 325.488a.613.613 0 0 1-.19-1.18l3.415-1.395a.614.614 0 1 1 .464 1.136l-3.415 1.394a.603.603 0 0 1-.275.044M108.3 323.468a.612.612 0 0 1-.38-1.056l2.562-2.442a.613.613 0 0 1 .846.888l-2.562 2.442a.61.61 0 0 1-.466.168" fill="#32100D"/><path d="M90.143 334.666c-.303-.225-.858-.36-1.445-.418-.725-.068-1.498-.01-1.92.183-1.12.515-2.934 3.957-2.934 3.957l4.542.318 4.222.295s-1.464-3.592-2.465-4.334" fill="#C8A184"/><path d="M167.24 304.55c-4.883-2.354-10.813-.18-13.245 4.862l-32.226 65.734h-.002c-1.914 3.968-8.74 1.824-8.74 1.824-6.72-3.897-13.483-6.72-13.483-6.72l-13.752 4.635-5.925 84.722 34.89 2.44s.794-43.046 2.157-59.132c2.886-.666 12.626-2.314 17.335-8.455 12.96-16.9 37.43-76.52 37.43-76.52 2.432-5.04.444-11.035-4.44-13.39" fill="#82242F"/><path d="M66.13 107.47l2.74 19.36c2.386 16.842 16.66 29.068 33.138 29.407-.018.278-.01.562.03.848l.405 2.857a4.056 4.056 0 0 0 4.586 3.446l.3-.042L93.97 69.01c-18.04 3.223-30.43 20.17-27.84 38.46" fill="#1476BC"/><path d="M111.08 158.72l-.403-2.858a3.957 3.957 0 0 0-.113-.523c17.075-3.983 28.58-20.415 26.074-38.1l-2.74-19.36c-2.65-18.707-19.97-31.728-38.683-29.08-.418.06-.83.135-1.244.21l13.36 94.336.304-.043a4.055 4.055 0 0 0 3.447-4.584" fill="#3396D2"/><path d="M85.795 374.84l13.78-5.145 5.28 2.973-9.684 15.963-9.375-13.79z" fill="#FEFEFE"/><path d="M195.124 96.115l-3.328 19.224c-2.897 16.726 6.914 32.71 22.46 38.08a4.07 4.07 0 0 0-.232.813l-.49 2.837a4.05 4.05 0 0 0 3.297 4.68l.302.05 16.222-93.687c-18.122-2.463-35.085 9.838-38.23 28.002" fill="#D6488C"/><path d="M222.11 158.572l.49-2.837c.032-.18.046-.356.053-.532 17.437 1.448 33.4-10.633 36.442-28.2l3.328-19.222c3.217-18.58-9.24-36.25-27.826-39.467a31.11 31.11 0 0 0-1.245-.183l-16.223 93.687.3.052a4.05 4.05 0 0 0 4.68-3.298" fill="#E878AC"/><g transform="rotate(4 145.534 472.898)"><mask id="b" fill="#fff"><use xlink:href="#a"/></mask><path d="M.922 461.01c-2.297 4.938-.155 10.805 4.785 13.102 4.94 2.298 10.81.156 13.106-4.783l5.07-10.898c2.298-4.94.156-10.805-4.785-13.103-4.94-2.3-10.808-.156-13.106 4.782L.922 461.01z" fill="#E9C8AD" mask="url(#b)"/></g><path d="M167.063 298.405l-59.23-134.47 1.683-.742L165 289.156l-1.834-76.72 1.84-.043 2.057 86.012z" fill="#C6C6C5"/><path d="M153.52 310.127c-2.342 4.918-.254 10.804 4.666 13.147 4.92 2.342 10.806.254 13.148-4.664l5.17-10.85c2.342-4.918.253-10.804-4.666-13.147-4.92-2.342-10.806-.254-13.15 4.665l-5.167 10.85z" fill="#F2D7BC"/><path d="M135.71 149.576l-1.36 19.444c-1.182 16.918 10.19 31.81 26.182 35.572a4.114 4.114 0 0 0-.147.832l-.2 2.87a4.044 4.044 0 0 0 3.752 4.315l.304.02 6.627-94.756c-18.26-.614-33.872 13.33-35.157 31.702" fill="#EFAE30"/><path d="M168.862 208.9l.2-2.87a4.1 4.1 0 0 0-.002-.533c17.477-.326 32.117-13.95 33.36-31.717l1.36-19.444c1.313-18.79-12.86-35.092-31.656-36.406-.42-.03-.84-.042-1.257-.055l-6.626 94.755.304.02a4.044 4.044 0 0 0 4.318-3.75" fill="#FBCA70"/><path d="M114.758 462.047l-.098.212.092.005.006-.218zM114.44 462.245l.015-.22-64.275-4.494-.93 13.277L25.18 582.12c-1.567 7.056 2.393 13.937 8.845 15.37 6.452 1.432 12.952-3.128 14.518-10.184l20.533-95.116c.58-1.444 2.55-4.658 8.825-5.724.474-.08.933-.128 1.38-.15l.433-26.222 34.726 2.15z" fill="#1D1C1B"/><path d="M114.66 462.26l-.22-.015-.04.573.26-.56z" fill="#1D1C1B"/><path d="M90.28 493.3l.19 69.88c.137 1.93.924 3.68 2.156 5.133 2.856 4.54 8.417 6.505 13.108 4.38l33.59-15.223c5.158-2.336 7.303-8.72 4.793-14.257-2.51-5.537-8.727-8.132-13.884-5.795l-15.935 7.222-.17-61.267.624-21.108-.092-.006-.26.56.04-.575-34.727-2.15-.434 26.22c6.194-.314 9.71 4.673 11 6.986" fill="#252526"/><path d="M20.862 598.248c-5.287.207-9.76-4.373-9.99-10.23-.23-5.858 3.87-10.775 9.16-10.982l18.533-.725c5.287-.207 9.76 4.374 9.99 10.232.23 5.857-3.87 10.774-9.16 10.98l-18.533.726z" fill="#65121E"/></g></svg>