<svg width="158" height="161" viewBox="0 0 158 161" xmlns="http://www.w3.org/2000/svg"><title>Page 1</title><g fill="none" fill-rule="evenodd"><path d="M29.44 159.254a3.964 3.964 0 0 1-1.308-3.19 3.99 3.99 0 0 1 4.21-3.744c.043.002 4.96.26 10.814-.652 5.072-.79 11.936-2.64 15.83-6.964 4.05-4.5 5.027-9.89 6.157-16.133 1.108-6.115 2.253-12.44 6.472-18.426 5.48-7.774 13.063-10.71 20.398-13.55 4.41-1.706 8.967-3.472 13.235-6.326 10.413-6.967 15.13-25.037 15.176-25.218a3.988 3.988 0 0 1 4.835-2.883 3.968 3.968 0 0 1 2.874 4.826c-.218.862-5.5 21.206-18.474 29.886-5 3.344-9.976 5.27-14.79 7.134-6.797 2.632-12.668 4.905-16.756 10.705-3.204 4.544-4.146 9.746-5.143 15.253-1.233 6.816-2.51 13.865-8.078 20.05-10.28 11.416-32.103 10.294-33.027 10.24a3.95 3.95 0 0 1-2.426-1.01M1.494 129.44a3.95 3.95 0 0 1-1.302-2.68c-.063-.922-1.41-22.737 9.9-33.136 6.124-5.634 13.158-6.983 19.96-8.287 5.495-1.054 10.686-2.05 15.196-5.3 5.758-4.15 7.97-10.044 10.53-16.87 1.813-4.834 3.69-9.83 6.98-14.866 8.545-13.064 28.83-18.556 29.69-18.783a3.967 3.967 0 0 1 4.856 2.828 3.988 3.988 0 0 1-2.836 4.864c-.272.072-18.214 4.977-25.054 15.437-2.81 4.296-4.527 8.875-6.188 13.3-2.764 7.366-5.62 14.982-13.337 20.543-5.94 4.28-12.252 5.49-18.356 6.662-6.23 1.195-11.61 2.227-16.066 6.324-4.283 3.94-6.06 10.822-6.8 15.904-.852 5.865-.542 10.78-.54 10.828a3.99 3.99 0 0 1-3.702 4.242 3.958 3.958 0 0 1-2.932-1.01M12.365 142.245a3.962 3.962 0 0 1-1.312-3.085 3.99 3.99 0 0 1 4.11-3.852c.043 0 4.965.13 10.794-.936 5.05-.924 11.863-2.954 15.64-7.38 3.932-4.603 4.766-10.018 5.732-16.287.945-6.144 1.923-12.497 5.983-18.59 5.274-7.916 12.778-11.05 20.036-14.083 4.36-1.822 8.872-3.707 13.062-6.673 10.27-7.27 14.466-25.423 14.507-25.605a3.987 3.987 0 0 1 4.756-3.015 3.97 3.97 0 0 1 3.003 4.75c-.196.868-4.94 21.343-17.682 30.362-4.91 3.475-9.835 5.532-14.597 7.522-6.725 2.81-12.535 5.236-16.47 11.143-3.082 4.626-3.886 9.85-4.738 15.383-1.054 6.845-2.145 13.924-7.55 20.253-9.975 11.684-31.822 11.137-32.747 11.108a3.953 3.953 0 0 1-2.53-1.015" fill="#FAD2C9"/><path d="M89.026 46.26c-3.81 4.23-10.476 4.44-14.89.466-4.412-3.974-4.902-10.625-1.093-14.856 3.81-4.23 10.476-4.44 14.89-.465 4.412 3.974 4.902 10.625 1.093 14.856M110.66 65.74c-3.81 4.23-10.476 4.44-14.89.465C91.36 62.23 90.87 55.58 94.678 51.35c3.81-4.23 10.476-4.44 14.89-.466 4.412 3.974 4.902 10.625 1.093 14.856M130.254 83.383c-3.81 4.23-10.475 4.44-14.888.465-4.413-3.973-4.903-10.625-1.094-14.855 3.81-4.23 10.475-4.44 14.888-.466 4.414 3.974 4.904 10.626 1.094 14.856" fill="#E49589"/><path d="M149.606 69.81c13.073-14.52 8.893-39.596-9.335-56.01L99.2 59.416l22.374 20.145 5.073 4.568c3.07 2.764 7.805 2.51 10.575-.566l11.914-13.23c.038-.043.07-.09.106-.132.12-.13.245-.26.364-.39" fill="#FAD2C9"/><path d="M140.27 13.8C122.042-2.61 96.667-4.147 83.594 10.37c-.12.134-.235.27-.352.404-.038.04-.08.077-.118.12L71.21 24.123c-2.77 3.077-2.528 7.813.543 10.577l5.073 4.57L99.2 59.414 140.27 13.8z" fill="#F3C0B8"/><path d="M147.904 50.462c-1.76 5.412-6.52 8.722-10.63 7.393-4.114-1.33-6.022-6.794-4.263-12.206 1.76-5.414 6.52-8.724 10.633-7.395 4.112 1.33 6.02 6.795 4.26 12.207M129.103 37.895c-3.835 4.208-9.532 5.26-12.725 2.35-3.193-2.91-2.673-8.682 1.16-12.89 3.837-4.207 9.534-5.26 12.727-2.35 3.193 2.912 2.673 8.682-1.162 12.89M110.485 22.806c-5.376 1.865-10.876.064-12.286-4.022-1.41-4.087 1.805-8.912 7.18-10.777 5.377-1.865 10.877-.064 12.286 4.022 1.41 4.087-1.806 8.91-7.18 10.776" fill="#E49589"/></g></svg>