<svg width="89" height="101" viewBox="0 0 89 101" xmlns="http://www.w3.org/2000/svg"><title>Page 1</title><g fill="none" fill-rule="evenodd"><path d="M7.905 100a2.49 2.49 0 0 1-.822-2.004 2.505 2.505 0 0 1 2.643-2.35c.028.002 3.115.164 6.792-.41 3.185-.495 7.495-1.657 9.94-4.372 2.543-2.825 3.156-6.21 3.866-10.13.695-3.84 1.415-7.813 4.064-11.57 3.44-4.883 8.203-6.727 12.808-8.51 2.77-1.07 5.63-2.18 8.31-3.972 6.54-4.375 9.5-15.72 9.53-15.835a2.504 2.504 0 0 1 3.037-1.81 2.492 2.492 0 0 1 1.805 3.03c-.137.54-3.454 13.316-11.6 18.766-3.14 2.1-6.265 3.31-9.287 4.48-4.268 1.653-7.954 3.08-10.52 6.723-2.013 2.853-2.605 6.12-3.23 9.578-.776 4.28-1.577 8.706-5.074 12.59-6.455 7.17-20.158 6.464-20.738 6.43A2.48 2.48 0 0 1 7.905 100M-9.643 81.28a2.48 2.48 0 0 1-.818-1.683c-.04-.58-.886-14.278 6.215-20.808 3.847-3.538 8.263-4.385 12.534-5.204 3.45-.662 6.71-1.287 9.54-3.328 3.617-2.605 5.006-6.307 6.614-10.594 1.138-3.035 2.316-6.172 4.383-9.334 5.365-8.204 18.102-11.652 18.642-11.795a2.49 2.49 0 0 1 3.05 1.776 2.504 2.504 0 0 1-1.782 3.055c-.17.046-11.437 3.126-15.732 9.694-1.765 2.697-2.843 5.57-3.886 8.35-1.735 4.626-3.53 9.408-8.374 12.9-3.73 2.688-7.693 3.448-11.526 4.183-3.912.75-7.29 1.398-10.088 3.97-2.69 2.474-3.806 6.797-4.27 9.987-.535 3.683-.34 6.77-.338 6.8a2.506 2.506 0 0 1-2.326 2.663 2.486 2.486 0 0 1-1.84-.634M-2.817 89.32a2.488 2.488 0 0 1-.824-1.937 2.505 2.505 0 0 1 2.58-2.42c.027 0 3.118.083 6.778-.587 3.17-.58 7.45-1.855 9.82-4.633 2.47-2.89 2.994-6.29 3.6-10.228.594-3.858 1.208-7.847 3.758-11.674 3.31-4.97 8.023-6.937 12.58-8.84 2.74-1.146 5.573-2.33 8.204-4.19 6.448-4.565 9.083-15.964 9.11-16.08a2.504 2.504 0 0 1 2.986-1.892 2.492 2.492 0 0 1 1.886 2.983c-.123.546-3.102 13.403-11.103 19.066-3.084 2.182-6.176 3.474-9.167 4.723-4.224 1.763-7.87 3.287-10.342 6.996-1.935 2.905-2.44 6.186-2.975 9.66-.662 4.298-1.346 8.743-4.74 12.717C13.07 90.32-.647 89.976-1.228 89.958a2.482 2.482 0 0 1-1.59-.638" fill="#FAD2C9"/><path d="M45.32 29.05c-2.39 2.655-6.577 2.786-9.348.29-2.772-2.494-3.08-6.67-.687-9.327 2.392-2.657 6.578-2.788 9.35-.293 2.77 2.496 3.077 6.672.686 9.33M58.905 41.28c-2.392 2.657-6.578 2.788-9.35.292-2.77-2.495-3.077-6.67-.686-9.328 2.39-2.656 6.577-2.787 9.348-.292 2.772 2.495 3.08 6.672.687 9.328M71.21 52.36c-2.393 2.655-6.578 2.786-9.35.29-2.77-2.494-3.078-6.67-.686-9.327 2.39-2.657 6.577-2.787 9.348-.292 2.772 2.496 3.08 6.672.687 9.33" fill="#E49589"/><path d="M83.36 43.835c8.21-9.117 5.585-24.862-5.86-35.168L51.71 37.31l14.048 12.648 3.186 2.87a4.702 4.702 0 0 0 6.64-.357l7.48-8.307c.025-.026.045-.055.068-.082.076-.08.154-.162.23-.245" fill="#FAD2C9"/><path d="M77.5 8.666C66.05-1.64 50.12-2.604 41.91 6.513c-.075.083-.148.168-.22.253-.025.025-.052.048-.076.075l-7.48 8.31a4.702 4.702 0 0 0 .34 6.64l3.186 2.868 14.05 12.65L77.5 8.67v-.002z" fill="#F3C0B8"/><path d="M82.292 31.687c-1.104 3.398-4.093 5.477-6.676 4.642-2.582-.836-3.78-4.267-2.676-7.666 1.105-3.398 4.094-5.477 6.676-4.642s3.78 4.266 2.676 7.665M70.486 23.796c-2.408 2.642-5.985 3.302-7.99 1.475s-1.68-5.45.73-8.092c2.407-2.643 5.985-3.303 7.99-1.476 2.005 1.828 1.68 5.452-.73 8.094M58.795 14.32c-3.376 1.172-6.83.04-7.714-2.525-.884-2.566 1.135-5.596 4.51-6.767 3.376-1.17 6.83-.04 7.715 2.526.885 2.566-1.134 5.596-4.51 6.767" fill="#E49589"/></g></svg>