<svg width="174" height="69" viewBox="0 0 174 69" xmlns="http://www.w3.org/2000/svg" xmlns:xlink="http://www.w3.org/1999/xlink"><title>Page 1</title><defs><path id="a" d="M0 0h174v69H0"/><path id="c" d="M0 0h174v69H0"/></defs><g fill="none" fill-rule="evenodd"><g><mask id="b" fill="#fff"><use xlink:href="#a"/></mask><path d="M154.212 29.838h-15.578v-.06c0-7.95-6.517-14.393-14.557-14.393h-21.813c-.78 0-2.296.224-3.24.342V69h55.189C165.142 69 174 60.24 174 49.436v-.034c0-10.805-8.86-19.564-19.788-19.564" fill="#FFF" mask="url(#b)"/></g><g><mask id="d" fill="#fff"><use xlink:href="#c"/></mask><path d="M99.113 15.727C97.31 6.76 89.308 0 79.708 0h-29.74c-10.93 0-19.79 8.76-19.79 19.564v.034c0 3.754 1.073 7.26 2.928 10.24H19.788C8.86 29.838 0 38.598 0 49.402v.034C0 60.24 8.86 69 19.788 69h80.178V15.568c-.287.046-.572.098-.854.16" fill-opacity=".5" fill="#FFF" mask="url(#d)"/></g></g></svg>