<svg width="179" height="90" viewBox="0 0 179 90" xmlns="http://www.w3.org/2000/svg" xmlns:xlink="http://www.w3.org/1999/xlink"><title>Page 1</title><defs><path id="a" d="M0 0h220v90H0"/></defs><g fill="none" fill-rule="evenodd"><g transform="translate(-41)"><mask id="b" fill="#fff"><use xlink:href="#a"/></mask><path d="M189.187 27h-42.45c.564-2.118.63-3.94.63-6.017v-.226C147.368 9.27 138.35 0 126.932 0H110v90H189.186C206.337 90 220 75.974 220 58.723v-.53C220 40.943 206.336 27 189.187 27" fill="#FEFEFE" mask="url(#b)"/></g><path d="M50.968 0c-11.42 0-20.915 9.27-20.915 20.757v.226c0 .05.242.193.242.193H13.073c-11.42 0-20.915 9.27-20.915 20.757v.227c0 2.077.546 3.9 1.11 6.016h-13.353c-11.42 0-20.915 9.27-20.915 20.757v.227C-41 80.646-31.504 90-20.085 90H69V0H50.968z" fill-opacity=".5" fill="#FFF"/></g></svg>