<svg width="218" height="105" viewBox="0 0 218 105" xmlns="http://www.w3.org/2000/svg"><title>Fill 1 + Fill 3</title><g fill="none" fill-rule="evenodd"><path d="M185.397 39.884h-42.383c-.84 0-1.67.01-2.494.07a32.44 32.44 0 0 0 .864-7.412C141.384 14.562 126.787 0 108.78 0H99v105h86.396C203.405 105 218 90.424 218 72.442c0-17.98-14.596-32.558-32.603-32.558" fill="#FEFEFE"/><path d="M66.397 0C48.39 0 33.795 14.577 33.795 32.558c0 2.52.295 4.884.838 7.326h-22.03C-5.403 39.884-20 54.46-20 72.442-20 90.422-5.403 105 12.603 105H99V0H66.397z" fill="#FFEEEB"/></g></svg>