<svg width="112" height="71" viewBox="0 0 112 71" xmlns="http://www.w3.org/2000/svg"><title>Fill 1 + Fill 3</title><g fill="none" fill-rule="evenodd"><path d="M90.22 26.97H61.903c-.56 0-1.115.006-1.666.047a22.19 22.19 0 0 0 .577-5.013C60.815 9.846 51.065 0 39.035 0H32.5v71h57.718C102.25 71 112 61.144 112 48.984c0-12.158-9.75-22.015-21.78-22.015" fill="#FEFEFE"/><path d="M10.72 0C-1.31 0-11.063 9.857-11.063 22.016c0 1.704.198 3.302.56 4.953h-14.717C-37.247 26.97-47 36.825-47 48.983-47 61.144-37.248 71-25.22 71H32.5V0H10.72z" fill-opacity=".5" fill="#FFF"/></g></svg>