<svg width="275" height="113" viewBox="0 0 275 113" xmlns="http://www.w3.org/2000/svg" xmlns:xlink="http://www.w3.org/1999/xlink"><title>Page 1</title><defs><path id="a" d="M0 0h275v113H0"/></defs><g fill="none" fill-rule="evenodd"><g><mask id="b" fill="#fff"><use xlink:href="#a"/></mask><path d="M236.484 33.9h-53.062c.704-2.66.79-4.946.79-7.554v-.285C184.21 11.64 172.937 0 158.663 0H137.5v113h98.983C257.92 113 275 95.39 275 73.73v-.665c0-21.66-17.08-39.165-38.516-39.165" fill="#FEFEFE" mask="url(#b)"/></g><path d="M114.96 0c-14.274 0-26.144 11.64-26.144 26.06 0 .35.303.528.303.528H67.59c-14.274 0-26.144 11.64-26.144 26.06 0 2.894.682 5.18 1.386 7.84h-16.69C11.87 60.488 0 72.128 0 86.548 0 101.257 11.87 113 26.144 113H137.5V0h-22.54z" fill-opacity=".5" fill="#FEFEFE"/></g></svg>