<svg width="80" height="82" viewBox="0 0 80 82" xmlns="http://www.w3.org/2000/svg"><title>Page 1</title><g fill="none" fill-rule="evenodd"><path d="M15.25 80.524a2.002 2.002 0 0 1-.66-1.61 2.014 2.014 0 0 1 2.125-1.89c.023 0 2.505.13 5.46-.33 2.562-.4 6.028-1.333 7.994-3.516 2.044-2.272 2.537-4.994 3.108-8.146.56-3.088 1.137-6.282 3.267-9.304 2.767-3.925 6.596-5.408 10.3-6.84 2.226-.863 4.527-1.754 6.682-3.195 5.258-3.518 7.64-12.642 7.662-12.733a2.014 2.014 0 0 1 2.44-1.456 2.004 2.004 0 0 1 1.453 2.437c-.11.436-2.777 10.708-9.328 15.09-2.525 1.69-5.037 2.662-7.468 3.603-3.432 1.33-6.396 2.476-8.46 5.405-1.618 2.295-2.094 4.92-2.597 7.702-.623 3.442-1.268 7-4.08 10.123-5.19 5.765-16.208 5.198-16.675 5.17a1.995 1.995 0 0 1-1.224-.51M1.14 65.47a1.995 1.995 0 0 1-.657-1.352c-.032-.466-.712-11.48 4.998-16.73 3.094-2.845 6.645-3.527 10.08-4.185 2.774-.532 5.395-1.035 7.672-2.676 2.908-2.095 4.024-5.072 5.317-8.518.915-2.442 1.862-4.965 3.524-7.507 4.314-6.597 14.556-9.37 14.99-9.484a2.003 2.003 0 0 1 2.452 1.427 2.013 2.013 0 0 1-1.432 2.455c-.137.037-9.196 2.514-12.65 7.795-1.42 2.17-2.286 4.48-3.124 6.716-1.396 3.72-2.838 7.564-6.734 10.372-3 2.16-6.186 2.773-9.268 3.364-3.145.602-5.862 1.123-8.112 3.192-2.162 1.99-3.06 5.464-3.433 8.03-.43 2.96-.274 5.442-.272 5.467a2.015 2.015 0 0 1-1.87 2.14 2 2 0 0 1-1.48-.51M6.63 71.936a2 2 0 0 1-.663-1.558 2.014 2.014 0 0 1 2.075-1.944c.022 0 2.507.066 5.45-.473 2.55-.465 5.99-1.49 7.897-3.725 1.984-2.324 2.405-5.058 2.893-8.224.478-3.1.972-6.31 3.022-9.385 2.662-3.997 6.45-5.58 10.116-7.11 2.203-.92 4.48-1.872 6.597-3.37 5.185-3.67 7.304-12.836 7.324-12.928a2.013 2.013 0 0 1 2.403-1.522 2.004 2.004 0 0 1 1.517 2.4c-.1.437-2.494 10.775-8.928 15.328-2.48 1.755-4.966 2.794-7.37 3.798-3.396 1.42-6.33 2.645-8.316 5.628-1.557 2.336-1.963 4.974-2.393 7.767-.532 3.456-1.083 7.03-3.812 10.226-5.035 5.9-16.066 5.624-16.533 5.61a1.996 1.996 0 0 1-1.278-.514" fill="#FAD2C9"/><path d="M45.336 23.473c-1.923 2.136-5.29 2.24-7.517.234-2.23-2.006-2.477-5.364-.553-7.5 1.923-2.136 5.29-2.24 7.517-.235 2.228 2.006 2.476 5.365.552 7.5M56.26 33.308c-1.924 2.136-5.29 2.24-7.518.235-2.228-2.006-2.475-5.365-.552-7.5 1.923-2.137 5.29-2.242 7.517-.236 2.23 2.007 2.476 5.365.553 7.5M66.153 42.216c-1.923 2.136-5.29 2.242-7.517.235-2.23-2.005-2.476-5.364-.553-7.5 1.924-2.136 5.29-2.24 7.518-.234 2.23 2.006 2.476 5.364.553 7.5" fill="#E49589"/><path d="M75.924 35.362c6.6-7.33 4.49-19.99-4.713-28.278l-20.737 23.03L61.77 40.287l2.562 2.306a3.78 3.78 0 0 0 5.34-.285l6.015-6.68c.02-.022.035-.045.053-.067.06-.066.124-.13.184-.198" fill="#FAD2C9"/><path d="M71.21 7.083c-9.204-8.287-22.016-9.062-28.616-1.73-.06.066-.12.134-.178.202l-.06.06-6.015 6.68a3.78 3.78 0 0 0 .275 5.34l2.56 2.308 11.298 10.172L71.21 7.085v-.002z" fill="#F3C0B8"/><path d="M75.065 25.594c-.888 2.733-3.292 4.404-5.368 3.733-2.077-.67-3.04-3.43-2.152-6.163.888-2.733 3.29-4.404 5.368-3.733 2.076.672 3.04 3.43 2.152 6.164M65.572 19.25c-1.936 2.123-4.813 2.654-6.425 1.185-1.612-1.47-1.35-4.383.586-6.507 1.937-2.125 4.813-2.656 6.425-1.187 1.613 1.47 1.35 4.384-.586 6.51M56.17 11.63c-2.713.942-5.49.033-6.202-2.03-.71-2.064.912-4.5 3.626-5.442 2.715-.942 5.492-.032 6.203 2.03.712 2.065-.912 4.5-3.626 5.442" fill="#E49589"/></g></svg>