<svg width="131" height="69" viewBox="0 0 131 69" xmlns="http://www.w3.org/2000/svg" xmlns:xlink="http://www.w3.org/1999/xlink"><title>Page 1</title><defs><path id="a" d="M0 0h131v69H0"/></defs><g fill="none" fill-rule="evenodd"><g><mask id="b" fill="#fff"><use xlink:href="#a"/></mask><path d="M108.53 0H66.81c-.44 0-.876.015-1.31.04v68.94c12.156-.44 21.653-10.59 21.653-23.004V46h21.377C121.076 46 131 35.668 131 22.976v-.038C131 10.245 121.076 0 108.53 0" fill="#FEFEFE" mask="url(#b)"/></g><path d="M43.847 22.937V23H22.962C10.416 23 0 33.245 0 45.937v.04C0 58.666 10.416 69 22.962 69h41.72c.275 0 .546-.01.818-.02V.04C53.548.724 43.847 10.69 43.847 22.937" fill="#FFEEEB"/></g></svg>