<svg width="224" height="89" viewBox="0 0 224 89" xmlns="http://www.w3.org/2000/svg" xmlns:xlink="http://www.w3.org/1999/xlink"><title>Page 1</title><defs><path id="a" d="M0 0h224v89H0"/><path id="c" d="M0 0h224v89H0"/></defs><g fill="none" fill-rule="evenodd"><g><mask id="b" fill="#fff"><use xlink:href="#a"/></mask><path d="M198.526 38.486h-20.054v-.077c0-10.254-8.39-18.565-18.74-18.565h-28.08c-1.008 0-2.958.288-4.172.44V89H198.526C212.596 89 224 77.702 224 63.765v-.043c0-13.937-11.405-25.236-25.474-25.236" fill="#FFF" mask="url(#b)"/></g><g><mask id="d" fill="#fff"><use xlink:href="#c"/></mask><path d="M127.593 20.286C125.273 8.72 114.97 0 102.613 0H64.325C50.255 0 38.85 11.298 38.85 25.235v.043a24.94 24.94 0 0 0 3.77 13.208H25.473C11.404 38.486 0 49.786 0 63.722v.043C0 77.702 11.405 89 25.474 89h103.218V20.08c-.368.06-.735.127-1.1.206" fill="#FFEEEB" mask="url(#d)"/></g></g></svg>