<svg width="125" height="127" viewBox="0 0 125 127" xmlns="http://www.w3.org/2000/svg"><title>Page 1</title><g fill="none" fill-rule="evenodd"><path d="M24.02 126.048a3.124 3.124 0 0 1-1.03-2.514 3.144 3.144 0 0 1 3.316-2.95c.035.002 3.91.206 8.523-.513 3.996-.622 9.405-2.08 12.473-5.487 3.193-3.546 3.962-7.794 4.853-12.713.873-4.82 1.775-9.806 5.1-14.522 4.317-6.126 10.294-8.44 16.074-10.678 3.475-1.345 7.067-2.736 10.43-4.985 8.206-5.49 11.922-19.73 11.96-19.873a3.143 3.143 0 0 1 3.81-2.272 3.127 3.127 0 0 1 2.265 3.804c-.172.68-4.334 16.71-14.558 23.55-3.94 2.637-7.862 4.155-11.655 5.623-5.357 2.074-9.983 3.865-13.205 8.437-2.525 3.58-3.267 7.68-4.053 12.02-.972 5.37-1.978 10.926-6.366 15.8-8.1 8.997-25.3 8.112-26.027 8.07a3.113 3.113 0 0 1-1.91-.796M1.998 102.554a3.113 3.113 0 0 1-1.026-2.11c-.05-.73-1.11-17.92 7.8-26.114 4.828-4.44 10.37-5.503 15.73-6.53 4.33-.83 8.422-1.616 11.976-4.178 4.537-3.27 6.28-7.915 8.298-13.294 1.43-3.81 2.907-7.747 5.5-11.715C57.01 28.318 72.997 23.99 73.673 23.81a3.126 3.126 0 0 1 3.828 2.23 3.142 3.142 0 0 1-2.235 3.832c-.214.058-14.353 3.923-19.743 12.166-2.215 3.386-3.568 6.994-4.877 10.482-2.178 5.804-4.43 11.806-10.51 16.187-4.68 3.374-9.655 4.328-14.465 5.25-4.91.942-9.148 1.755-12.66 4.985-3.375 3.103-4.777 8.528-5.358 12.532-.672 4.622-.428 8.495-.425 8.533a3.145 3.145 0 0 1-2.918 3.343 3.12 3.12 0 0 1-2.312-.796M10.564 112.645a3.122 3.122 0 0 1-1.034-2.432 3.143 3.143 0 0 1 3.24-3.035c.034 0 3.912.103 8.506-.738 3.98-.728 9.348-2.327 12.325-5.814 3.1-3.628 3.756-7.896 4.517-12.836.746-4.842 1.517-9.848 4.717-14.65 4.155-6.238 10.07-8.708 15.788-11.097 3.438-1.437 6.993-2.92 10.295-5.26 8.092-5.727 11.4-20.032 11.432-20.176a3.142 3.142 0 0 1 3.747-2.376 3.128 3.128 0 0 1 2.367 3.745c-.154.683-3.893 16.818-13.933 23.925-3.87 2.74-7.75 4.36-11.502 5.928-5.3 2.214-9.88 4.127-12.98 8.78-2.43 3.647-3.063 7.764-3.734 12.123-.83 5.396-1.69 10.974-5.95 15.962-7.86 9.207-25.077 8.777-25.806 8.754a3.115 3.115 0 0 1-1.994-.8" fill="#FAD2C9"/><path d="M70.976 37.005c-3.002 3.334-8.255 3.498-11.733.367-3.477-3.13-3.863-8.373-.86-11.707 3-3.334 8.253-3.498 11.73-.366 3.48 3.13 3.865 8.372.863 11.705M88.025 52.356c-3.002 3.334-8.255 3.498-11.733.366-3.478-3.13-3.864-8.372-.862-11.706 3.002-3.334 8.255-3.498 11.733-.367 3.478 3.13 3.863 8.372.862 11.706M103.466 66.26c-3.002 3.333-8.255 3.497-11.733.366-3.478-3.13-3.863-8.373-.862-11.707 3.003-3.335 8.256-3.5 11.734-.367 3.478 3.13 3.864 8.373.862 11.706" fill="#E49589"/><path d="M118.716 55.562c10.302-11.44 7.008-31.202-7.357-44.136L78.993 47.372l17.63 15.875 4 3.6c2.418 2.178 6.15 1.978 8.333-.446l9.388-10.426c.03-.033.055-.07.084-.103.095-.102.192-.203.286-.308" fill="#FAD2C9"/><path d="M111.36 11.426C96.993-1.508 76.997-2.72 66.695 8.723c-.094.105-.185.212-.277.318-.03.033-.065.06-.095.095L56.937 19.56c-2.183 2.426-1.992 6.158.427 8.336l3.998 3.6 17.632 15.876 32.365-35.946z" fill="#F3C0B8"/><path d="M117.375 40.316c-1.386 4.265-5.137 6.874-8.378 5.826-3.24-1.047-4.745-5.354-3.36-9.62 1.388-4.264 5.138-6.873 8.38-5.825 3.24 1.047 4.744 5.354 3.358 9.62M102.56 30.413c-3.023 3.316-7.513 4.145-10.03 1.85-2.515-2.292-2.106-6.84.916-10.155 3.023-3.316 7.512-4.145 10.028-1.852 2.517 2.294 2.107 6.84-.915 10.157M87.887 18.522c-4.237 1.47-8.57.05-9.682-3.17-1.11-3.22 1.424-7.022 5.66-8.492 4.236-1.47 8.57-.05 9.68 3.17 1.112 3.22-1.422 7.023-5.658 8.492" fill="#E49589"/></g></svg>