<svg width="151" height="151" viewBox="0 0 151 151" xmlns="http://www.w3.org/2000/svg" xmlns:xlink="http://www.w3.org/1999/xlink"><title>Oval 1 + Page 1</title><defs><path id="a" d="M0 .04h71.697V107H0V.04z"/><path id="c" d="M0 .04h71.697V107H0V.04z"/></defs><g transform="translate(2 2)" fill="none" fill-rule="evenodd"><circle stroke="#EA5C67" stroke-width="3" cx="73.5" cy="73.5" r="73.5"/><g transform="translate(40 20)"><mask id="b" fill="#fff"><use xlink:href="#a"/></mask><path d="M21.418 101.236c.564-.072.874-.082 1.17-.153 14.364-3.46 28.724-6.936 43.096-10.36.965-.23 1.053-.717 1.05-1.51-.015-7.377 0-14.756-.025-22.134-.002-.472-.1-1.094-.402-1.384-1.21-1.16-2.52-2.218-3.88-3.388l-3.798 5.094c1.466 1.25 2.862 2.437 4.254 3.628 1.484 1.27 1.76 2.643.782 3.863-1.023 1.275-2.45 1.282-4.022-.047-3.328-2.81-6.634-5.642-9.95-8.466l-7.958-6.787c-6.676 8.91-13.248 17.678-19.808 26.455-.233.312-.486.715-.488 1.076-.033 4.652-.022 9.303-.022 14.112zm45.25-80.267c-.212 0-.37-.03-.51.003-14.51 3.484-29.017 6.982-43.533 10.438-1.025.245-1.237.734-1.235 1.693.026 14.547.017 29.093.025 43.64 0 .36.098.722.184 1.32.543-.71.92-1.187 1.283-1.672 5.28-7.044 10.56-14.092 15.843-21.135 1.698-2.263 2.785-2.405 4.918-.616 1.884 1.577 3.74 3.188 5.613 4.78 1.818 1.547 3.64 3.09 5.545 4.706 1.68-2.247 3.22-4.346 4.8-6.413 1.498-1.955 2.766-2.063 4.644-.462.743.634 1.487 1.266 2.42 2.06V20.97zm5.03 34c0 12.194 0 24.388-.002 36.58 0 2.368-.42 2.933-2.748 3.496a45961.11 45961.11 0 0 1-48.89 11.802c-2.367.57-3.703-.476-3.704-2.885a133442 133442 0 0 1 0-73.62c0-2.002.58-2.685 2.766-3.212 14.66-3.533 29.322-7.052 43.983-10.577 1.59-.382 3.176-.78 4.767-1.156 2.58-.61 3.824.358 3.825 2.995.004 12.193.002 24.386.002 36.58z" fill="#EB5C67" mask="url(#b)"/></g><g transform="translate(40 20)"><mask id="d" fill="#fff"><use xlink:href="#c"/></mask><path d="M.008 52.98V16.55c0-2.128.55-2.833 2.59-3.35C19.737 8.842 36.877 4.473 54.03.17c.904-.226 2.12-.176 2.873.276.592.355.95 1.527.952 2.34.005 1.218-.987 1.788-2.124 2.075-4.312 1.09-8.617 2.204-12.926 3.302-12.085 3.08-24.166 6.18-36.266 9.2-1.227.307-1.596.745-1.594 2.02.044 23.056.032 46.113.032 69.17 0 .512.024 1.026-.016 1.536-.11 1.433-1.14 2.406-2.494 2.392-1.32-.013-2.357-1.042-2.454-2.455-.027-.408-.006-.82-.006-1.23V52.98z" fill="#EB5C67" mask="url(#d)"/></g><path d="M47.957 80.212V43.94c0-2.43.34-2.87 2.735-3.48 17.084-4.364 34.17-8.727 51.262-13.057.755-.19 1.655-.26 2.378-.034 1.052.327 1.602 1.222 1.516 2.395-.092 1.23-.788 1.967-1.944 2.27-3.41.893-6.823 1.778-10.24 2.647-13.027 3.313-26.05 6.642-39.093 9.894-1.382.344-1.678.937-1.675 2.28.045 22.9.033 45.8.033 68.7 0 .41.008.82-.003 1.23-.046 1.84-1.07 3.012-2.596 2.98-1.465-.03-2.37-1.143-2.37-2.976-.006-11.168-.003-22.336-.003-33.505v-3.073z" fill="#EB5C67"/><path d="M100.604 54.325c1.714.03 2.69.87 2.838 2.1.17 1.425-.506 2.44-2.003 2.827-2.425.627-4.865 1.195-7.3 1.778-8.846 2.118-17.694 4.234-26.54 6.347-1.786.426-3.114-.262-3.49-1.794-.338-1.373.54-2.612 2.3-3.04 9.587-2.327 19.18-4.624 28.77-6.93 1.937-.465 3.875-.92 5.424-1.288M71.044 53.99c1.655.08 2.52.71 2.786 1.955.26 1.224-.126 2.342-1.363 2.74-1.88.606-3.81 1.13-5.76 1.437-1.29.203-2.24-.637-2.567-1.923-.32-1.258.212-2.357 1.36-2.754 1.913-.66 3.922-1.043 5.544-1.455M98.515 69.23c-.027 2.317-1.95 4.495-3.983 4.508-1.614.01-2.723-1.257-2.693-3.076.038-2.27 2.024-4.52 4.01-4.544 1.572-.02 2.686 1.282 2.665 3.112M100.59 46.895c1.577.046 2.48.59 2.8 1.85.338 1.328-.243 2.468-1.543 2.93-.954.34-1.95.6-2.948.768-1.22.205-2.438-.686-2.743-1.935-.31-1.275.24-2.275 1.353-2.764 1.056-.463 2.243-.63 3.08-.85" fill="#EB5C67"/></g></svg>