<svg width="55" height="55" viewBox="0 0 55 55" xmlns="http://www.w3.org/2000/svg" xmlns:xlink="http://www.w3.org/1999/xlink"><title>Oval 5 + Page 1</title><defs><path id="a" d="M0 .266h16.017V33.97H0"/></defs><g fill="none" fill-rule="evenodd"><circle fill="#FCECA9" cx="27.5" cy="27.5" r="27.5"/><g transform="translate(19.794 9.706)"><mask id="b" fill="#fff"><use xlink:href="#a"/></mask><path d="M15.965 11.295c-.108 1.184-.21 2.314-.315 3.443-.056.604-.13 1.206-.17 1.81-.015.246-.112.33-.35.332-1.218.012-2.437.037-3.657.05-.88.007-.882 0-.882.853 0 2.85.008 5.7-.007 8.548-.006 1.046-.09 2.09-.094 3.135a138.37 138.37 0 0 0 .06 4.07c.008.334-.094.438-.44.435a396.4 396.4 0 0 0-5.967 0c-.354.003-.437-.114-.433-.44.013-1.38-.004-2.76.002-4.14.002-.418.06-.836.058-1.254-.03-3.585-.072-7.17-.1-10.755-.003-.283-.093-.39-.39-.385-.962.013-1.922-.004-2.883.01-.285.004-.4-.063-.397-.367.013-1.667.01-3.335.002-5.002 0-.257.08-.35.35-.346.96.013 1.92-.01 2.88.012.353.008.442-.113.438-.438-.015-1.126-.036-2.254.006-3.38.044-1.15.014-2.312.42-3.428C4.765 2.212 6.11 1.098 8.01.642c.87-.21 1.78-.316 2.674-.347C12.31.24 13.936.283 15.563.27c.294-.002.39.084.39.378-.006 1.468.007 2.937.018 4.406.003.23.023.463.044.693.022.24-.074.334-.328.33-.915-.01-1.83-.01-2.746.002a9.1 9.1 0 0 0-1.282.083c-.65.1-.952.392-.98 1.033-.058 1.278-.06 2.56-.088 3.84-.006.27.174.26.363.26H15.965" fill="#6FBCBE" mask="url(#b)"/></g></g></svg>