<svg xmlns="http://www.w3.org/2000/svg" width="58.25" height="59" viewBox="-1.75 -2 58.25 59"><title>Oval 5 + Page 1</title><circle fill="none" stroke="#FCECA9" stroke-width="1.383" cx="250.46" cy="73.102" r="27.5"/><path fill="#FBEBA8" d="M205.617-.345c-.29.363-.592.718-.873 1.086-.904 1.185-1.8 2.372-2.7 3.558l-2.925 3.848c-.847 1.11-1.692 2.222-2.532 3.334-.113.152-.245.2-.43.2-5.338-.005-10.674-.005-16.012.003-.23 0-.358-.1-.488-.26-1.414-1.76-2.833-3.516-4.247-5.273-1.186-1.475-2.366-2.95-3.55-4.426-.487-.604-.978-1.21-1.48-1.828 2.758-3.854 5.514-7.703 8.285-11.578L187.95.79c3.234-4.17 6.44-8.302 9.677-12.468.31.43.604.836.896 1.244 1.002 1.414 2.004 2.828 3.004 4.242.963 1.36 1.92 2.725 2.886 4.082.396.557.803 1.104 1.204 1.653v.112z"/><path fill-rule="evenodd" clip-rule="evenodd" fill="#6FBCBE" d="M174.756 66.106c-.285.354-.58.702-.855 1.064-.885 1.158-1.764 2.32-2.645 3.483-.954 1.256-1.91 2.512-2.863 3.768-.828 1.09-1.656 2.176-2.48 3.268-.112.148-.24.195-.42.195-5.23-.004-10.456-.005-15.685.002-.226 0-.35-.096-.48-.255-1.383-1.723-2.772-3.44-4.158-5.164-1.162-1.444-2.32-2.89-3.48-4.335-.476-.592-.956-1.183-1.446-1.79 2.7-3.774 5.398-7.545 8.115-11.34l9.092 12.216 9.48-12.213c.302.422.59.82.874 1.22.982 1.384 1.963 2.77 2.943 4.153.94 1.333 1.88 2.67 2.825 4 .387.544.786 1.08 1.18 1.62v.11z"/><path fill-rule="evenodd" clip-rule="evenodd" fill="#6FBCBE" d="M174.756 68.106c-.285.354-.58.702-.855 1.064-.885 1.158-1.764 2.32-2.645 3.483-.954 1.256-1.91 2.512-2.863 3.768-.828 1.09-1.656 2.176-2.48 3.268-.112.148-.24.195-.42.195-5.23-.004-10.456-.005-15.685.002-.226 0-.35-.096-.48-.255-1.383-1.723-2.772-3.44-4.158-5.164-1.162-1.444-2.32-2.89-3.48-4.335-.476-.592-.956-1.183-1.446-1.79 2.7-3.774 5.398-7.545 8.115-11.34l9.092 12.216 9.48-12.213c.302.422.59.82.874 1.22.982 1.384 1.963 2.77 2.943 4.153.94 1.333 1.88 2.67 2.825 4 .387.544.786 1.08 1.18 1.62v.11z"/><path fill="#FBEBA8" d="M134.617 133.1c-.29.363-.592.718-.873 1.086-.904 1.184-1.8 2.37-2.7 3.557l-2.925 3.848c-.847 1.112-1.692 2.223-2.532 3.335-.113.152-.245.2-.43.2-5.338-.005-10.674-.005-16.012.003-.23 0-.358-.1-.488-.26-1.414-1.76-2.833-3.516-4.247-5.273-1.186-1.475-2.366-2.95-3.55-4.426-.487-.605-.978-1.21-1.48-1.83 2.758-3.853 5.514-7.702 8.285-11.577l9.284 12.473c3.234-4.17 6.44-8.303 9.677-12.47.31.432.604.837.896 1.245l3.004 4.243c.963 1.36 1.92 2.725 2.886 4.082.396.557.803 1.104 1.204 1.653v.112z"/><circle fill="#FCECA9" cx="27.5" cy="27.5" r="27.5"/><path fill="#6FBCBE" d="M45.117 27.156c-.29.363-.592.718-.873 1.086-.904 1.184-1.8 2.37-2.7 3.557-.976 1.282-1.95 2.563-2.925 3.847-.847 1.11-1.692 2.222-2.532 3.334-.113.153-.245.2-.43.2-5.338-.004-10.674-.004-16.012.004-.23 0-.358-.1-.488-.26-1.414-1.76-2.833-3.516-4.247-5.273-1.185-1.474-2.366-2.95-3.55-4.425-.487-.604-.977-1.21-1.478-1.828l8.284-11.58 9.284 12.474c3.235-4.17 6.442-8.302 9.678-12.468.31.43.604.836.896 1.245l3.004 4.24c.963 1.362 1.92 2.726 2.886 4.084.396.557.803 1.104 1.204 1.654v.112z"/></svg>