<?xml version="1.0" encoding="UTF-8" standalone="no"?>
<svg width="162px" height="65px" viewBox="0 0 162 65" version="1.1" xmlns="http://www.w3.org/2000/svg" xmlns:xlink="http://www.w3.org/1999/xlink" xmlns:sketch="http://www.bohemiancoding.com/sketch/ns">
    <!-- Generator: Sketch 3.4 (15575) - http://www.bohemiancoding.com/sketch -->
    <title>Page 1</title>
    <desc>Created with Sketch.</desc>
    <defs>
        <path id="path-1" d="M0,0 L162,0 L162,65 L0,65"></path>
        <path id="path-3" d="M0,0 L162,0 L162,65 L0,65"></path>
    </defs>
    <g id="Page-1" stroke="none" stroke-width="1" fill="none" fill-rule="evenodd" sketch:type="MSPage">
        <g id="Desktop-HD-Copy" sketch:type="MSArtboardGroup" transform="translate(-1255.000000, -2433.000000)">
            <g id="Page-1" sketch:type="MSLayerGroup" transform="translate(1255.000000, 2433.000000)">
                <g id="Group-3">
                    <mask id="mask-2" sketch:name="Clip 2" fill="white">
                        <use xlink:href="#path-1"></use>
                    </mask>
                    <g id="Clip-2"></g>
                    <path d="M143.576824,28.1081081 L129.073215,28.1081081 L129.073215,28.0514527 C129.073215,20.563277 123.005459,14.4932432 115.520093,14.4932432 L95.2117024,14.4932432 C94.4838,14.4932432 93.0732146,14.7040541 92.1951659,14.8156081 L92.1951659,65 L115.886678,65 L129.512239,65 L143.576824,65 C153.751654,65 162.000044,56.7485135 162.000044,46.5698649 L162.000044,46.5382432 C162.000044,36.3595946 153.751654,28.1081081 143.576824,28.1081081" id="Fill-1" fill="#FFFFFF" sketch:type="MSShapeGroup" mask="url(#mask-2)"></path>
                </g>
                <g id="Group-6">
                    <mask id="mask-4" sketch:name="Clip 5" fill="white">
                        <use xlink:href="#path-3"></use>
                    </mask>
                    <g id="Clip-5"></g>
                    <path d="M92.277439,14.8155642 C90.5981707,6.36776014 83.1488049,-4.39189192e-05 74.2111463,-4.39189192e-05 L46.520561,-4.39189192e-05 C36.3461707,-4.39189192e-05 28.0977805,8.25144257 28.0977805,18.4300912 L28.0977805,18.4617128 C28.0977805,21.9985034 29.0956829,25.3016453 30.8223659,28.1080642 L18.423,28.1080642 C8.24860976,28.1080642 0.000219512195,36.3595507 0.000219512195,46.5381993 L0.000219512195,46.5698209 C0.000219512195,56.7484696 8.24860976,64.9999561 18.423,64.9999561 L32.4880244,64.9999561 L46.1135854,64.9999561 L93.0729512,64.9999561 L93.0729512,14.6658007 C92.8055854,14.7088412 92.5399756,14.7575912 92.277439,14.8155642" id="Fill-4" opacity="0.5" fill="#FFFFFF" sketch:type="MSShapeGroup" mask="url(#mask-4)"></path>
                </g>
            </g>
        </g>
    </g>
</svg>