<?xml version="1.0" encoding="UTF-8" standalone="no"?>
<svg width="151px" height="151px" viewBox="0 0 151 151" version="1.1" xmlns="http://www.w3.org/2000/svg" xmlns:xlink="http://www.w3.org/1999/xlink" xmlns:sketch="http://www.bohemiancoding.com/sketch/ns">
    <!-- Generator: Sketch 3.4 (15575) - http://www.bohemiancoding.com/sketch -->
    <title>Oval 1 + Page 1</title>
    <desc>Created with Sketch.</desc>
    <defs>
        <path id="path-1" d="M0,0.259864615 L85.943802,0.259864615 L85.943802,92 L0,92"></path>
    </defs>
    <g id="Page-1" stroke="none" stroke-width="1" fill="none" fill-rule="evenodd" sketch:type="MSPage">
        <g id="Desktop-HD-Copy" sketch:type="MSArtboardGroup" transform="translate(-119.000000, -2101.000000)">
            <g id="Oval-1-+-Page-1" sketch:type="MSLayerGroup" transform="translate(121.000000, 2103.000000)">
                <circle id="Oval-1" stroke="#EA5C67" stroke-width="3" sketch:type="MSShapeGroup" cx="73.5" cy="73.5" r="73.5"></circle>
                <g id="Page-1" transform="translate(31.000000, 28.000000)">
                    <g id="Group-3">
                        <mask id="mask-2" sketch:name="Clip 2" fill="white">
                            <use xlink:href="#path-1"></use>
                        </mask>
                        <g id="Clip-2"></g>
                        <path d="M43.6395789,45.9264566 C42.4355789,44.6376074 41.2923182,43.4141489 40.0250244,42.0576443 C39.1025822,44.2582843 38.2255525,46.3499397 37.2222191,48.7439212 C39.59247,47.7033305 41.6723644,46.7901243 43.6395789,45.9264566 M78.9038363,12.5882043 C77.0231894,10.6995151 75.1678033,8.83573662 73.5709848,7.23182277 C72.7541267,7.935552 71.7380211,8.811392 70.7559749,9.657792 C72.636338,11.5450658 74.4585162,13.3743089 76.200371,15.122592 C77.2176119,14.1686228 78.2348528,13.2152197 78.9038363,12.5882043 M48.3582257,42.9680197 C56.4975723,34.7610535 64.365295,26.8275397 72.1376515,18.990272 C70.5240871,17.3798474 68.6698363,15.5293735 67.0974271,13.9602782 C59.2226086,21.8145305 51.256965,29.7590843 43.4999353,37.4955766 C45.0028066,39.1886597 46.6629188,41.0586658 48.3582257,42.9680197 M85.9436317,12.1890658 C85.5153347,12.8656197 85.2221399,13.5835028 84.7160739,14.0899274 C73.2678561,25.5454843 61.7983512,36.9792443 50.3211828,48.4053612 C49.9993215,48.7258043 49.578404,48.982272 49.158338,49.1637243 C44.0108264,51.3878597 38.8457175,53.5723643 33.7072884,55.8165982 C32.4277901,56.3756751 31.25047,56.5715643 30.1858297,55.5020997 C29.1123908,54.4241428 29.3706746,53.206912 29.909097,51.9684505 C32.0281597,47.0935828 34.1043644,42.200032 36.2699749,37.346112 C36.6795393,36.4280935 37.3147472,35.5505551 38.0294271,34.8366351 C48.5523644,24.3274043 59.1073743,13.8501612 69.651031,3.36102892 C70.3861465,2.62955815 71.0542785,1.82788431 71.8169254,1.12726892 C73.0342653,0.00854892308 74.4392158,-0.0551433846 75.6241993,1.09414892 C78.8104568,4.18308431 81.942503,7.32806892 85.0555327,10.4908874 C85.455163,10.8968197 85.6135393,11.538272 85.9436317,12.1890658" id="Fill-1" fill="#EA5C67" sketch:type="MSShapeGroup" mask="url(#mask-2)"></path>
                    </g>
                    <path d="M22.0588013,73.8507212 C18.5594812,73.8507212 15.0584581,73.923472 11.5616924,73.8365674 C2.58051089,73.6126535 -2.85593795,64.1009858 1.57036568,56.3138228 C3.65309835,52.6496751 6.94607525,50.6834228 11.1518442,50.4235582 C13.5547353,50.2749428 15.9735208,50.3485428 18.3843591,50.378832 C20.195468,50.4014782 21.3844251,51.5436935 21.3455406,53.1133551 C21.3083591,54.6198905 20.1247947,55.6836935 18.3923063,55.7046412 C16.16993,55.7320997 13.9464185,55.6802966 11.7251776,55.7306843 C8.04647789,55.8147582 5.34074191,58.5396566 5.33336238,62.1030289 C5.32598284,65.7108443 8.09189043,68.4838658 11.8387089,68.5033982 C18.7422667,68.5399151 25.6463921,68.502832 32.5499498,68.5189674 C38.189336,68.5317058 42.8503657,72.2301058 44.1491644,77.6827335 C45.8328343,84.7520135 40.3762337,91.8300689 33.0801413,91.9614166 C29.1093822,92.032752 25.1363525,91.9863274 21.1641743,91.970192 C19.4058574,91.962832 18.2657188,90.9352628 18.2299564,89.3973058 C18.1930587,87.8126412 19.3459696,86.6658966 21.161336,86.6460812 C24.9913162,86.6050351 28.821864,86.6472135 32.6518442,86.6273982 C36.0180488,86.6098474 38.4941677,84.481392 39.0354284,81.1880751 C39.6561611,77.4078658 36.7210917,73.9079028 32.8400224,73.8671397 C29.2467551,73.8294905 25.6526363,73.8592135 22.0588013,73.8592135 L22.0588013,73.8507212 Z" id="Fill-4" fill="#EA5C67" sketch:type="MSShapeGroup"></path>
                </g>
            </g>
        </g>
    </g>
</svg>