<?xml version="1.0" encoding="UTF-8" standalone="no"?>
<svg width="263px" height="599px" viewBox="0 0 263 599" version="1.1" xmlns="http://www.w3.org/2000/svg" xmlns:xlink="http://www.w3.org/1999/xlink" xmlns:sketch="http://www.bohemiancoding.com/sketch/ns">
    <!-- Generator: Sketch 3.4 (15575) - http://www.bohemiancoding.com/sketch -->
    <title>Page 1</title>
    <desc>Created with Sketch.</desc>
    <defs>
        <path id="path-1" d="M0,0.476642705 L236.848015,0.476642705 L236.848015,606.691937 L0,606.691937 L0,0.476642705 Z"></path>
    </defs>
    <g id="Page-1" stroke="none" stroke-width="1" fill="none" fill-rule="evenodd" sketch:type="MSPage">
        <g id="Desktop-HD-Copy" sketch:type="MSArtboardGroup" transform="translate(-1131.000000, -157.000000)">
            <g id="Page-1" sketch:type="MSLayerGroup" transform="translate(1261.881212, 459.061710) rotate(4.000000) translate(-1261.881212, -459.061710) translate(1142.881212, 155.561710)">
                <path d="M153.033775,290.231914 L151.196084,290.128857 L162.287885,92.0332039 L164.125576,92.1362617 L153.033775,290.231914 Z" id="Fill-1" fill="#C6C6C5" sketch:type="MSShapeGroup"></path>
                <g id="Group-99" transform="translate(-0.000000, 0.000000)">
                    <path d="M142.626185,29.8168537 L138.632965,50.1891886 C135.159452,67.9139175 145.220428,85.1478945 161.630181,91.223402 C161.515441,91.4951558 161.42463,91.784086 161.365726,92.0846715 L160.776683,95.0911398 C160.318947,97.4246647 161.840642,99.6870306 164.174724,100.144657 L164.493175,100.207228 L183.951839,0.927520939 C164.73186,-2.1175941 146.398514,10.5689539 142.626185,29.8168537" id="Fill-2" fill="#76599B" sketch:type="MSShapeGroup"></path>
                    <path d="M169.867517,96.8725689 L170.45656,93.8654871 C170.493989,93.6771611 170.51301,93.4888351 170.524668,93.3011225 C189.039023,95.2512476 206.303502,82.774496 209.951886,64.1615063 L213.944493,43.7879446 C217.803951,24.0989815 204.965884,5.00996264 185.272216,1.15142646 C184.832274,1.06554489 184.391719,0.998066513 183.951778,0.927520939 L164.493114,100.207228 L164.812179,100.269185 C167.146875,100.726811 169.409781,99.2054804 169.867517,96.8725689" id="Fill-4" fill="#957AB6" sketch:type="MSShapeGroup"></path>
                    <path d="M153.320504,296.553779 L112.584506,97.8882411 L114.387836,97.5189504 L153.654909,289.020125 L193.051448,157.437907 L194.814895,157.964852 L153.320504,296.553779 Z" id="Fill-6" fill="#C6C6C5" sketch:type="MSShapeGroup"></path>
                    <path d="M150.435605,567.235307 C150.435605,572.737862 145.850888,577.198182 140.196076,577.198182 C134.540651,577.198182 129.956547,572.737862 129.956547,567.235307 L129.956547,547.947533 C129.956547,542.444979 134.540651,537.984045 140.196076,537.984045 C145.850888,537.984045 150.435605,542.444979 150.435605,547.947533 L150.435605,567.235307 Z" id="Fill-8" fill="#82242F" sketch:type="MSShapeGroup"></path>
                    <path d="M68.4627997,44.180546 L72.3836165,63.4419415 C75.7945431,80.1998893 90.8587017,91.6080287 107.413875,90.9528751 C107.412648,91.2326036 107.438419,91.5172397 107.496096,91.8012623 L108.074708,94.6433288 C108.523853,96.8498716 110.676927,98.2748922 112.883997,97.8258543 L113.185268,97.7645103 L94.08003,3.89963665 C76.1712851,8.22561394 64.7585789,25.9822417 68.4627997,44.180546" id="Fill-10" fill="#9DB22E" sketch:type="MSShapeGroup"></path>
                    <path d="M116.669764,92.89478 L116.091766,90.0521001 C116.055564,89.8742026 116.004023,89.7036663 115.945732,89.5343569 C132.840219,84.5078314 143.393904,67.3223161 139.811787,49.7239559 L135.891584,30.4631738 C132.102688,11.8477304 113.936237,-0.172008513 95.3169588,3.61536866 C94.9003336,3.70063678 94.4910715,3.80124091 94.0805823,3.90000471 L113.185207,97.7642649 L113.486478,97.7035344 C115.693548,97.2538831 117.118909,95.1019363 116.669764,92.89478" id="Fill-12" fill="#BDCC4E" sketch:type="MSShapeGroup"></path>
                    <path d="M114.684014,296.072168 C114.684014,296.072168 120.998432,299.106854 122.645297,306.265697 C125.519336,318.756557 118.588264,324.779922 118.588264,324.779922 L108.2297,313.208608 L114.684014,296.072168 Z" id="Fill-14" fill="#32100D" sketch:type="MSShapeGroup"></path>
                    <path d="M39.5520219,308.786075 C39.5520219,324.023919 29.3585118,336.074944 30.0408198,346.164188 C30.7973718,357.33922 40.7865576,357.363144 40.7865576,365.045864 C40.7865576,372.72613 31.6011699,381.337597 39.7385521,389.606765 L79.0117604,389.606765 L79.0117604,296.427717 L39.5520219,308.786075 Z" id="Fill-16" fill="#32100D" sketch:type="MSShapeGroup"></path>
                    <path d="M118.010511,320.442596 C118.010511,335.68044 127.322298,336.074882 126.658398,346.164126 C125.922708,357.339159 116.19675,357.363696 116.19675,365.045802 C116.19675,372.726068 125.138544,381.337536 117.217144,389.606704 L78.9802834,389.606704 L78.9802834,296.42827 L118.010511,320.442596 Z" id="Fill-18" fill="#32100D" sketch:type="MSShapeGroup"></path>
                    <path d="M118.985991,304.687255 C118.985991,282.698506 101.157626,264.875013 79.1642366,264.875013 C57.1714609,264.875013 39.3430957,282.698506 39.3430957,304.687255 C39.3430957,326.674776 57.1714609,344.498269 79.1642366,344.498269 C101.157626,344.498269 118.985991,326.674776 118.985991,304.687255" id="Fill-20" fill="#32100D" sketch:type="MSShapeGroup"></path>
                    <path d="M92.4879575,389.942194 L78.9958072,427.77916 L65.8411293,389.942194 L65.8411293,360.733259 L92.4879575,360.733259 L92.4879575,389.942194 Z" id="Fill-22" fill="#E9C8AD" sketch:type="MSShapeGroup"></path>
                    <path d="M79.1640525,279.77706 C66.2271978,279.77706 45.7677744,287.129749 45.7677744,321.584821 C45.7677744,341.47806 53.5241195,350.858167 56.3509118,354.463353 C58.9519044,357.779608 72.3035435,368.501922 79.1640525,368.501922 L79.1640525,279.77706 Z" id="Fill-24" fill="#E9C8AD" sketch:type="MSShapeGroup"></path>
                    <path d="M39.3318671,329.800559 C38.7612318,324.294323 41.3861542,319.409503 45.1910032,318.887465 C48.997693,318.364815 52.5460629,322.404929 53.1179253,327.911164 C53.6879471,333.414946 51.0636382,338.299153 47.2563349,338.821804 C43.4502587,339.343228 39.9018888,335.304341 39.3318671,329.800559" id="Fill-26" fill="#E9C8AD" sketch:type="MSShapeGroup"></path>
                    <path d="M79.0594361,279.77706 C91.9962908,279.77706 112.454487,287.129749 112.454487,321.584821 C112.454487,341.47806 104.699369,350.858167 101.872577,354.463353 C99.2709706,357.779608 85.9187179,368.501922 79.0594361,368.501922 L79.0594361,279.77706 Z" id="Fill-28" fill="#F2D7BC" sketch:type="MSShapeGroup"></path>
                    <path d="M118.996177,329.187119 C119.566198,323.680884 116.941889,318.796063 113.13704,318.274025 C109.329124,317.751375 105.782594,321.791489 105.211346,327.297725 C104.64071,332.801506 107.264405,337.685714 111.070482,338.208364 C114.876558,338.729788 118.425541,334.690901 118.996177,329.187119" id="Fill-30" fill="#F2D7BC" sketch:type="MSShapeGroup"></path>
                    <path d="M79.1640525,356.367163 C84.2077324,356.367163 88.2960583,353.271746 88.2960583,349.45247 L70.0320468,349.45247 C70.0320468,353.271746 74.1215999,356.367163 79.1640525,356.367163" id="Fill-32" fill="#FEFEFE" sketch:type="MSShapeGroup"></path>
                    <path d="M77.28249,269.863751 C53.6422349,269.863751 46.4559115,290.569184 46.4559115,300.104491 C37.8816558,312.017492 47.2284167,322.676008 53.8441048,326.420444 L53.8441048,320.559027 C53.8441048,312.854837 61.1721666,305.721146 72.1774515,306.908152 C82.039625,307.971857 88.2509597,302.400597 93.4977366,292.926019 C99.9753677,280.237631 91.8901403,269.863751 77.28249,269.863751" id="Fill-34" fill="#32100D" sketch:type="MSShapeGroup"></path>
                    <path d="M92.4879575,289.030799 C92.4879575,289.030799 98.0102347,310.835516 113.136979,318.274087 C115.83001,298.120136 117.421039,302.978579 113.136979,292.366685 C108.853533,281.754177 92.4879575,273.870249 92.4879575,273.870249 L92.4879575,289.030799 Z" id="Fill-36" fill="#32100D" sketch:type="MSShapeGroup"></path>
                    <path d="M79.1010986,464.219936 L79.0998714,379.245645 L66.3225491,375.517771 C66.3225491,375.517771 44.2837544,380.644901 39.3431571,388.364427 C34.9265625,393.977401 52.4107057,388.613484 50.7853155,422.812751 C50.3545778,431.87387 49.4961705,464.219936 49.4961705,464.219936 L79.1010986,464.219936 Z" id="Fill-38" fill="#65121E" sketch:type="MSShapeGroup"></path>
                    <path d="M79.0999328,379.245338 L65.8415588,373.152654 L59.131992,377.533841 L68.7855461,392.349025 L79.0999328,379.245338 Z" id="Fill-40" fill="#FEFEFE" sketch:type="MSShapeGroup"></path>
                    <path d="M5.94773798,450.764441 C3.55475119,455.221695 5.4881618,460.911962 10.2655452,463.475527 C15.0423149,466.039705 20.8548185,464.504879 23.2471917,460.048239 L55.9231194,399.193173 C58.3154926,394.737146 56.382082,389.045652 51.6053123,386.482087 C46.8285425,383.917909 41.0154254,385.452122 38.6230522,389.908762 L5.94773798,450.764441 Z" id="Fill-42" fill="#65121E" sketch:type="MSShapeGroup"></path>
                    <path d="M73.9296701,330.694954 C73.8928549,330.694954 73.8554261,330.691273 73.8173837,330.684526 C73.4842064,330.623182 73.2645424,330.302966 73.3259011,329.969868 C73.328969,329.950238 73.6952801,327.803199 72.4392688,326.302725 C71.5777936,325.2746 70.1334113,324.752563 68.1453915,324.752563 C66.1187158,324.752563 64.5767732,325.296071 63.5619014,326.368363 C62.1052474,327.90687 62.2046484,330.026305 62.2058756,330.047775 C62.2242832,330.38578 61.9647361,330.675937 61.62665,330.693727 C61.2805873,330.716424 60.9989512,330.453259 60.9805436,330.115253 C60.9744077,330.007288 60.8547584,327.44311 62.6703604,325.524884 C63.9263717,324.198627 65.7683579,323.525683 68.1453915,323.525683 C70.5199707,323.525683 72.2840314,324.198627 73.3884869,325.524884 C75.0114228,327.474395 74.5530738,330.082741 74.5322119,330.19316 C74.4782163,330.488225 74.2198964,330.694954 73.9296701,330.694954" id="Fill-44" fill="#32100D" sketch:type="MSShapeGroup"></path>
                    <path d="M42.0704871,290.180385 C42.0704871,290.180385 35.7560699,293.215072 34.1092041,300.373914 C31.2351656,312.865388 38.1662371,318.887527 38.1662371,318.887527 L48.524802,307.316212 L42.0704871,290.180385 Z" id="Fill-46" fill="#32100D" sketch:type="MSShapeGroup"></path>
                    <path d="M60.3594715,319.781247 C60.0097273,319.781247 59.6624374,319.632795 59.4200708,319.343864 C58.9831973,318.825508 59.0500782,318.052574 59.5685587,317.615805 C66.6425958,311.663598 73.4711983,315.059601 76.0936664,317.68819 C76.5722638,318.167287 76.5710366,318.944515 76.0912121,319.422998 C75.6113875,319.900868 74.836428,319.900254 74.3578306,319.422998 C74.105033,319.172715 68.2385339,313.528455 61.1491571,319.49293 C60.9190623,319.686777 60.6386533,319.781247 60.3594715,319.781247" id="Fill-48" fill="#32100D" sketch:type="MSShapeGroup"></path>
                    <path d="M51.8878688,287.113187 C51.8878688,287.113187 45.5734516,290.147873 43.9265858,297.306715 C41.0525473,309.798189 47.9836188,315.820328 47.9836188,315.820328 L58.3421836,304.249013 L51.8878688,287.113187 Z" id="Fill-50" fill="#32100D" sketch:type="MSShapeGroup"></path>
                    <path d="M62.0848763,328.160896 C61.9940656,328.160896 61.901414,328.140652 61.8142848,328.097098 L58.5058271,326.467802 C58.2014883,326.318123 58.0763167,325.950672 58.2260317,325.647019 C58.3757468,325.342753 58.7426715,325.216385 59.0476239,325.367904 L62.3566951,326.997814 C62.6604203,327.147493 62.785592,327.51433 62.6358769,327.817983 C62.5291129,328.035141 62.3112897,328.160896 62.0848763,328.160896" id="Fill-52" fill="#32100D" sketch:type="MSShapeGroup"></path>
                    <path d="M63.4624391,326.232548 C63.2961572,326.232548 63.1298753,326.165069 63.0089987,326.032566 L60.6246022,323.417473 C60.3957345,323.167189 60.4135285,322.778882 60.6638717,322.551296 C60.9154421,322.322483 61.3026151,322.340886 61.5308692,322.590556 L63.9152658,325.20565 C64.1435199,325.455933 64.1263395,325.843627 63.8753827,326.07244 C63.7575741,326.179178 63.6096998,326.232548 63.4624391,326.232548" id="Fill-54" fill="#32100D" sketch:type="MSShapeGroup"></path>
                    <path d="M87.5004822,330.892052 C87.2102558,330.892052 86.951936,330.685323 86.8979404,330.390258 C86.8770785,330.279839 86.4187294,327.671493 88.0416654,325.722595 C89.1461208,324.395725 90.9101816,323.722782 93.2847608,323.722782 C95.6617943,323.722782 97.5037805,324.395725 98.7597918,325.721982 C100.575394,327.639595 100.455744,330.204386 100.449609,330.312965 C100.431201,330.650357 100.142815,330.908002 99.8035022,330.891439 C99.4654161,330.872422 99.2070963,330.584105 99.2242767,330.246714 C99.2255039,330.225243 99.3132467,328.083112 97.859047,326.55626 C96.8447888,325.490102 95.3053006,324.949661 93.2847608,324.949661 C91.2918323,324.949661 89.8449957,325.473539 88.9847476,326.507798 C87.7256684,328.019314 88.1005696,330.146109 88.1042512,330.166966 C88.1656098,330.500678 87.9459459,330.820893 87.6127685,330.881624 C87.5747261,330.888985 87.5372974,330.892052 87.5004822,330.892052" id="Fill-56" fill="#32100D" sketch:type="MSShapeGroup"></path>
                    <path d="M101.070681,319.978345 C100.791499,319.978345 100.51109,319.883875 100.280995,319.690029 C93.1873232,313.722486 87.3183698,319.377788 87.071708,319.62071 C86.5906563,320.096126 85.8144696,320.094285 85.337713,319.615802 C84.8603428,319.136706 84.8591156,318.363772 85.3364858,317.884675 C87.9589539,315.257313 94.7875565,311.86131 101.861594,317.812903 C102.380074,318.249058 102.446955,319.022606 102.010081,319.541576 C101.767715,319.829893 101.420425,319.978345 101.070681,319.978345" id="Fill-58" fill="#32100D" sketch:type="MSShapeGroup"></path>
                    <path d="M99.3452759,328.357994 C99.1188625,328.357994 98.9010394,328.232852 98.7942754,328.015694 C98.6445603,327.711428 98.7697319,327.343978 99.0734572,327.194299 L102.382528,325.564389 C102.687481,325.41471 103.054405,325.539852 103.20412,325.843504 C103.353836,326.14777 103.228664,326.515834 102.924325,326.665514 L99.6158675,328.29481 C99.5287382,328.338364 99.4360867,328.357994 99.3452759,328.357994" id="Fill-60" fill="#32100D" sketch:type="MSShapeGroup"></path>
                    <path d="M97.9677132,326.429646 C97.8204525,326.429646 97.6725781,326.37689 97.5547696,326.268925 C97.3038127,326.041339 97.2866323,325.653031 97.5148865,325.402748 L99.899283,322.787654 C100.127537,322.537984 100.515324,322.520194 100.766281,322.74778 C101.016624,322.976593 101.034418,323.364287 100.80555,323.614571 L98.4211535,326.229665 C98.300277,326.362781 98.1339951,326.429646 97.9677132,326.429646" id="Fill-62" fill="#32100D" sketch:type="MSShapeGroup"></path>
                    <path d="M80.635678,338.866769 C80.3172267,338.663721 79.7539545,338.566184 79.164298,338.550848 C78.4371981,338.533058 77.6696016,338.643477 77.2609531,338.866769 C76.1810411,339.458125 74.6108736,343.017916 74.6108736,343.017916 L79.164298,343.017916 L83.3968166,343.017916 C83.3968166,343.017916 81.6861379,339.537259 80.635678,338.866769" id="Fill-64" fill="#C8A184" sketch:type="MSShapeGroup"></path>
                    <path d="M155.444065,303.446634 C150.408362,301.438232 144.644332,304.022041 142.57041,309.219716 L115.008111,377.041617 L115.007497,377.042231 C113.374744,381.133874 106.416675,379.471452 106.416675,379.471452 L106.416675,379.472066 C99.4395841,376.052139 92.4968545,373.707572 92.4968545,373.707572 L79.1010372,379.291101 L79.1010372,464.219997 L114.076073,464.219997 C114.076073,464.219997 111.865321,421.224004 112.103393,405.081949 C114.935708,404.216386 124.536493,401.892676 128.805827,395.438676 C140.555392,377.675914 160.808037,316.493885 160.808037,316.493885 C162.881345,311.297436 160.479768,305.455036 155.444065,303.446634" id="Fill-66" fill="#82242F" sketch:type="MSShapeGroup"></path>
                    <path d="M40.8322698,113.900307 L44.9175278,133.020612 C48.4714199,149.655258 63.5644171,160.855442 80.0250983,160.045088 C80.0263254,160.323589 80.0545504,160.605772 80.1146819,160.888567 L80.7172237,163.709777 C81.1853901,165.90037 83.3415325,167.296559 85.5326494,166.827891 L85.8308524,166.76532 L65.9230431,73.589953 C48.1511279,78.0643827 36.9715845,95.835733 40.8322698,113.900307" id="Fill-68" fill="#1476BC" sketch:type="MSShapeGroup"></path>
                    <path d="M89.2492647,161.887615 L88.6467229,159.065792 C88.6092941,158.888508 88.5565257,158.719199 88.4970078,158.552343 C105.252824,153.389021 115.583164,136.194304 111.850104,118.725993 L107.76546,99.6063019 C103.817032,81.128269 85.6327867,69.3477716 67.1491113,73.2946431 C66.7361677,73.3835919 66.3293599,73.4872632 65.9225522,73.5903211 L85.8309751,166.765075 L86.1297916,166.701277 C88.3209085,166.233223 89.7180446,164.077595 89.2492647,161.887615" id="Fill-70" fill="#3396D2" sketch:type="MSShapeGroup"></path>
                    <path d="M79.0999328,379.245338 L92.4877734,373.152654 L97.9621909,375.749345 L89.4155466,392.349025 L79.0999328,379.245338 Z" id="Fill-72" fill="#FEFEFE" sketch:type="MSShapeGroup"></path>
                    <path d="M168.720356,93.5735511 L166.740926,112.982786 C165.017976,129.871396 175.920178,145.131937 191.802247,149.404545 C191.717572,149.668324 191.658055,149.945599 191.628602,150.232076 L191.336535,153.096226 C191.110122,155.319332 192.728763,157.306877 194.953013,157.533849 L195.256738,157.564521 L204.903543,62.9733349 C186.654258,61.7801945 170.590567,75.2341556 168.720356,93.5735511" id="Fill-74" fill="#D6488C" sketch:type="MSShapeGroup"></path>
                    <path d="M199.996816,153.996142 L200.288883,151.131378 C200.307291,150.950414 200.309131,150.773129 200.303609,150.597072 C217.79941,150.825885 232.880749,137.660854 234.689602,119.925084 L236.669032,100.516462 C238.582194,81.7568607 224.921921,64.998913 206.157836,63.0855943 C205.738143,63.0426535 205.320291,63.0156622 204.902439,62.9898977 L195.254407,157.581084 L195.558746,157.611756 C197.782996,157.838115 199.769789,156.219248 199.996816,153.996142" id="Fill-76" fill="#E878AC" sketch:type="MSShapeGroup"></path>
                    <g id="Group-80">
                        <mask id="mask-2" sketch:name="Clip 79" fill="white">
                            <use xlink:href="#path-1"></use>
                        </mask>
                        <g id="Clip-79"></g>
                        <path d="M0.922465726,461.00956 C-1.37541517,465.94775 0.766614792,471.814688 5.70721212,474.11202 C10.6478095,476.409966 16.5155358,474.267834 18.8128031,469.329031 L23.8822536,458.431886 C26.180748,453.493083 24.0387181,447.626758 19.0981207,445.328813 C14.1575234,443.030867 8.28979709,445.173613 5.99191619,450.112416 L0.922465726,461.00956 Z" id="Fill-78" fill="#E9C8AD" sketch:type="MSShapeGroup" mask="url(#mask-2)"></path>
                    </g>
                    <path d="M154.838885,297.327818 L86.3712379,167.317846 L87.999696,166.460257 L152.136651,288.245842 L144.954622,211.841918 L146.786791,211.668928 L154.838885,297.327818 Z" id="Fill-81" fill="#C6C6C5" sketch:type="MSShapeGroup"></path>
                    <path d="M142.14679,309.966824 C140.152634,315.035677 142.646863,320.762137 147.71754,322.755816 C152.788218,324.749496 158.515433,322.25525 160.508975,317.186397 L164.908389,306.001549 C166.901931,300.932083 164.408316,295.206236 159.337639,293.212557 C154.266961,291.218878 148.539746,293.713124 146.54559,298.783204 L142.14679,309.966824 Z" id="Fill-83" fill="#F2D7BC" sketch:type="MSShapeGroup"></path>
                    <path d="M113.180298,151.049361 L113.180298,170.540183 C113.180298,187.499339 125.562471,201.561833 141.778945,204.19901 C141.722495,204.470151 141.690588,204.750493 141.690588,205.039423 L141.690588,207.915842 C141.690588,210.149376 143.501895,211.959024 145.73535,211.959024 L146.039688,211.959024 L146.039688,116.972168 C127.781199,117.633457 113.180298,132.633286 113.180298,151.049361" id="Fill-85" fill="#EFAE30" sketch:type="MSShapeGroup"></path>
                    <path d="M150.389463,207.915965 L150.389463,205.039546 C150.389463,204.858581 150.372897,204.68191 150.350194,204.507693 C167.76132,202.963052 181.415457,188.34969 181.415457,170.540306 L181.415457,151.049484 C181.415457,132.211975 166.140225,116.939779 147.297602,116.939779 C146.875454,116.939779 146.458216,116.956955 146.03975,116.972291 L146.03975,211.959146 L146.344089,211.959146 C148.57877,211.959146 150.389463,210.149499 150.389463,207.915965" id="Fill-87" fill="#FBCA70" sketch:type="MSShapeGroup"></path>
                    <path d="M114.076134,464.219936 L113.992687,464.438321 L114.085338,464.437707 L114.076134,464.219936 Z" id="Fill-89" fill="#1D1C1B" sketch:type="MSShapeGroup"></path>
                    <path d="M113.772041,464.440406 L113.772041,464.220181 L49.3399514,464.220181 L49.3399514,477.528757 L33.0915712,590.250156 C32.020863,597.397343 36.45157,603.985686 42.9874919,604.964123 C49.5234138,605.943173 55.6899566,600.941185 56.7600512,593.793384 L70.6080817,497.476592 C71.0848383,495.995135 72.8255828,492.652502 79.0117604,491.150801 C79.4786996,491.037315 79.9333671,490.957567 80.37699,490.904198 L78.9798539,464.717068 L113.772041,464.440406 Z" id="Fill-91" fill="#1D1C1B" sketch:type="MSShapeGroup"></path>
                    <path d="M113.992564,464.438627 L113.772286,464.440468 L113.772286,465.014647 L113.992564,464.438627 Z" id="Fill-93" fill="#1D1C1B" sketch:type="MSShapeGroup"></path>
                    <path d="M91.8366356,497.106074 L96.9030181,566.802034 C97.1736097,568.717807 98.0804904,570.40906 99.4107456,571.770896 C102.576851,576.100554 108.260502,577.673414 112.79245,575.225176 L145.23951,557.697361 C150.221218,555.006814 151.915944,548.489017 149.025338,543.141049 C146.134733,537.791854 139.752821,535.637453 134.771114,538.328 L119.378073,546.64379 L114.936321,485.53844 L114.085277,464.437953 L113.992625,464.438566 L113.772348,465.015199 L113.772348,464.440406 L78.9801607,464.717068 L80.3766832,490.904198 C86.5340223,490.158869 90.3885718,494.887876 91.8366356,497.106074" id="Fill-95" fill="#252526" sketch:type="MSShapeGroup"></path>
                    <path d="M29.909635,606.639795 C24.6499728,607.214588 19.8689079,602.957316 19.2307781,597.130251 C18.5932619,591.303187 22.3404338,586.11226 27.6007096,585.537466 L46.0389796,583.520477 C51.2986418,582.944457 56.0797067,587.202955 56.7172229,593.03002 C57.3553527,598.856471 53.6081808,604.048012 48.347905,604.622191 L29.909635,606.639795 Z" id="Fill-97" fill="#65121E" sketch:type="MSShapeGroup"></path>
                </g>
            </g>
        </g>
    </g>
</svg>