<?xml version="1.0" encoding="UTF-8" standalone="no"?>
<svg width="55px" height="55px" viewBox="0 0 55 55" version="1.1" xmlns="http://www.w3.org/2000/svg" xmlns:xlink="http://www.w3.org/1999/xlink" xmlns:sketch="http://www.bohemiancoding.com/sketch/ns">
    <!-- Generator: Sketch 3.4 (15575) - http://www.bohemiancoding.com/sketch -->
    <title>Oval 5 + Page 1</title>
    <desc>Created with Sketch.</desc>
    <defs>
        <path id="path-1" d="M0,0.266383227 L16.0171151,0.266383227 L16.0171151,33.9705882 L0,33.9705882"></path>
    </defs>
    <g id="Page-1" stroke="none" stroke-width="1" fill="none" fill-rule="evenodd" sketch:type="MSPage">
        <g id="Desktop-HD-Copy" sketch:type="MSArtboardGroup" transform="translate(-235.000000, -5723.000000)">
            <g id="Oval-5-+-Page-1" sketch:type="MSLayerGroup" transform="translate(235.000000, 5723.000000)">
                <g>
                    <circle id="Oval-5" fill="#FCECA9" sketch:type="MSShapeGroup" cx="27.5" cy="27.5" r="27.5"></circle>
                    <g id="Page-1" transform="translate(19.794118, 9.705882)">
                        <mask id="mask-2" sketch:name="Clip 2" fill="white">
                            <use xlink:href="#path-1"></use>
                        </mask>
                        <g id="Clip-2"></g>
                        <path d="M15.9653849,11.2948842 C15.8573123,12.479146 15.7550907,13.6089204 15.6504599,14.7383583 C15.5943586,15.342093 15.5200156,15.9444824 15.4807791,16.5492261 C15.4649468,16.7937471 15.3682322,16.8768237 15.131092,16.8795144 C13.9116615,16.8922954 12.6925751,16.9171848 11.4731446,16.9286204 C10.5923874,16.9366926 10.5913548,16.9303021 10.5910106,17.7832666 C10.5892897,20.6324236 10.5975501,23.4815805 10.5827503,26.3307375 C10.5772434,27.3757535 10.4936076,28.4204332 10.4894775,29.4651128 C10.4843148,30.8222547 10.5142584,32.1793965 10.5490207,33.5358656 C10.5576252,33.8685083 10.4564362,33.9727745 10.1095025,33.9700837 C8.12082916,33.955621 6.13181164,33.9549483 4.1431383,33.9704201 C3.78863267,33.9734471 3.70637359,33.8560636 3.70981539,33.5311568 C3.72323842,32.1508074 3.70637359,30.7704579 3.71188048,29.3901085 C3.71360138,28.9716985 3.77348874,28.5536248 3.76970275,28.1355511 C3.73975907,24.5508132 3.69845745,20.9660753 3.66954631,17.3813374 C3.66748123,17.0967916 3.57661765,16.9908438 3.27890175,16.9945435 C2.31829474,17.0076609 1.35768773,16.9905074 0.397424906,17.0046338 C0.11244368,17.0086699 -0.00251251564,16.9420741 -0.000103254067,16.6380205 C0.0133197747,14.970771 0.0105663329,13.3031851 0.00196182728,11.6355992 C0.000585106383,11.3786335 0.0811232791,11.2864757 0.350960576,11.2901755 C1.3112234,11.3026201 2.27217459,11.2807579 3.23209324,11.3022838 C3.58453379,11.310356 3.67402065,11.1889364 3.66954631,10.8636932 C3.65474656,9.73761867 3.63375156,8.61019875 3.67642991,7.48546957 C3.71979662,6.33383299 3.69019712,5.1717698 4.09529725,4.05578553 C4.76472778,2.21161983 6.11184919,1.0983263 8.01241239,0.641909581 C8.88146746,0.433040914 9.79079161,0.32574767 10.6863486,0.295140507 C12.3101909,0.240316686 13.9371308,0.283032178 15.5630382,0.270587507 C15.8566239,0.26823311 15.9540269,0.354336779 15.9529944,0.647627402 C15.9471433,2.11609857 15.9602222,3.58490609 15.9712359,5.0537136 C15.9729568,5.28478087 15.9925751,5.51652082 16.0139143,5.7469154 C16.036286,5.98840929 15.9395713,6.08123981 15.6859105,6.07821273 C14.7707353,6.06845879 13.8552159,6.06677708 12.9396965,6.07888541 C12.5118805,6.08426689 12.0792459,6.09772059 11.6579693,6.16330737 C11.0071245,6.2642101 10.7056227,6.55548267 10.6770557,7.19554237 C10.6195776,8.47431639 10.6188892,9.75510847 10.5899781,11.0352279 C10.5837829,11.3049745 10.7637891,11.2955569 10.9530882,11.2952206 C12.4898529,11.2945479 14.0269618,11.2948842 15.5637265,11.2948842 L15.9653849,11.2948842" id="Fill-1" fill="#6FBCBE" sketch:type="MSShapeGroup" mask="url(#mask-2)"></path>
                    </g>
                </g>
            </g>
        </g>
    </g>
</svg>