<?xml version="1.0" encoding="UTF-8" standalone="no"?>
<svg width="128px" height="59px" viewBox="0 0 128 59" version="1.1" xmlns="http://www.w3.org/2000/svg" xmlns:xlink="http://www.w3.org/1999/xlink" xmlns:sketch="http://www.bohemiancoding.com/sketch/ns">
    <!-- Generator: Sketch 3.4 (15575) - http://www.bohemiancoding.com/sketch -->
    <title>Page 1</title>
    <desc>Created with Sketch.</desc>
    <defs>
        <path id="path-1" d="M0,0.122302083 L161.175251,0.122302083 L161.175251,39.3333333 L0,39.3333333"></path>
        <path id="path-3" d="M0,19.7889688 L161.175251,19.7889688 L161.175251,59 L0,59"></path>
    </defs>
    <g id="Page-1" stroke="none" stroke-width="1" fill="none" fill-rule="evenodd" sketch:type="MSPage">
        <g id="Desktop-HD-Copy" sketch:type="MSArtboardGroup" transform="translate(0.000000, -2547.000000)">
            <g id="Page-1" sketch:type="MSLayerGroup" transform="translate(26.500000, 2576.500000) scale(-1, 1) translate(-26.500000, -2576.500000) translate(-75.000000, 2547.000000)">
                <g transform="translate(40.277946, 0.000000)">
                    <mask id="mask-2" sketch:name="Clip 2" fill="white">
                        <use xlink:href="#path-1"></use>
                    </mask>
                    <g id="Clip-2"></g>
                    <path d="M161.174946,19.7278792 C161.174946,30.5556083 152.459042,39.3330875 141.707272,39.3330875 L19.4679789,39.3330875 C8.71620846,39.3330875 -0.000305135952,30.5556083 -0.000305135952,19.7278792 C-0.000305135952,8.90015 8.71620846,0.122670833 19.4679789,0.122670833 L141.707272,0.122670833 C152.459042,0.122670833 161.174946,8.90015 161.174946,19.7278792" id="Fill-1" fill="#5F4D3D" sketch:type="MSShapeGroup" mask="url(#mask-2)"></path>
                </g>
                <mask id="mask-4" sketch:name="Clip 2" fill="white">
                    <use xlink:href="#path-3"></use>
                </mask>
                <g id="Clip-2"></g>
                <path d="M161.174946,39.3945458 C161.174946,50.222275 152.459042,58.9997542 141.707272,58.9997542 L19.4679789,58.9997542 C8.71620846,58.9997542 -0.000305135952,50.222275 -0.000305135952,39.3945458 C-0.000305135952,28.5668167 8.71620846,19.7893375 19.4679789,19.7893375 L141.707272,19.7893375 C152.459042,19.7893375 161.174946,28.5668167 161.174946,39.3945458" id="Fill-1" fill="#382E24" sketch:type="MSShapeGroup" mask="url(#mask-4)"></path>
            </g>
        </g>
    </g>
</svg>