<?xml version="1.0" encoding="UTF-8" standalone="no"?>
<svg width="225px" height="93px" viewBox="0 0 225 93" version="1.1" xmlns="http://www.w3.org/2000/svg" xmlns:xlink="http://www.w3.org/1999/xlink" xmlns:sketch="http://www.bohemiancoding.com/sketch/ns">
    <!-- Generator: Sketch 3.4 (15575) - http://www.bohemiancoding.com/sketch -->
    <title>Page 1</title>
    <desc>Created with Sketch.</desc>
    <defs>
        <path id="path-1" d="M0,0 L225,0 L225,93 L0,93"></path>
    </defs>
    <g id="Page-1" stroke="none" stroke-width="1" fill="none" fill-rule="evenodd" sketch:type="MSPage">
        <g id="Desktop-HD-Copy" sketch:type="MSArtboardGroup" transform="translate(-291.000000, -1925.000000)">
            <g id="Page-1" sketch:type="MSLayerGroup" transform="translate(291.000000, 1925.000000)">
                <g id="Group-3">
                    <mask id="mask-2" sketch:name="Clip 2" fill="white">
                        <use xlink:href="#path-1"></use>
                    </mask>
                    <g id="Clip-2"></g>
                    <path d="M193.486597,27.9 L150.072362,27.9 C150.648319,25.7117647 150.717757,23.8293353 150.717757,21.6826765 L150.717757,21.4485353 C150.717757,9.579 141.494372,0 129.815903,0 L112.500054,0 L112.500054,93 L139.657769,93 L173.031513,93 L193.486597,93 C211.025831,93 225.000054,78.5062235 225.000054,60.6803118 L225.000054,60.1332529 C225.000054,42.3073412 211.025831,27.9 193.486597,27.9" id="Fill-1" fill="#FEFEFE" sketch:type="MSShapeGroup" mask="url(#mask-2)"></path>
                </g>
                <path d="M94.0582356,0 C82.3797667,0 72.6676256,9.579 72.6676256,21.4485353 C72.6676256,21.7346471 72.9157715,21.8823529 72.9157715,21.8823529 L55.3022548,21.8823529 C43.6237859,21.8823529 33.9116447,31.4613529 33.9116447,43.3308882 C33.9116447,45.7116882 34.4698385,47.5941176 35.0463337,49.7823529 L21.3907715,49.7823529 C9.71230263,49.7823529 0.000161483254,59.3613529 0.000161483254,71.2308882 C0.000161483254,83.3345647 9.71230263,93 21.3907715,93 L47.074683,93 L57.1480084,93 L112.500161,93 L112.500161,0 L94.0582356,0 Z" id="Fill-4" fill-opacity="0.5" fill="#FFFFFF" sketch:type="MSShapeGroup"></path>
            </g>
        </g>
    </g>
</svg>