<?xml version="1.0" encoding="UTF-8" standalone="no"?>
<svg width="154px" height="156px" viewBox="0 0 154 156" version="1.1" xmlns="http://www.w3.org/2000/svg" xmlns:xlink="http://www.w3.org/1999/xlink" xmlns:sketch="http://www.bohemiancoding.com/sketch/ns">
    <!-- Generator: Sketch 3.4 (15575) - http://www.bohemiancoding.com/sketch -->
    <title>Page 1</title>
    <desc>Created with Sketch.</desc>
    <defs></defs>
    <g id="Page-1" stroke="none" stroke-width="1" fill="none" fill-rule="evenodd" sketch:type="MSPage">
        <g id="Desktop-HD-Copy" sketch:type="MSArtboardGroup" transform="translate(-1226.000000, -3876.000000)">
            <g id="Page-1" sketch:type="MSLayerGroup" transform="translate(1303.484669, 3955.130091) rotate(42.000000) translate(-1303.484669, -3955.130091) translate(1260.235791, 3866.160970)">
                <path d="M57.8196073,177.48199 C56.6837552,177.48199 55.5583739,176.983306 54.7940069,176.025177 C53.4601204,174.352102 53.7319055,171.91161 55.4013122,170.574336 C55.4350008,170.546961 59.1607778,167.531136 62.8032439,163.055761 C65.9590462,159.178988 69.7203329,153.368164 69.7203329,147.701972 C69.7203329,141.806741 66.9141635,137.269316 63.6645794,132.015575 C60.4805515,126.867229 57.1877185,121.543682 56.340951,114.463565 C55.2406084,105.267807 58.8156973,98.2009218 62.2733313,91.3671808 C64.3520089,87.2595449 66.5003401,83.0118397 67.7286082,78.1659883 C70.7246173,66.3394827 62.363471,50.1899904 62.2792495,50.0284773 C61.2854359,48.1336631 62.0111065,45.7885283 63.9003996,44.7916179 C65.7906032,43.793795 68.1278636,44.518323 69.1253193,46.4108559 C69.528672,47.1769029 78.9623905,65.3402911 75.2293294,80.0749462 C73.7911904,85.7534574 71.4452802,90.3903455 69.1758522,94.8748454 C65.971338,101.208534 63.203865,106.678538 64.0251385,113.540111 C64.6679534,118.916127 67.3757884,123.29432 70.2425062,127.929383 C73.7907352,133.665838 77.4596058,139.598026 77.4596058,147.701972 C77.4596058,162.662015 60.9362581,176.069434 60.2328947,176.632905 C59.5195159,177.204589 58.6663748,177.48199 57.8196073,177.48199" id="Fill-1" fill="#FAD2C9" sketch:type="MSShapeGroup"></path>
                <path d="M18.1709479,174.116037 C17.2030835,174.116037 16.2343086,173.754229 15.4835992,173.026051 C14.8362317,172.398705 -0.352319019,157.489761 1.05531815,142.596331 C1.81740891,134.528428 6.02802864,128.969455 10.0997967,123.593895 C13.3903535,119.250377 16.4978992,115.147304 17.6437668,109.856607 C19.1069447,103.10271 16.8661975,97.3954547 14.2717201,90.7871021 C12.4343256,86.1082389 10.5354722,81.2701437 9.63726134,75.4812196 C7.30728493,60.459582 18.4081338,43.2684666 18.8820505,42.5443948 C20.0534122,40.7522374 22.4507658,40.251729 24.2394484,41.4261214 C26.0263099,42.5996013 26.5261759,45.0026801 25.3557247,46.793925 C25.2068575,47.0234197 15.4194087,62.263602 17.2850288,74.2899459 C18.0507615,79.2297852 19.7911874,83.6618162 21.4733412,87.9473903 C24.2726817,95.077695 27.167625,102.450726 25.2068575,111.501851 C23.6981545,118.470186 19.9191131,123.458845 16.2648105,128.283252 C12.5353914,133.206666 9.31494338,137.458478 8.75999199,143.327702 C8.22689266,148.968345 11.4250334,155.108583 14.2016114,159.266406 C17.4065809,164.066176 20.8328025,167.42054 20.8669464,167.453847 C22.3984119,168.944878 22.4371083,171.399513 20.9507126,172.93617 C20.1913534,173.721379 19.1820611,174.116037 18.1709479,174.116037" id="Fill-3" fill="#FAD2C9" sketch:type="MSShapeGroup"></path>
                <path d="M34.3812648,176.299476 C33.280467,176.299476 32.1869533,175.831362 31.4212205,174.921595 C30.0436299,173.284107 30.2512245,170.837685 31.8851216,169.45661 C31.9178997,169.428322 35.5640078,166.315316 39.087198,161.745497 C42.1396583,157.786599 45.74707,151.878593 45.5977475,146.214682 C45.4429621,140.321276 42.5179721,135.859589 39.1318126,130.693448 C35.8134855,125.630877 32.3818008,120.396299 31.3492908,113.34082 C30.0081203,104.177457 33.3961008,97.0188644 36.6725448,90.0961543 C38.6419621,85.9346807 40.6787567,81.631769 41.7781887,76.7553487 C44.4732767,64.8042863 35.6819179,48.9331077 35.5926886,48.774332 C34.5456105,46.906893 35.2070907,44.5425957 37.0704345,43.4932163 C38.933323,42.4438369 41.2924355,43.1072272 42.3395136,44.9742099 C42.7628974,45.7293068 52.6709877,63.637194 49.3271666,78.4653808 C48.03835,84.1799359 45.8149024,88.8775054 43.6652055,93.4199494 C40.6282238,99.8362199 38.0055208,105.377399 39.0066185,112.215246 C39.7905613,117.5721 42.6126644,121.876837 45.600479,126.434793 C49.2980305,132.075435 53.1212313,137.908616 53.3342889,146.010281 C53.7280814,160.96485 37.5625612,174.804339 36.8742212,175.38606 C36.1480953,175.999719 35.2626314,176.299476 34.3812648,176.299476" id="Fill-5" fill="#FAD2C9" sketch:type="MSShapeGroup"></path>
                <path d="M27.3155362,56.890004 C27.3155362,62.4334646 22.6273578,66.9275458 16.8442999,66.9275458 C11.0616973,66.9275458 6.37351889,62.4334646 6.37351889,56.890004 C6.37351889,51.3465434 11.0616973,46.8524622 16.8442999,46.8524622 C22.6273578,46.8524622 27.3155362,51.3465434 27.3155362,56.890004" id="Fill-7" fill="#E49589" sketch:type="MSShapeGroup"></path>
                <path d="M55.6633548,56.890004 C55.6633548,62.4334646 50.9751764,66.9275458 45.1921186,66.9275458 C39.4095159,66.9275458 34.7213375,62.4334646 34.7213375,56.890004 C34.7213375,51.3465434 39.4095159,46.8524622 45.1921186,46.8524622 C50.9751764,46.8524622 55.6633548,51.3465434 55.6633548,56.890004" id="Fill-9" fill="#E49589" sketch:type="MSShapeGroup"></path>
                <path d="M81.3388481,56.890004 C81.3388481,62.4334646 76.6506697,66.9275458 70.8676118,66.9275458 C65.0850091,66.9275458 60.3968307,62.4334646 60.3968307,56.890004 C60.3968307,51.3465434 65.0850091,46.8524622 70.8676118,46.8524622 C76.6506697,46.8524622 81.3388481,51.3465434 81.3388481,56.890004" id="Fill-11" fill="#E49589" sketch:type="MSShapeGroup"></path>
                <path d="M86.4977564,34.4576949 C86.4977564,15.4329031 67.1345507,0.0106762945 43.2493334,0.0106762945 L43.2493334,59.7796754 L72.5661546,59.7796754 L79.2137348,59.7796754 C83.2363357,59.7796754 86.4977564,56.5110868 86.4977564,52.479645 L86.4977564,35.1420727 C86.4977564,35.0868662 86.4904723,35.0330285 86.4895618,34.9782783 C86.4922933,34.8049026 86.4977564,34.6315268 86.4977564,34.4576949" id="Fill-13" fill="#FAD2C9" sketch:type="MSShapeGroup"></path>
                <path d="M43.2488782,0.0106762945 C19.3632056,0.0106762945 0,15.4329031 0,34.4576949 C0,34.6315268 0.00500776484,34.8049026 0.00819452429,34.9782783 C0.00728402159,35.0330285 0,35.0868662 0,35.1420727 L0,52.479645 C0,56.5110868 3.26096541,59.7796754 7.28402159,59.7796754 L13.9316018,59.7796754 L43.2493334,59.7796754 L43.2493334,0.0106762945 L43.2488782,0.0106762945 Z" id="Fill-15" fill="#F3C0B8" sketch:type="MSShapeGroup"></path>
                <path d="M72.660164,21.5661605 C74.9141134,26.6291879 73.6262073,32.1256545 69.7843412,33.8434429 C65.9420198,35.5612313 61.0002664,32.8497263 58.7467722,27.7871552 C56.4928228,22.7241278 57.7807289,17.2276612 61.6230503,15.5098728 C65.4649164,13.7920844 70.407125,16.5035894 72.660164,21.5661605" id="Fill-17" fill="#E49589" sketch:type="MSShapeGroup"></path>
                <path d="M50.8667811,24.7224655 C50.8335478,30.2663824 47.3959448,34.739476 43.1889671,34.7139259 C38.9819894,34.6883758 35.5981061,30.1737633 35.6317947,24.6307589 C35.665028,19.0863858 39.102631,14.6137484 43.3091535,14.6388423 C47.5170417,14.6643924 50.9004697,19.1790049 50.8667811,24.7224655" id="Fill-19" fill="#E49589" sketch:type="MSShapeGroup"></path>
                <path d="M27.5618272,25.9348637 C24.8867703,30.7875589 19.733325,33.0679059 16.0503416,31.0293725 C12.3682687,28.9899265 11.5510925,23.4031219 14.2261494,18.5513392 C16.9012063,13.698644 22.0546516,11.418297 25.7371798,13.4568305 C29.4201632,15.4962765 30.2368841,21.083081 27.5618272,25.9348637" id="Fill-21" fill="#E49589" sketch:type="MSShapeGroup"></path>
            </g>
        </g>
    </g>
</svg>