<?xml version="1.0" encoding="UTF-8" standalone="no"?>
<svg width="80px" height="82px" viewBox="0 0 80 82" version="1.1" xmlns="http://www.w3.org/2000/svg" xmlns:xlink="http://www.w3.org/1999/xlink" xmlns:sketch="http://www.bohemiancoding.com/sketch/ns">
    <!-- Generator: Sketch 3.4 (15575) - http://www.bohemiancoding.com/sketch -->
    <title>Page 1</title>
    <desc>Created with Sketch.</desc>
    <defs></defs>
    <g id="Page-1" stroke="none" stroke-width="1" fill="none" fill-rule="evenodd" sketch:type="MSPage">
        <g id="Desktop-HD-Copy" sketch:type="MSArtboardGroup" transform="translate(-489.000000, -3594.000000)">
            <g id="Page-1" sketch:type="MSLayerGroup" transform="translate(529.345859, 3635.361959) rotate(42.000000) translate(-529.345859, -3635.361959) translate(506.920690, 3589.230183)">
                <path d="M29.9803027,92.0269787 C29.3913469,92.0269787 28.8078204,91.7684042 28.4114851,91.2716005 C27.7198457,90.4040865 27.8607702,89.1386564 28.7263817,88.4452603 C28.7438497,88.4310659 30.675719,86.867317 32.5643903,84.5467704 C34.2007195,82.5366078 36.151001,79.5236114 36.151001,76.5856087 C36.151001,73.5288463 34.6959616,71.1761257 33.0110053,68.4519852 C31.3600407,65.7824931 29.6526592,63.0221569 29.213598,59.3510138 C28.6430545,54.5828808 30.4967897,50.9185983 32.289623,47.3752048 C33.3674474,45.2453362 34.4813882,43.0428396 35.118263,40.5301955 C36.671737,34.3979813 32.3363618,26.024236 32.2926917,25.9404891 C31.7773849,24.9580005 32.1536556,23.7420142 33.1332814,23.2251018 C34.1133793,22.7077161 35.3252827,23.0833944 35.8424779,24.0647001 C36.0516221,24.4619065 40.9431416,33.879886 39.0074954,41.5200178 C38.2617995,44.464408 37.0454112,46.8687015 35.8686799,49.1939796 C34.2070929,52.4780889 32.7721182,55.3143651 33.1979603,58.8721896 C33.5312692,61.6597318 34.9353208,63.9298883 36.4217554,66.3332355 C38.2615635,69.3076705 40.163926,72.3835954 40.163926,76.5856087 C40.163926,84.3426077 31.5963312,91.2945481 31.2316271,91.586716 C30.8617299,91.8831422 30.4193639,92.0269787 29.9803027,92.0269787" id="Fill-1" fill="#FAD2C9" sketch:type="MSShapeGroup"></path>
                <path d="M9.4218993,90.2816835 C8.92004762,90.2816835 8.41772384,90.094081 8.02847012,89.7165101 C7.69280075,89.391222 -0.182682507,81.6607192 0.547197726,73.9382599 C0.942352807,69.7549358 3.12562004,66.8725278 5.23689067,64.0852223 C6.94309194,61.8330453 8.55439934,59.7055424 9.14854829,56.9622395 C9.90722716,53.4602462 8.74536736,50.500952 7.40009328,47.0744256 C6.44737768,44.6483673 5.46279474,42.139745 4.99705939,39.1381041 C3.78893293,31.3491677 9.54488364,22.4353258 9.79061628,22.0598841 C10.3979843,21.1306245 11.6410468,20.8711037 12.5685046,21.4800431 C13.4950181,22.0885094 13.7542059,23.3345405 13.14731,24.2633269 C13.0701202,24.3823233 7.99518645,32.2845782 8.96253742,38.5204115 C9.35958093,41.0817896 10.2620169,43.3798618 11.134238,45.6019939 C12.5857365,49.2991601 14.0868065,53.1221831 13.0701202,57.8153225 C12.2878359,61.4285051 10.3283482,64.0151966 8.43353948,66.5167217 C6.49978176,69.0695832 4.82993287,71.274209 4.54218255,74.3174867 C4.26576283,77.2422413 5.92404506,80.4260436 7.3637409,82.5819353 C9.02556394,85.0706854 10.8021094,86.8099717 10.8198135,86.8272415 C11.6139005,87.6003628 11.6339652,88.8731266 10.8632475,89.6699052 C10.4695088,90.0770477 9.94617614,90.2816835 9.4218993,90.2816835" id="Fill-3" fill="#FAD2C9" sketch:type="MSShapeGroup"></path>
                <path d="M17.8271831,91.4138283 C17.2564035,91.4138283 16.6894008,91.1711042 16.2923573,90.6993772 C15.5780567,89.8503159 15.6856975,88.5818104 16.5328967,87.8657033 C16.5498927,87.8510357 18.4404524,86.2368967 20.2672775,83.8673795 C21.8500223,81.8146337 23.7205174,78.7512472 23.6430916,75.8144274 C23.5628331,72.7586112 22.0461835,70.4451618 20.2904108,67.7664434 C18.5698102,65.141427 16.7904321,62.4272226 16.2550607,58.7688545 C15.5596444,54.0175181 17.3163613,50.3056844 19.0152449,46.7161591 C20.0364163,44.5583749 21.0925237,42.3272529 21.6625951,39.7987585 C23.0600372,33.6019598 18.5015905,25.3725241 18.4553238,25.2901966 C17.9123987,24.3219025 18.2553858,23.0959801 19.2215565,22.5518617 C20.1874911,22.0077433 21.4107251,22.3517208 21.9536502,23.3197784 C22.1731808,23.711307 27.310669,32.9968055 25.5768493,40.6854348 C24.9085793,43.6485143 23.7556896,46.0842721 22.6410406,48.439595 C21.0663217,51.766524 19.7064122,54.6397056 20.2254959,58.1852283 C20.6319816,60.9628344 22.0952828,63.1949026 23.6445079,65.558269 C25.5617418,68.4830236 27.5441268,71.5076121 27.6546002,75.7084426 C27.8587873,83.4626027 19.4767313,90.6385779 19.119817,90.9402087 C18.7433102,91.2583997 18.2841844,91.4138283 17.8271831,91.4138283" id="Fill-5" fill="#FAD2C9" sketch:type="MSShapeGroup"></path>
                <path d="M14.1635006,29.4982899 C14.1635006,32.3726544 11.7326123,34.7029005 8.73401314,34.7029005 C5.73565004,34.7029005 3.30476173,32.3726544 3.30476173,29.4982899 C3.30476173,26.6239254 5.73565004,24.2936793 8.73401314,24.2936793 C11.7326123,24.2936793 14.1635006,26.6239254 14.1635006,29.4982899" id="Fill-7" fill="#E49589" sketch:type="MSShapeGroup"></path>
                <path d="M28.8622546,29.4982899 C28.8622546,32.3726544 26.4313663,34.7029005 23.4327671,34.7029005 C20.434404,34.7029005 18.0035157,32.3726544 18.0035157,29.4982899 C18.0035157,26.6239254 20.434404,24.2936793 23.4327671,24.2936793 C26.4313663,24.2936793 28.8622546,26.6239254 28.8622546,29.4982899" id="Fill-9" fill="#E49589" sketch:type="MSShapeGroup"></path>
                <path d="M42.1753692,29.4982899 C42.1753692,32.3726544 39.7444809,34.7029005 36.7458817,34.7029005 C33.7475186,34.7029005 31.3166303,32.3726544 31.3166303,29.4982899 C31.3166303,26.6239254 33.7475186,24.2936793 36.7458817,24.2936793 C39.7444809,24.2936793 42.1753692,26.6239254 42.1753692,29.4982899" id="Fill-11" fill="#E49589" sketch:type="MSShapeGroup"></path>
                <path d="M44.8503378,17.8668132 C44.8503378,8.00218346 34.8102356,0.00553581312 22.4254049,0.00553581312 L22.4254049,30.9966263 L37.6266007,30.9966263 L41.0734672,30.9966263 C43.159244,30.9966263 44.8503378,29.3018159 44.8503378,27.211455 L44.8503378,18.221673 C44.8503378,18.1930476 44.8465609,18.165132 44.8460888,18.1367432 C44.8475051,18.0468454 44.8503378,17.9569476 44.8503378,17.8668132" id="Fill-13" fill="#FAD2C9" sketch:type="MSShapeGroup"></path>
                <path d="M22.4251689,0.00553581312 C10.0401022,0.00553581312 0,8.00218346 0,17.8668132 C0,17.9569476 0.0025965985,18.0468454 0.00424897937,18.1367432 C0.00377687055,18.165132 0,18.1930476 0,18.221673 L0,27.211455 C0,29.3018159 1.69085773,30.9966263 3.77687055,30.9966263 L7.22373703,30.9966263 L22.4254049,30.9966263 L22.4254049,0.00553581312 L22.4251689,0.00553581312 Z" id="Fill-15" fill="#F3C0B8" sketch:type="MSShapeGroup"></path>
                <path d="M37.675346,11.1823662 C38.8440513,13.8076191 38.1762534,16.6576165 36.1841903,17.5483147 C34.191891,18.4390128 31.6295204,17.0330582 30.4610511,14.4080419 C29.2923457,11.782789 29.9601436,8.9327915 31.9524429,8.04209336 C33.944506,7.15139523 36.5071127,8.55734981 37.675346,11.1823662" id="Fill-17" fill="#E49589" sketch:type="MSShapeGroup"></path>
                <path d="M26.3751617,12.818956 C26.3579298,15.693557 24.5754829,18.0129208 22.3941041,17.9996727 C20.2127253,17.9864246 18.4581329,15.6455327 18.4756009,12.7714047 C18.4928329,9.8965671 20.2752797,7.57743992 22.4564225,7.59045145 C24.6382734,7.60369955 26.3926298,9.94459146 26.3751617,12.818956" id="Fill-19" fill="#E49589" sketch:type="MSShapeGroup"></path>
                <path d="M14.291206,13.447602 C12.9041503,15.9637946 10.2320144,17.1461875 8.32233425,16.0891784 C6.41312619,15.0316962 5.98940853,12.1348572 7.37646423,9.6191377 C8.76351994,7.10294503 11.4356559,5.92055213 13.3451,6.97756123 C15.2547801,8.03504348 15.6782618,10.9318824 14.291206,13.447602" id="Fill-21" fill="#E49589" sketch:type="MSShapeGroup"></path>
            </g>
        </g>
    </g>
</svg>