<?xml version="1.0" encoding="utf-8"?>
<!-- Generator: Adobe Illustrator 16.0.0, SVG Export Plug-In . SVG Version: 6.00 Build 0)  -->
<!DOCTYPE svg PUBLIC "-//W3C//DTD SVG 1.1//EN" "http://www.w3.org/Graphics/SVG/1.1/DTD/svg11.dtd">
<svg version="1.1" id="Capa_1" xmlns:sketch="http://www.bohemiancoding.com/sketch/ns"
	 xmlns="http://www.w3.org/2000/svg" xmlns:xlink="http://www.w3.org/1999/xlink" x="0px" y="0px" width="57px" height="57px"
	 viewBox="0 0 57 57" enable-background="new 0 0 57 57" xml:space="preserve">
<title>Oval 5 + Page 1</title>
<desc>Created with Sketch.</desc>
<circle id="Oval-5" sketch:type="MSShapeGroup" fill="none" stroke="#FCECA9" stroke-width="1.3832" cx="28.5" cy="28.5" r="27.5">
</circle>
<path fill-rule="evenodd" clip-rule="evenodd" fill="#FBEBA8" d="M46.117,28.157c-0.291,0.362-0.591,0.717-0.873,1.085
	c-0.904,1.184-1.801,2.371-2.701,3.557c-0.975,1.283-1.949,2.565-2.924,3.848c-0.845,1.111-1.691,2.221-2.531,3.334
	c-0.114,0.152-0.245,0.199-0.43,0.199c-5.337-0.004-10.674-0.004-16.012,0.003c-0.23,0.001-0.358-0.098-0.488-0.26
	c-1.414-1.76-2.833-3.515-4.247-5.272c-1.186-1.475-2.367-2.951-3.552-4.426c-0.486-0.605-0.976-1.209-1.477-1.829
	c2.757-3.853,5.512-7.703,8.284-11.578c3.105,4.171,6.184,8.308,9.284,12.473c3.236-4.17,6.443-8.303,9.678-12.469
	c0.31,0.431,0.604,0.836,0.895,1.245c1.002,1.413,2.004,2.827,3.005,4.241c0.962,1.361,1.92,2.725,2.885,4.083
	c0.395,0.556,0.803,1.103,1.204,1.653C46.117,28.082,46.117,28.119,46.117,28.157z"/>
</svg>
