<?xml version="1.0" encoding="utf-8"?>
<!-- Generator: Adobe Illustrator 16.0.0, SVG Export Plug-In . SVG Version: 6.00 Build 0)  -->
<!DOCTYPE svg PUBLIC "-//W3C//DTD SVG 1.1//EN" "http://www.w3.org/Graphics/SVG/1.1/DTD/svg11.dtd">
<svg version="1.1" id="Capa_1" xmlns:sketch="http://www.bohemiancoding.com/sketch/ns"
	 xmlns="http://www.w3.org/2000/svg" xmlns:xlink="http://www.w3.org/1999/xlink" x="0px" y="0px" width="58.25px" height="59px"
	 viewBox="-1.75 -2 58.25 59" enable-background="new -1.75 -2 58.25 59" xml:space="preserve">
<title>Oval 5 + Page 1</title>
<desc>Created with Sketch.</desc>
<circle id="Oval-5_1_" sketch:type="MSShapeGroup" fill="none" stroke="#FCECA9" stroke-width="1.3832" cx="250.46" cy="73.102" r="27.5">
</circle>
<path fill="#FBEBA8" d="M205.617-0.345c-0.291,0.363-0.592,0.718-0.873,1.086c-0.904,1.184-1.801,2.371-2.701,3.557
	c-0.975,1.283-1.949,2.564-2.924,3.848c-0.846,1.111-1.691,2.222-2.531,3.334c-0.113,0.152-0.245,0.199-0.43,0.199
	c-5.338-0.004-10.674-0.004-16.012,0.004c-0.23,0-0.358-0.099-0.488-0.261c-1.414-1.76-2.833-3.515-4.247-5.272
	c-1.187-1.475-2.367-2.95-3.552-4.426c-0.486-0.604-0.977-1.209-1.478-1.828c2.757-3.854,5.513-7.703,8.284-11.578
	c3.105,4.17,6.184,8.308,9.284,12.473c3.235-4.17,6.442-8.303,9.678-12.469c0.31,0.431,0.604,0.836,0.896,1.244
	c1.002,1.414,2.004,2.828,3.004,4.242c0.963,1.36,1.92,2.725,2.886,4.082c0.396,0.557,0.803,1.104,1.204,1.653
	C205.617-0.419,205.617-0.382,205.617-0.345z"/>
<path fill-rule="evenodd" clip-rule="evenodd" fill="#6FBCBE" d="M174.756,66.106c-0.285,0.354-0.58,0.702-0.855,1.064
	c-0.886,1.158-1.765,2.321-2.646,3.483c-0.954,1.256-1.909,2.512-2.863,3.768c-0.828,1.088-1.656,2.175-2.479,3.267
	c-0.113,0.148-0.24,0.195-0.422,0.195c-5.228-0.004-10.455-0.005-15.684,0.002c-0.226,0-0.351-0.096-0.479-0.255
	c-1.384-1.723-2.773-3.441-4.159-5.164c-1.161-1.444-2.318-2.891-3.479-4.335c-0.476-0.593-0.956-1.184-1.446-1.791
	c2.701-3.774,5.398-7.545,8.115-11.341c3.041,4.086,6.056,8.138,9.093,12.217c3.17-4.084,6.312-8.132,9.479-12.213
	c0.303,0.422,0.592,0.819,0.875,1.22c0.982,1.384,1.963,2.769,2.943,4.153c0.942,1.333,1.881,2.669,2.826,4
	c0.387,0.544,0.786,1.079,1.18,1.619C174.756,66.033,174.756,66.069,174.756,66.106z"/>
<path fill-rule="evenodd" clip-rule="evenodd" fill="#6FBCBE" d="M174.756,68.106c-0.285,0.354-0.58,0.702-0.855,1.064
	c-0.886,1.158-1.765,2.321-2.646,3.483c-0.954,1.256-1.909,2.512-2.863,3.768c-0.828,1.088-1.656,2.175-2.479,3.267
	c-0.113,0.148-0.24,0.195-0.422,0.195c-5.228-0.004-10.455-0.005-15.684,0.002c-0.226,0-0.351-0.096-0.479-0.255
	c-1.384-1.723-2.773-3.441-4.159-5.164c-1.161-1.444-2.318-2.891-3.479-4.335c-0.476-0.593-0.956-1.184-1.446-1.791
	c2.701-3.774,5.398-7.545,8.115-11.341c3.041,4.086,6.056,8.138,9.093,12.217c3.17-4.084,6.312-8.132,9.479-12.213
	c0.303,0.422,0.592,0.819,0.875,1.22c0.982,1.384,1.963,2.769,2.943,4.153c0.942,1.333,1.881,2.669,2.826,4
	c0.387,0.544,0.786,1.079,1.18,1.619C174.756,68.033,174.756,68.069,174.756,68.106z"/>
<path fill="#FBEBA8" d="M134.617,133.1c-0.291,0.363-0.592,0.718-0.873,1.086c-0.904,1.184-1.801,2.371-2.701,3.557
	c-0.975,1.283-1.949,2.564-2.924,3.848c-0.846,1.111-1.691,2.222-2.531,3.334c-0.113,0.152-0.245,0.199-0.43,0.199
	c-5.338-0.004-10.674-0.004-16.012,0.004c-0.23,0-0.358-0.099-0.488-0.261c-1.414-1.76-2.833-3.515-4.247-5.272
	c-1.187-1.475-2.367-2.95-3.552-4.426c-0.486-0.604-0.977-1.209-1.478-1.828c2.757-3.854,5.513-7.703,8.284-11.578
	c3.105,4.17,6.184,8.308,9.284,12.473c3.235-4.17,6.442-8.303,9.678-12.469c0.31,0.431,0.604,0.836,0.896,1.244
	c1.002,1.414,2.004,2.828,3.004,4.242c0.963,1.36,1.92,2.725,2.886,4.082c0.396,0.557,0.803,1.104,1.204,1.653
	C134.617,133.025,134.617,133.062,134.617,133.1z"/>
<circle id="Oval-5" sketch:type="MSShapeGroup" fill="#FCECA9" cx="27.5" cy="27.5" r="27.5">
</circle>
<path fill="#6FBCBE" d="M45.117,27.156c-0.291,0.363-0.592,0.718-0.873,1.086c-0.904,1.184-1.801,2.371-2.701,3.557
	c-0.975,1.283-1.949,2.564-2.924,3.848c-0.846,1.111-1.691,2.222-2.531,3.334c-0.113,0.152-0.245,0.199-0.43,0.199
	c-5.338-0.004-10.674-0.004-16.012,0.004c-0.23,0-0.358-0.099-0.488-0.261c-1.414-1.76-2.833-3.515-4.247-5.272
	c-1.186-1.475-2.367-2.95-3.552-4.426c-0.486-0.604-0.976-1.209-1.477-1.828c2.757-3.854,5.512-7.704,8.284-11.579
	c3.105,4.171,6.184,8.308,9.284,12.473c3.235-4.17,6.442-8.303,9.678-12.469c0.31,0.431,0.604,0.836,0.896,1.245
	c1.002,1.413,2.004,2.827,3.004,4.241c0.963,1.361,1.92,2.725,2.886,4.083c0.396,0.556,0.803,1.103,1.204,1.653
	C45.117,27.082,45.117,27.119,45.117,27.156z"/>
</svg>
