<?xml version="1.0" encoding="UTF-8" standalone="no"?>
<svg width="131px" height="69px" viewBox="0 0 131 69" version="1.1" xmlns="http://www.w3.org/2000/svg" xmlns:xlink="http://www.w3.org/1999/xlink" xmlns:sketch="http://www.bohemiancoding.com/sketch/ns">
    <!-- Generator: Sketch 3.4 (15575) - http://www.bohemiancoding.com/sketch -->
    <title>Page 1</title>
    <desc>Created with Sketch.</desc>
    <defs>
        <path id="path-1" d="M0,0 L131,0 L131,69 L0,69"></path>
    </defs>
    <g id="Page-1" stroke="none" stroke-width="1" fill="none" fill-rule="evenodd" sketch:type="MSPage">
        <g id="Desktop-HD-Copy" sketch:type="MSArtboardGroup" transform="translate(-1020.000000, -446.000000)">
            <g id="Page-1" sketch:type="MSLayerGroup" transform="translate(1020.000000, 446.000000)">
                <g id="Group-3">
                    <mask id="mask-2" sketch:name="Clip 2" fill="white">
                        <use xlink:href="#path-1"></use>
                    </mask>
                    <g id="Clip-2"></g>
                    <path d="M108.529819,0 L66.8090256,0 C66.3694719,0 65.9337074,0.0153333333 65.5001083,0.0405238095 L65.5001083,68.9791905 C77.6555008,68.5410952 87.1530008,58.3904286 87.1530008,45.9759048 L87.1530008,46 L108.529819,46 C121.075505,46 131.000108,35.6680714 131.000108,22.9759048 L131.000108,22.9375714 C131.000108,10.2454048 121.075505,0 108.529819,0" id="Fill-1" fill="#FEFEFE" sketch:type="MSShapeGroup" mask="url(#mask-2)"></path>
                </g>
                <path d="M43.8471074,22.9374071 L43.8471074,22.9998357 L22.9618099,22.9998357 C10.416124,22.9998357 0,33.2452405 0,45.9374071 L0,45.9757405 C0,58.6679071 10.416124,68.9998357 22.9618099,68.9998357 L64.6826033,68.9998357 C64.9570537,68.9998357 65.2282562,68.9888833 65.5,68.9790262 L65.5,0.0403595238 C53.5476033,0.723788095 43.8471074,10.6899071 43.8471074,22.9374071" id="Fill-4" fill="#FFEEEB" sketch:type="MSShapeGroup"></path>
            </g>
        </g>
    </g>
</svg>