<?xml version="1.0" encoding="UTF-8" standalone="no"?>
<svg width="57px" height="57px" viewBox="0 0 57 57" version="1.1" xmlns="http://www.w3.org/2000/svg" xmlns:xlink="http://www.w3.org/1999/xlink" xmlns:sketch="http://www.bohemiancoding.com/sketch/ns">
    <!-- Generator: Sketch 3.4 (15575) - http://www.bohemiancoding.com/sketch -->
    <title>Oval 5 + Page 1</title>
    <desc>Created with Sketch.</desc>
    <defs>
        <path id="path-1" d="M0,0.0621834497 L37.0314063,0.0621834497 L37.0314063,22.6470588 L0,22.6470588 L0,0.0621834497 Z"></path>
        <path id="path-3" d="M0,0.0621834497 L37.0314063,0.0621834497 L37.0314063,22.6470588 L0,22.6470588 L0,0.0621834497 Z"></path>
    </defs>
    <g id="Page-1" stroke="none" stroke-width="1" fill="none" fill-rule="evenodd" sketch:type="MSPage">
        <g id="Desktop-HD-Copy" sketch:type="MSArtboardGroup" transform="translate(-389.000000, -5724.000000)">
            <g id="Oval-5-+-Page-1" sketch:type="MSLayerGroup" transform="translate(390.000000, 5725.000000)">
                <circle id="Oval-5" stroke="#FCECA9" stroke-width="1.38319999" sketch:type="MSShapeGroup" cx="27.5" cy="27.5" r="27.5"></circle>
                <g id="Page-1" transform="translate(10.514706, 15.367647)">
                    <g id="Group-3">
                        <mask id="mask-2" sketch:name="Clip 2" fill="white">
                            <use xlink:href="#path-1"></use>
                        </mask>
                        <g id="Clip-2"></g>
                        <path d="M5.32386803,3.98824302 L5.32386803,8.9661817 L5.42197407,8.9661817 C6.93096633,8.9661817 8.43995859,8.96867672 9.94875503,8.96426246 C10.2832163,8.96330284 10.6184609,8.95006007 10.9515515,8.92203913 C11.4365987,8.88115927 11.9012806,8.75717622 12.3452055,8.55699925 C12.9455909,8.28619417 13.3252868,7.84246535 13.471173,7.20969118 C13.5876861,6.70512238 13.5978688,6.19709895 13.4786142,5.6936817 C13.3084462,4.97646087 12.8678502,4.49549875 12.1380275,4.28476595 C11.4021343,4.07249776 10.64568,3.99649576 9.88335101,3.99169766 C8.38669543,3.98210145 6.88964822,3.98843495 5.39299265,3.98824302 L5.32386803,3.98824302 Z M5.32190983,12.7083203 L5.32190983,18.7232256 L5.41042067,18.7232256 C6.21798413,18.7232256 7.02535178,18.7253367 7.83291525,18.7226498 C8.81847949,18.7193871 9.80423955,18.7191952 10.7898038,18.7030735 C11.2233502,18.6959723 11.6520012,18.6251523 12.0683154,18.4986742 C12.9941544,18.2175052 13.6025685,17.6250351 13.8706467,16.7101324 C14.0402272,16.130905 14.0729292,15.5386269 13.9850058,14.943086 C13.9109857,14.438901 13.7135987,13.9867276 13.3448688,13.6176573 C12.9918046,13.2645167 12.5570832,13.0499454 12.0761482,12.9196289 C11.4724338,12.7559175 10.8534454,12.7104315 10.2311281,12.7092799 C8.62344234,12.7062091 7.01575658,12.7083203 5.40807082,12.7083203 L5.32190983,12.7083203 Z M9.79102167e-05,22.6471164 L9.79102167e-05,0.0622410269 L11.4565724,0.0622410269 C11.4822248,0.0662714357 11.5076815,0.0729887836 11.533334,0.0739484048 C12.1260824,0.097747009 12.714327,0.160698156 13.2959137,0.276620389 C14.0376815,0.424785892 14.7512512,0.65259995 15.4123409,1.02032677 C16.9221165,1.86037911 17.7780476,3.1435845 18.0643371,4.806416 C18.1518688,5.31539905 18.1714509,5.82937213 18.1403154,6.34545638 C18.1130964,6.79417522 18.0486714,7.23636864 17.9213882,7.66877393 C17.7053982,8.40115678 17.3376474,9.04621411 16.7701598,9.57419766 C16.3722527,9.94461142 15.9138371,10.2300027 15.4305522,10.4798881 C15.4023541,10.4946663 15.3737643,10.5092525 15.3418456,10.525758 C15.4998727,10.5906284 15.6498711,10.6478218 15.796149,10.713076 C16.6276026,11.0834898 17.3341227,11.6064833 17.8649919,12.3438562 C18.5205987,13.2541528 18.8104129,14.2815232 18.8750337,15.3802894 C18.8985321,15.7816029 18.889916,16.1827246 18.8497728,16.5832704 C18.7998386,17.0826573 18.6985995,17.5709125 18.5360685,18.0465007 C18.2441002,18.9003716 17.7884261,19.6634624 17.1860824,20.340763 C16.4100461,21.2132505 15.4565964,21.8251049 14.3271041,22.1692251 C13.7112488,22.356927 13.0779656,22.4576872 12.4397868,22.5336892 C11.8366598,22.6056608 11.231183,22.6465406 10.6233564,22.6467326 C7.08213971,22.6471164 3.54111881,22.6469245 9.79102167e-05,22.6471164 L9.79102167e-05,22.6471164 Z" id="Fill-1" fill="#FCECA9" sketch:type="MSShapeGroup" mask="url(#mask-2)"></path>
                    </g>
                    <path d="M32.5601209,12.2524043 C32.5215443,12.0084686 32.4931503,11.771826 32.4451743,11.5390219 C32.3406062,11.0319581 32.1508562,10.5571376 31.8218779,10.1475713 C31.1930985,9.36375274 30.3504831,8.96205533 29.3525822,8.85265852 C28.848932,8.79738435 28.3472401,8.81964756 27.8506395,8.92213509 C27.1278663,9.07145214 26.5247393,9.41518843 26.0567285,9.98040528 C25.6997478,10.4112752 25.4526224,10.8976112 25.30047,11.4294332 C25.2235125,11.6981271 25.1682912,11.9729626 25.1015164,12.2524043 L32.5601209,12.2524043 Z M37.0312889,15.0477807 C36.9950621,15.0481645 36.9590311,15.0487403 36.9228043,15.0487403 L25.1124824,15.0487403 L25.0110474,15.0487403 C25.0210342,15.19134 25.0259297,15.3272223 25.0406163,15.462337 C25.0862424,15.8876411 25.1677037,16.305652 25.3149607,16.7098445 C25.6958314,17.75468 26.4366201,18.4436879 27.4920923,18.8164048 C28.035494,19.008329 28.6002401,19.0699367 29.1755605,19.0643709 C29.7027091,19.0593809 30.2157587,18.9852981 30.7070721,18.7908789 C31.3756031,18.5264073 31.8759243,18.0732742 32.2444584,17.4725513 C32.2840141,17.4078729 32.3259197,17.344154 32.3590133,17.2764048 C32.3823159,17.2286157 32.411689,17.2153729 32.4645605,17.2155648 C33.5445102,17.2172921 34.6244599,17.2167164 35.7046054,17.2167164 C36.0492494,17.2167164 36.3940892,17.2167164 36.7387331,17.2169083 C36.7575319,17.2169083 36.7763307,17.2194033 36.8121658,17.2220902 C36.7710435,17.4065294 36.739908,17.587514 36.6901697,17.7635085 C36.5043361,18.4237278 36.1593005,19.0031471 35.7314328,19.5380399 C35.1970389,20.2057443 34.5874498,20.7955274 33.8556689,21.257489 C33.0426224,21.7706944 32.1561433,22.1021476 31.2118972,22.2938799 C30.3869057,22.4612378 29.5527107,22.5222697 28.7120536,22.5005823 C27.2365466,22.4625813 25.8423051,22.118653 24.5473446,21.4148669 C23.8684351,21.0456047 23.232802,20.6160783 22.6854839,20.072165 C22.0169529,19.4075314 21.5530543,18.6179551 21.2346503,17.7425887 C21.0159189,17.1412901 20.8739491,16.5221426 20.7852424,15.8901361 C20.6689251,15.0617911 20.6368105,14.2297996 20.6740164,13.3953131 C20.7194467,12.3687104 20.8702285,11.3591889 21.2054731,10.3811431 C21.4921542,9.54512114 21.8992649,8.77205035 22.4698856,8.08688086 C23.1865884,7.22648455 24.0603392,6.56108325 25.0862424,6.08837388 C25.7700474,5.7732343 26.4889042,5.56921884 27.2336093,5.45329661 C27.9499204,5.34198056 28.6709313,5.3137677 29.3950752,5.34793021 C30.1043368,5.38151695 30.80322,5.47920638 31.4885915,5.66230209 C32.3736998,5.89894467 33.2028036,6.25227717 33.9430048,6.79235194 C34.6113399,7.28041525 35.1574831,7.87864307 35.6188361,8.55613559 C36.2029684,9.41403689 36.5826642,10.3531221 36.79885,11.3593809 C36.9067471,11.8616466 36.963535,12.3698619 36.9893833,12.8817238 C37.0009367,13.1081944 37.0099444,13.3348569 37.0207146,13.5613275 C37.0218895,13.5843584 37.0275683,13.6071974 37.0312889,13.6302283 L37.0312889,15.0477807 Z" id="Fill-4" fill="#FCECA9" sketch:type="MSShapeGroup"></path>
                    <mask id="mask-4" sketch:name="Clip 7" fill="white">
                        <use xlink:href="#path-3"></use>
                    </mask>
                    <g id="Clip-7"></g>
                    <path d="M24.1634582,1.00395563 L33.438493,1.00395563 L33.438493,3.25695414 L24.1634582,3.25695414 L24.1634582,1.00395563 Z" id="Fill-6" fill="#FCECA9" sketch:type="MSShapeGroup" mask="url(#mask-4)"></path>
                </g>
            </g>
        </g>
    </g>
</svg>