<?xml version="1.0" encoding="UTF-8" standalone="no"?>
<svg width="57px" height="57px" viewBox="0 0 57 57" version="1.1" xmlns="http://www.w3.org/2000/svg" xmlns:xlink="http://www.w3.org/1999/xlink" xmlns:sketch="http://www.bohemiancoding.com/sketch/ns">
    <!-- Generator: Sketch 3.4 (15575) - http://www.bohemiancoding.com/sketch -->
    <title>Oval 5 + Page 1</title>
    <desc>Created with Sketch.</desc>
    <defs>
        <path id="path-1" d="M0,0.105789785 L33.0826867,0.105789785 L33.0826867,30.7352941 L0,30.7352941 L0,0.105789785 Z"></path>
    </defs>
    <g id="Page-1" stroke="none" stroke-width="1" fill="none" fill-rule="evenodd" sketch:type="MSPage">
        <g id="Desktop-HD-Copy" sketch:type="MSArtboardGroup" transform="translate(-157.000000, -5722.000000)">
            <g id="Oval-5-+-Page-1" sketch:type="MSLayerGroup" transform="translate(158.000000, 5723.000000)">
                <circle id="Oval-5" stroke="#FCECA9" stroke-width="1.38319999" sketch:type="MSShapeGroup" cx="27.5" cy="27.5" r="27.5"></circle>
                <g id="Page-1" transform="translate(12.132353, 9.705882)">
                    <path d="M11.449737,30.7352941 C11.4546971,29.5260524 11.4599406,28.3169479 11.4644756,27.1077061 C11.4684436,26.0777994 11.4728369,25.0477554 11.4749626,24.0178486 C11.4786472,22.2413761 11.4810564,20.4649035 11.4836073,18.6885681 C11.4855914,17.2832517 11.4901263,15.8780725 11.4878588,14.472756 C11.4858748,13.2718842 11.4763798,12.0710123 11.4685853,10.8701405 C11.4671682,10.6492306 11.4573897,10.4283206 11.4518627,10.2074107 C11.4508707,10.1662474 11.451721,10.1249468 11.451721,10.0852928 C11.550356,10.0588111 18.2756753,10.0472853 18.5496141,10.0734926 C18.5504644,10.2274435 18.5520233,10.3838642 18.5524485,10.5404221 C18.5530153,10.698901 18.5525902,10.8573799 18.5525902,11.0158587 L18.5525902,11.5037815 L18.5525902,11.9790809 L18.5525902,12.4545175 L18.5525902,12.9243284 C18.5602429,12.9265238 18.5678956,12.9288564 18.5754066,12.9310517 C18.6019077,12.8959257 18.6298259,12.8618973 18.6546264,12.8258108 C19.0337192,12.2758686 19.4594369,11.764071 19.9625321,11.3148418 C20.8476961,10.5246429 21.8836469,10.0172361 23.0562129,9.76668855 C23.6298831,9.64415901 24.2110643,9.58913734 24.798481,9.58145352 C25.7958849,9.56828125 26.7742986,9.68148044 27.7249359,9.98101234 C29.6410907,10.5848785 31.0374277,11.7761456 31.9533443,13.5055548 C32.4105232,14.3688872 32.7035938,15.285732 32.8739376,16.239075 C32.9479138,16.6531782 32.994397,17.0720838 33.0492415,17.4893428 C33.0615708,17.5840185 33.0542015,17.6810268 33.0600119,17.7768002 C33.062988,17.8257845 33.0748922,17.8742201 33.0826867,17.92293 L33.0826867,30.7352941 L26.0009493,30.7352941 C26.002083,30.7229451 26.0040671,30.7104589 26.0040671,30.6981099 C26.0039253,27.0117956 26.0033585,23.3256184 26.0039253,19.6393041 C26.0040671,19.1170785 25.9663703,18.598146 25.8708531,18.0838787 C25.7768948,17.577158 25.6272417,17.087177 25.3768279,16.6299895 C24.9909326,15.9252731 24.421514,15.4259618 23.6300248,15.1788445 C23.173838,15.0364194 22.704188,14.997177 22.2274522,15.0155633 C21.5494784,15.0417706 20.9235146,15.2274173 20.3573555,15.5915756 C19.6620921,16.0388839 19.1764282,16.6549619 18.8453774,17.3887671 C18.7667245,17.5630252 18.7066365,17.7479858 18.6621374,17.9334953 C18.5711551,18.3127468 18.5538656,18.7006427 18.5538656,19.0889502 C18.5540074,22.9128873 18.5538656,26.7366872 18.5541491,30.5606243 C18.5541491,30.6188019 18.5562748,30.6771166 18.5574086,30.7352941 L11.449737,30.7352941 Z" id="Fill-1" fill="#FCECA9" sketch:type="MSShapeGroup"></path>
                    <path d="M0.439336696,30.7352941 C0.43820296,30.6769794 0.436077206,30.6185274 0.436077206,30.5602127 C0.435935489,23.7918619 0.435935489,17.0233738 0.435935489,10.255023 L0.435935489,10.0729438 L7.52447527,10.0729438 C7.5288685,10.0929766 7.53609606,10.1125978 7.53694636,10.1324934 C7.53921383,10.1740684 7.5380801,10.2159178 7.5380801,10.25763 C7.53822181,17.0218645 7.53822181,23.786099 7.53751323,30.5503335 C7.53737151,30.6120785 7.52674274,30.6736863 7.52107406,30.7352941 L0.439336696,30.7352941 Z" id="Fill-3" fill="#FCECA9" sketch:type="MSShapeGroup"></path>
                    <g id="Group-7">
                        <mask id="mask-2" sketch:name="Clip 6" fill="white">
                            <use xlink:href="#path-1"></use>
                        </mask>
                        <g id="Clip-6"></g>
                        <path d="M4.44547628,0.105721179 C4.55063025,0.122323726 4.6556425,0.140023963 4.76107991,0.155117188 C5.65772301,0.284507287 6.44340174,0.627946757 7.06355508,1.28381598 C7.51378981,1.75993862 7.78942927,2.32264148 7.92122602,2.95285222 C8.0891606,3.7548513 8.00639791,4.53036863 7.63396578,5.26746685 C7.19875305,6.1283295 6.48945975,6.69295332 5.56461498,7.00949941 C4.93482488,7.2250581 4.28292694,7.28694032 3.61799104,7.24563977 C3.0128597,7.20818113 2.43536315,7.07165605 1.90165715,6.78954996 C0.893482812,6.25662191 0.288351464,5.43747144 0.0749257479,4.34595687 C0.0637301094,4.28873982 0.0600454688,4.23015067 0.0468657931,4.17334526 C0.0358118715,4.12600742 0.0159714995,4.08072774 -4.25150828e-05,4.03448759 L-4.25150828e-05,3.33375033 C0.0155463487,3.28723575 0.0355284377,3.24140723 0.0457320576,3.19365776 C0.0603289027,3.12450335 0.0651472788,3.05356519 0.0788938223,2.98427357 C0.220043898,2.26405232 0.55421245,1.64344636 1.10634166,1.13837218 C1.72451097,0.573062303 2.47107582,0.273393185 3.30352115,0.155117188 C3.40881684,0.140161174 3.51340394,0.122186515 3.6184162,0.105721179 L4.44547628,0.105721179 Z" id="Fill-5" fill="#FCECA9" sketch:type="MSShapeGroup" mask="url(#mask-2)"></path>
                    </g>
                </g>
            </g>
        </g>
    </g>
</svg>