<?xml version="1.0" encoding="UTF-8" standalone="no"?>
<svg width="151px" height="151px" viewBox="0 0 151 151" version="1.1" xmlns="http://www.w3.org/2000/svg" xmlns:xlink="http://www.w3.org/1999/xlink" xmlns:sketch="http://www.bohemiancoding.com/sketch/ns">
    <!-- Generator: Sketch 3.4 (15575) - http://www.bohemiancoding.com/sketch -->
    <title>Oval 1 + Page 1</title>
    <desc>Created with Sketch.</desc>
    <defs>
        <path id="path-1" d="M0,0.270208494 L98.8960189,0.270208494 L98.8960189,81 L0,81"></path>
    </defs>
    <g id="Page-1" stroke="none" stroke-width="1" fill="none" fill-rule="evenodd" sketch:type="MSPage">
        <g id="Desktop-HD-Copy" sketch:type="MSArtboardGroup" transform="translate(-1169.000000, -2101.000000)">
            <g id="Oval-1-+-Page-1" sketch:type="MSLayerGroup" transform="translate(1171.000000, 2103.000000)">
                <g id="Oval-1" stroke-width="3" stroke="#EA5C67" sketch:type="MSShapeGroup">
                    <circle cx="73.5" cy="73.5" r="73.5"></circle>
                </g>
                <g id="Page-1" transform="translate(30.000000, 35.000000)">
                    <path d="M50.1576028,36.1802606 C38.8482538,36.1802606 27.5389047,36.1808861 16.229867,36.1783842 C15.7115179,36.1783842 15.1804047,36.2168514 14.6785557,36.1180251 C13.5817726,35.9016081 12.7620651,35.1197548 12.9295557,34.0789517 C13.0509708,33.3261834 13.8342538,32.584361 14.4945651,32.0542645 C14.8662821,31.7559093 15.5876123,31.8475425 16.1511028,31.8475425 C38.8214802,31.8390985 61.4921689,31.838473 84.1625462,31.8506699 C84.7749142,31.8506699 85.5336028,31.8037587 85.9638481,32.1274459 C86.5575368,32.5740405 87.2882066,33.3746583 87.254584,33.9845039 C87.2159802,34.6844189 86.5151972,35.4828475 85.8925557,35.9663456 C85.4809896,36.2859672 84.7008198,36.1730676 84.0853387,36.1736931 C72.7763009,36.1830753 61.4669519,36.1802606 50.1576028,36.1802606" id="Fill-1" fill="#EB5C67" sketch:type="MSShapeGroup"></path>
                    <path d="M41.6522264,9.64916409 C33.3066509,9.64916409 24.9607642,9.64916409 16.6151887,9.64885135 C16.2005094,9.64885135 15.7852075,9.65948456 15.3711509,9.64259653 C13.8911321,9.58129923 12.9291509,8.80601351 12.8563019,7.62791699 C12.7806509,6.40509846 13.7694057,5.49033012 15.3132453,5.37649228 C15.7257453,5.34584363 16.1419811,5.36210618 16.5566604,5.36210618 C33.2998019,5.36148069 50.0432547,5.36054247 66.7863962,5.3667973 C67.4056132,5.3667973 68.0323019,5.38900193 68.6415566,5.48751544 C69.7912642,5.67390927 70.3855755,6.47233784 70.348217,7.56693243 C70.3083679,8.73220656 69.6184811,9.49029151 68.3981038,9.60287838 C67.8318113,9.65541892 67.2592925,9.64728764 66.6895755,9.64728764 C58.3436887,9.64978958 49.9981132,9.64916409 41.6522264,9.64916409" id="Fill-3" fill="#EB5C67" sketch:type="MSShapeGroup"></path>
                    <path d="M40.5969425,75.8984073 C32.1968858,75.8984073 23.7965179,75.9056004 15.3964613,75.892778 C13.4426123,75.8902761 12.2972632,74.3834884 13.1558858,72.8910869 C13.4516406,72.3766274 14.1119519,71.993832 14.6888292,71.7483301 C15.1340179,71.5597471 15.7093387,71.6651409 16.2267538,71.6648282 C32.5085179,71.6623263 48.7905934,71.6623263 65.0723575,71.6629517 C67.4007255,71.6632645 68.4218575,72.2899981 68.4666877,73.7379903 C68.5112066,75.1837934 67.37115,75.8984073 65.0197443,75.8984073 C56.8787066,75.8987201 48.7379802,75.8984073 40.5969425,75.8984073" id="Fill-5" fill="#EB5C67" sketch:type="MSShapeGroup"></path>
                    <path d="M34.4527783,45.2033479 C40.5229104,45.2036606 46.5930425,45.2020969 52.6628632,45.2064753 C53.1805896,45.2071008 53.8409009,45.0547958 54.1852217,45.3115564 C54.8224953,45.7859849 55.5182972,46.4336722 55.74525,47.150788 C56.0590613,48.1437417 55.4476274,48.9843903 54.424316,49.2908768 C53.8412123,49.4656992 53.196467,49.4829 52.5794292,49.4832127 C40.4911557,49.4932205 28.4028821,49.492595 16.3146085,49.4850892 C15.7476934,49.4847764 15.1748632,49.4413054 14.6144858,49.3537378 C13.4560613,49.1723479 12.8558349,48.3551548 12.8857217,47.2849541 C12.9174764,46.1359425 13.6213726,45.3609695 14.8436179,45.2452552 C15.3585425,45.1964676 15.8800047,45.2052243 16.3983538,45.2052243 C22.4164953,45.2027224 28.4346368,45.2033479 34.4527783,45.2033479" id="Fill-7" fill="#EB5C67" sketch:type="MSShapeGroup"></path>
                    <path d="M68.7068717,62.6246027 C63.2089472,62.6239772 57.7110226,62.6386761 52.2130981,62.6149077 C50.6960321,62.6080274 49.8402113,61.7920853 49.8504849,60.5161008 C49.8604472,59.2607571 50.7567396,58.4582629 52.2258623,58.3897726 C52.2778528,58.3872707 52.3295321,58.3888344 52.3815226,58.3888344 C63.2220226,58.3888344 74.0625226,58.3825795 84.9027113,58.3963402 C86.4477962,58.3982166 87.3985698,59.3011008 87.3556075,60.5999154 C87.3148245,61.838371 86.4225792,62.6117803 84.8896358,62.6174097 C79.4953811,62.6361741 74.1011264,62.6246027 68.7068717,62.6246027" id="Fill-9" fill="#EB5C67" sketch:type="MSShapeGroup"></path>
                    <path d="M28.6548962,58.3897726 C33.0130755,58.3903981 37.3709434,58.3872707 41.7291226,58.3922745 C43.0593962,58.3935255 43.9519528,59.0190081 44.0609151,60.3841239 C44.1729906,61.7842668 43.2885283,62.4566606 42.0174057,62.6768305 C41.613,62.7471973 41.1908491,62.7265564 40.7764811,62.7271819 C38.130566,62.7312475 35.4846509,62.729371 32.8387358,62.729371 C27.390934,62.729371 21.9434434,62.7296838 16.4959528,62.7287456 C16.0809623,62.7284328 15.6631698,62.7515757 15.2519151,62.7099811 C13.7893302,62.5611162 12.8416698,61.6863788 12.8488302,60.5239193 C12.8563019,59.2907803 13.8808585,58.4038459 15.4250094,58.3963402 C19.8348679,58.3756992 24.2450377,58.3891471 28.6548962,58.3897726" id="Fill-11" fill="#EB5C67" sketch:type="MSShapeGroup"></path>
                    <path d="M74.9121792,45.2125112 C78.4338396,45.2125112 81.9558113,45.1777969 85.4768491,45.2275228 C87.2554245,45.2528548 88.4094906,46.7455691 87.6084623,48.0725305 C87.2059245,48.7386695 86.2068962,49.2994147 85.4086698,49.4116888 C83.8841321,49.6256039 82.3100943,49.4895614 80.7566038,49.4901869 C75.577783,49.4923761 70.3989623,49.4926888 65.2201415,49.4883104 C64.7033491,49.4876849 64.1834434,49.4808046 63.6706981,49.4241985 C62.4132736,49.2840903 61.6343491,48.592932 61.6642358,47.2916154 C61.6956792,45.9118008 62.5418491,45.229712 63.8814623,45.2203297 C67.195783,45.1978124 70.5101038,45.2068819 73.8247358,45.2037544 C74.1871132,45.2034417 74.5494906,45.2034417 74.9121792,45.2034417 L74.9121792,45.2125112 Z" id="Fill-13" fill="#EB5C67" sketch:type="MSShapeGroup"></path>
                    <path d="M25.3920991,22.9022027 C22.0211179,22.9043919 18.6476462,22.9753842 15.2813349,22.8484112 C14.54475,22.8202645 13.6356934,22.2341873 13.1805425,21.6234035 C12.8685991,21.2046429 12.9672877,20.1156776 13.315033,19.6587625 C13.7122783,19.13711 14.5870896,18.7183494 15.2589198,18.7117819 C21.9999481,18.6442297 28.7422217,18.6698745 35.4838726,18.6714382 C36.8225519,18.671751 37.6684104,19.2622066 37.7449953,20.6789247 C37.817533,22.0224614 37.035184,22.8596699 35.5044198,22.883751 C32.1343726,22.936917 28.7630802,22.9003263 25.3920991,22.9022027" id="Fill-15" fill="#EB5C67" sketch:type="MSShapeGroup"></path>
                    <g id="Group-19">
                        <mask id="mask-2" sketch:name="Clip 18" fill="white">
                            <use xlink:href="#path-1"></use>
                        </mask>
                        <g id="Clip-18"></g>
                        <path d="M4.78275849,7.88999421 C6.03364528,8.9542529 7.23440943,9.87277413 8.3094,10.9207703 C9.35668302,11.9421834 9.37972075,13.2256737 8.53168302,14.1013494 C7.6164,15.0477046 6.37391887,14.9826544 5.26250377,13.8533456 C3.7719,12.3393649 2.30122075,10.8028668 0.865720755,9.23572008 C-0.28305283,7.98131467 -0.285543396,7.06842278 0.839569811,5.82809073 C2.26697547,4.25437645 3.7208434,2.70349228 5.1999283,1.1782529 C6.30667358,0.0370598456 7.51304151,-0.0170444015 8.46194717,0.952766409 C9.33893774,1.84939575 9.27636226,2.96056564 8.24838113,4.10926448 C7.25028679,5.22481274 6.22697547,6.31721815 4.78275849,7.88999421" id="Fill-17" fill="#EB5C67" sketch:type="MSShapeGroup" mask="url(#mask-2)"></path>
                    </g>
                    <path d="M5.10989434,60.4800104 C6.22878113,61.6862537 7.29536604,62.8071185 8.32863962,63.958632 C9.32206415,65.0651108 9.36969623,66.272605 8.50048868,67.1388985 C7.57462075,68.0614853 6.32186604,67.9717286 5.22788491,66.8424197 C3.7142434,65.2802768 2.22644151,63.6921764 0.743309434,62.1006359 C-0.171350943,61.1189409 -0.2607,60.0434236 0.651781132,59.0385857 C2.21865849,57.3125664 3.8148,55.6112537 5.45950755,53.9599795 C6.35113019,53.0646012 7.42798868,53.0658521 8.39806415,53.8599023 C9.29529057,54.5942189 9.31801698,55.9174274 8.43946981,56.923829 C7.39187547,58.1241301 6.2642717,59.2540645 5.10989434,60.4800104" id="Fill-20" fill="#EB5C67" sketch:type="MSShapeGroup"></path>
                    <path d="M74.2211094,73.792595 C73.0296849,72.5375641 71.9357038,71.4373402 70.9027415,70.281761 C69.899666,69.1599579 69.8921943,67.9693517 70.8762792,67.1221355 C71.9229396,66.2211278 72.9742698,66.374371 73.9060528,67.3285448 C75.4626566,68.9222745 77.0217509,70.515066 78.5244962,72.1591471 C79.5627509,73.295649 79.5313075,74.3117456 78.4874491,75.4551278 C77.0559962,77.0229 75.6102226,78.5794135 74.1258453,80.0962089 C73.0309302,81.21551 71.7554491,81.2830622 70.8557321,80.3657919 C69.9700245,79.4622822 70.0229491,78.3558035 71.0599585,77.1989734 C72.061166,76.0815486 73.0991094,74.9979 74.2211094,73.792595" id="Fill-22" fill="#EB5C67" sketch:type="MSShapeGroup"></path>
                    <path d="M93.8454311,46.8855521 C92.6960349,45.6793089 91.6440821,44.6066062 90.6285538,43.5004402 C89.5557425,42.3317259 89.5283462,41.0763822 90.5108745,40.194139 C91.4463934,39.3541158 92.6013934,39.4573205 93.6714028,40.5497259 C95.1616953,42.0715251 96.6329972,43.6133398 98.0775255,45.1789228 C99.1739972,46.3673398 99.1668368,47.3943822 98.0675632,48.5959344 C96.6301953,50.1671467 95.1816198,51.7296023 93.6913274,53.2504633 C92.6764217,54.2856371 91.3754123,54.352251 90.5202142,53.5128533 C89.6267236,52.6359266 89.6603462,51.4612703 90.6659123,50.3300849 C91.6649406,49.2067181 92.7041292,48.1186911 93.8454311,46.8855521" id="Fill-24" fill="#EB5C67" sketch:type="MSShapeGroup"></path>
                </g>
            </g>
        </g>
    </g>
</svg>