<?xml version="1.0" encoding="UTF-8" standalone="no"?>
<svg width="181px" height="91px" viewBox="0 0 181 91" version="1.1" xmlns="http://www.w3.org/2000/svg" xmlns:xlink="http://www.w3.org/1999/xlink" xmlns:sketch="http://www.bohemiancoding.com/sketch/ns">
    <!-- Generator: Sketch 3.4 (15575) - http://www.bohemiancoding.com/sketch -->
    <title>Page 1</title>
    <desc>Created with Sketch.</desc>
    <defs>
        <path id="path-1" d="M0,0 L221,0 L221,91 L0,91"></path>
    </defs>
    <g id="Page-1" stroke="none" stroke-width="1" fill="none" fill-rule="evenodd" sketch:type="MSPage">
        <g id="Desktop-HD-Copy" sketch:type="MSArtboardGroup" transform="translate(-1259.000000, -1095.000000)">
            <g id="Page-1" sketch:type="MSLayerGroup" transform="translate(1259.000000, 1095.000000)">
                <g id="Group-3">
                    <mask id="mask-2" sketch:name="Clip 2" fill="white">
                        <use xlink:href="#path-1"></use>
                    </mask>
                    <g id="Clip-2"></g>
                    <path d="M190.046835,27.3 L147.404409,27.3 C147.970127,25.1588235 148.03833,23.3168765 148.03833,21.2163824 L148.03833,20.9872765 C148.03833,9.373 138.978917,0 127.508065,0 L110.500053,0 L110.500053,91 L137.174964,91 L169.955397,91 L190.046835,91 C207.274261,91 221.000053,76.8179176 221.000053,59.3753588 L221.000053,58.8400647 C221.000053,41.3975059 207.274261,27.3 190.046835,27.3" id="Fill-1" fill="#FEFEFE" sketch:type="MSShapeGroup" mask="url(#mask-2)"></path>
                </g>
                <path d="M92.3860892,0 C80.9152376,0 71.3757567,9.373 71.3757567,20.9872765 C71.3757567,21.2672353 71.6194911,21.4117647 71.6194911,21.4117647 L54.3191036,21.4117647 C42.8482519,21.4117647 33.3087711,30.7847647 33.3087711,42.3990412 C33.3087711,44.7286412 33.8570414,46.5705882 34.4232878,48.7117647 L21.0104911,48.7117647 C9.53963947,48.7117647 0.00015861244,58.0847647 0.00015861244,69.6990412 C0.00015861244,81.5424235 9.53963947,91 21.0104911,91 L46.2377998,91 L56.1320438,91 L110.500159,91 L110.500159,0 L92.3860892,0 Z" id="Fill-4" fill-opacity="0.5" fill="#FFFFFF" sketch:type="MSShapeGroup"></path>
            </g>
        </g>
    </g>
</svg>