<?xml version="1.0" encoding="UTF-8" standalone="no"?>
<svg width="158px" height="161px" viewBox="0 0 158 161" version="1.1" xmlns="http://www.w3.org/2000/svg" xmlns:xlink="http://www.w3.org/1999/xlink" xmlns:sketch="http://www.bohemiancoding.com/sketch/ns">
    <!-- Generator: Sketch 3.4 (15575) - http://www.bohemiancoding.com/sketch -->
    <title>Page 1</title>
    <desc>Created with Sketch.</desc>
    <defs></defs>
    <g id="Page-1" stroke="none" stroke-width="1" fill="none" fill-rule="evenodd" sketch:type="MSPage">
        <g id="Desktop-HD-Copy" sketch:type="MSArtboardGroup" transform="translate(-1267.000000, -3295.000000)">
            <g id="Page-1" sketch:type="MSLayerGroup" transform="translate(1346.141946, 3376.691065) rotate(42.000000) translate(-1346.141946, -3376.691065) translate(1301.727869, 3285.324964)">
                <path d="M59.3773663,182.263658 C58.2109124,182.263658 57.0552113,181.751539 56.270251,180.767596 C54.9004273,179.049445 55.1795348,176.543203 56.8939181,175.1699 C56.9285143,175.141787 60.7546702,172.044711 64.4952705,167.448761 C67.7360955,163.467542 71.5987177,157.500164 71.5987177,151.681315 C71.5987177,145.627257 68.7169454,140.967586 65.3798119,135.5723 C62.1100008,130.285249 58.7284532,124.818276 57.8588724,117.547408 C56.7288848,108.103902 60.4002926,100.846622 63.9510812,93.8287687 C66.085762,89.6104661 68.2919728,85.2483205 69.5533326,80.2719135 C72.6300593,68.1267817 64.0436495,51.5421945 63.9571589,51.3763299 C62.9365701,49.4304662 63.6817916,47.0221495 65.6219855,45.9983806 C67.5631144,44.9736746 69.9633446,45.7177227 70.9876735,47.6612436 C71.4018932,48.4479292 81.0897721,67.1006701 77.256136,82.232302 C75.7792511,88.063802 73.3701381,92.8256157 71.0395678,97.4309358 C67.7487185,103.935265 64.9066851,109.55264 65.750085,116.599075 C66.4102185,122.11993 69.1910072,126.61608 72.1349592,131.376019 C75.7787836,137.267024 79.5464998,143.359035 79.5464998,151.681315 C79.5464998,167.044408 62.5779849,180.813045 61.8556718,181.391697 C61.1230733,181.978783 60.2469472,182.263658 59.3773663,182.263658" id="Fill-1" fill="#FAD2C9" sketch:type="MSShapeGroup"></path>
                <path d="M18.6605042,178.80702 C17.666564,178.80702 16.6716886,178.435465 15.9007538,177.687668 C15.2359452,177.04342 -0.361811095,161.732805 1.08375023,146.438119 C1.86637301,138.152854 6.19043403,132.444112 10.3719025,126.923726 C13.7511124,122.463186 16.9423807,118.249569 18.11912,112.816331 C19.6217184,105.880473 17.3206017,100.019455 14.6562246,93.2330617 C12.7693276,88.4281419 10.8193159,83.4597002 9.89690561,77.5148125 C7.50415567,62.0884664 18.9040804,44.434193 19.3907652,43.6906135 C20.5936854,41.8501722 23.0556278,41.3361793 24.8925005,42.5422119 C26.7275031,43.7473073 27.2408364,46.2151291 26.0388512,48.0546333 C25.8859733,48.290311 15.8348339,63.9410898 17.7507169,76.2914439 C18.5370799,81.3643709 20.3243958,85.9158084 22.0518696,90.3168432 C24.9266292,97.6392505 27.8995673,105.210923 25.8859733,114.505901 C24.3366233,121.661975 20.455768,126.785037 16.7030122,131.739422 C12.8731163,136.795482 9.56590386,141.161844 8.99600113,147.189195 C8.44853919,152.981806 11.7328433,159.287473 14.584227,163.557315 C17.8755439,168.486399 21.3940738,171.931136 21.4291375,171.965339 C23.0018634,173.496541 23.0416023,176.017309 21.5151606,177.595365 C20.7353429,178.40173 19.6988586,178.80702 18.6605042,178.80702" id="Fill-3" fill="#FAD2C9" sketch:type="MSShapeGroup"></path>
                <path d="M35.3075548,181.049285 C34.1770996,181.049285 33.0541247,180.568559 32.2677618,179.634282 C30.8530566,177.952677 31.0662442,175.440343 32.7441612,174.02206 C32.7778224,173.993011 36.5221629,170.796134 40.1402738,166.103197 C43.2749726,162.037639 46.9795741,155.970462 46.8262287,150.153955 C46.667273,144.101771 43.6634789,139.519878 40.1860905,134.214553 C36.778362,129.015588 33.2542219,123.639981 32.1938942,116.394415 C30.8165903,106.984175 34.2958488,99.6327182 37.6605658,92.5234985 C39.6830426,88.2499077 41.7747119,83.8310682 42.9037644,78.8232688 C45.6714627,66.5502245 36.6432497,50.2514492 36.5516164,50.0883958 C35.4763282,48.1706448 36.1556299,45.7426492 38.0691753,44.6649978 C39.9822532,43.5873463 42.4049242,44.2686095 43.4802124,46.185892 C43.9150028,46.9613325 54.0900341,65.3516887 50.6561247,80.5793721 C49.3325852,86.4478871 47.0492341,91.2720172 44.8416207,95.9368423 C41.7228175,102.525978 39.0294544,108.216446 40.0575234,115.238517 C40.862587,120.739693 43.7607224,125.160407 46.8290338,129.841162 C50.6262036,135.633773 54.552408,141.62411 54.7712058,149.944047 C55.1756076,165.301518 38.5745607,179.513866 37.8676756,180.11126 C37.1219867,180.741452 36.2126669,181.049285 35.3075548,181.049285" id="Fill-5" fill="#FAD2C9" sketch:type="MSShapeGroup"></path>
                <path d="M28.0514634,58.4227178 C28.0514634,64.1155287 23.2369775,68.7306882 17.2981141,68.7306882 C11.3597183,68.7306882 6.54523237,64.1155287 6.54523237,58.4227178 C6.54523237,52.7299069 11.3597183,48.1147475 17.2981141,48.1147475 C23.2369775,48.1147475 28.0514634,52.7299069 28.0514634,58.4227178" id="Fill-7" fill="#E49589" sketch:type="MSShapeGroup"></path>
                <path d="M57.1630207,58.4227178 C57.1630207,64.1155287 52.3485347,68.7306882 46.4096714,68.7306882 C40.4712756,68.7306882 35.6567897,64.1155287 35.6567897,58.4227178 C35.6567897,52.7299069 40.4712756,48.1147475 46.4096714,48.1147475 C52.3485347,48.1147475 57.1630207,52.7299069 57.1630207,58.4227178" id="Fill-9" fill="#E49589" sketch:type="MSShapeGroup"></path>
                <path d="M83.5302555,58.4227178 C83.5302555,64.1155287 78.7157696,68.7306882 72.7769063,68.7306882 C66.8385104,68.7306882 62.0240245,64.1155287 62.0240245,58.4227178 C62.0240245,52.7299069 66.8385104,48.1147475 72.7769063,48.1147475 C78.7157696,48.1147475 83.5302555,52.7299069 83.5302555,58.4227178" id="Fill-11" fill="#E49589" sketch:type="MSShapeGroup"></path>
                <path d="M88.8281536,35.386044 C88.8281536,15.8486918 68.9432701,0.0109639321 44.4145443,0.0109639321 L44.4145443,61.3902419 L74.5212107,61.3902419 L81.347888,61.3902419 C85.4788647,61.3902419 88.8281536,58.033592 88.8281536,53.8935362 L88.8281536,36.0888602 C88.8281536,36.0321663 88.8206733,35.9768781 88.8197383,35.9206528 C88.8225434,35.7426061 88.8281536,35.5645593 88.8281536,35.386044" id="Fill-13" fill="#FAD2C9" sketch:type="MSShapeGroup"></path>
                <path d="M44.4140768,0.0109639321 C19.8848835,0.0109639321 0,15.8486918 0,35.386044 C0,35.5645593 0.00514268258,35.7426061 0.00841529876,35.9206528 C0.00748026557,35.9768781 0,36.0321663 0,36.0888602 L0,53.8935362 C0,58.033592 3.34882139,61.3902419 7.48026557,61.3902419 L14.3069429,61.3902419 L44.4145443,61.3902419 L44.4145443,0.0109639321 L44.4140768,0.0109639321 Z" id="Fill-15" fill="#F3C0B8" sketch:type="MSShapeGroup"></path>
                <path d="M74.6177529,22.1471897 C76.9324275,27.3466237 75.6098231,32.9911745 71.6644505,34.7552431 C67.7186104,36.5193116 62.6437177,33.734754 60.3295106,28.5357886 C58.0148359,23.3363546 59.3374404,17.6918038 63.2832805,15.9277352 C67.228653,14.1636667 72.3040132,16.9482243 74.6177529,22.1471897" id="Fill-17" fill="#E49589" sketch:type="MSShapeGroup"></path>
                <path d="M52.237219,25.388531 C52.2030903,31.0818104 48.6728725,35.6754168 44.3525516,35.6491784 C40.0322307,35.6229399 36.5571799,30.986696 36.5917761,25.2943536 C36.6259048,19.6006056 40.1561226,15.0074677 44.475976,15.0332377 C48.7972319,15.0594761 52.2718153,19.6957201 52.237219,25.388531" id="Fill-19" fill="#E49589" sketch:type="MSShapeGroup"></path>
                <path d="M28.3043899,26.6335932 C25.5572623,31.6170284 20.2649745,33.9588118 16.4827652,31.8653567 C12.7014909,29.7709646 11.8622986,24.033642 14.6094262,19.051144 C17.3565537,14.0677088 22.6488416,11.7259254 26.4305833,13.8193805 C30.2127926,15.9137726 31.0515174,21.6510952 28.3043899,26.6335932" id="Fill-21" fill="#E49589" sketch:type="MSShapeGroup"></path>
            </g>
        </g>
    </g>
</svg>