<?xml version="1.0" encoding="UTF-8" standalone="no"?>
<svg width="57px" height="57px" viewBox="0 0 57 57" version="1.1" xmlns="http://www.w3.org/2000/svg" xmlns:xlink="http://www.w3.org/1999/xlink" xmlns:sketch="http://www.bohemiancoding.com/sketch/ns">
    <!-- Generator: Sketch 3.4 (15575) - http://www.bohemiancoding.com/sketch -->
    <title>Oval 5 + Page 1</title>
    <desc>Created with Sketch.</desc>
    <defs>
        <path id="path-1" d="M0,0.100622336 L29.9161561,0.100622336 L29.9161561,29.9264706 L0,29.9264706 L0,0.100622336 Z"></path>
        <path id="path-3" d="M0,0.100622336 L29.9161561,0.100622336 L29.9161561,29.9264706 L0,29.9264706 L0,0.100622336 Z"></path>
    </defs>
    <g id="Page-1" stroke="none" stroke-width="1" fill="none" fill-rule="evenodd" sketch:type="MSPage">
        <g id="Desktop-HD-Copy" sketch:type="MSArtboardGroup" transform="translate(-313.000000, -5722.000000)">
            <g id="Oval-5-+-Page-1" sketch:type="MSLayerGroup" transform="translate(314.000000, 5723.000000)">
                <circle id="Oval-5" stroke="#FCECA9" stroke-width="1.38319999" sketch:type="MSShapeGroup" cx="27.5" cy="27.5" r="27.5"></circle>
                <g id="Page-1" transform="translate(12.132353, 12.132353)">
                    <g id="Group-3">
                        <mask id="mask-2" sketch:name="Clip 2" fill="white">
                            <use xlink:href="#path-1"></use>
                        </mask>
                        <g id="Clip-2"></g>
                        <path d="M29.9161852,10.7990175 L29.9161852,24.967105 C29.8744915,25.02291 29.8098445,25.0730765 29.7943002,25.1353872 C29.0016845,28.2880758 26.8997132,29.9253574 23.6354035,29.9256465 C17.8267627,29.9262248 12.0181219,29.9273814 6.20948115,29.9252128 C2.59956432,29.9240562 0.0982343661,27.4442072 0.0928592233,23.8534644 C0.086902984,19.7588871 0.0909706596,15.6643099 0.0930044974,11.5697326 C0.0931497716,11.3151407 0.114505069,11.0605488 0.125981725,10.8050895 L8.66810051,10.8050895 C6.68394646,15.3009996 7.19487557,18.6015857 10.2255845,21.0568575 C12.8233764,23.1612522 16.6464104,23.2666454 19.3987741,21.2941006 C20.7764086,20.3066717 21.7376875,19.0014728 22.2201429,17.3782147 C22.9094687,15.0584073 22.5334992,12.8743532 21.1971225,10.7990175 L29.9161852,10.7990175 Z" id="Fill-1" fill="#FCECA9" sketch:type="MSShapeGroup" mask="url(#mask-2)"></path>
                    </g>
                    <g id="Group-6">
                        <mask id="mask-4" sketch:name="Clip 5" fill="white">
                            <use xlink:href="#path-3"></use>
                        </mask>
                        <g id="Clip-5"></g>
                        <path d="M27.160088,5.10959065 C27.160088,4.62816482 27.1576183,4.14688356 27.1606691,3.66545773 C27.1647368,3.02659264 26.835255,2.64318684 26.2114479,2.6199107 C25.1730284,2.58116532 24.1314129,2.58680364 23.0925576,2.61687468 C22.5467627,2.63277764 22.170648,2.92712688 22.1629485,3.51712653 C22.1490022,4.59997322 22.1414479,5.6833982 22.1639654,6.76581117 C22.1757326,7.33426954 22.5039069,7.64900348 23.090088,7.65117207 C24.1301055,7.65478637 25.1699777,7.6572441 26.2098499,7.64914805 C26.8322043,7.64437717 27.1343745,7.2906087 27.1555845,6.69786218 C27.1744701,6.1691612 27.1596522,5.63901449 27.160088,5.10959065 L27.160088,5.10959065 Z M5.80072334,0.100737994 L6.67236811,0.100737994 L6.67236811,7.42838612 L7.83456114,7.42838612 L7.83456114,0.100737994 L24.8316342,0.100737994 C24.9648506,0.149603438 25.0945804,0.21321526 25.2318645,0.245165743 C27.2822635,0.723121839 28.7011559,1.93940878 29.4949338,3.87291901 C29.6660667,4.28972101 29.7773467,4.73081117 29.9162288,5.16076925 L29.9162288,9.93165587 C26.9426126,9.91965637 23.9688512,9.91849979 20.9956709,9.88018812 C20.6715643,9.8761401 20.2812127,9.73778438 20.0384596,9.52786537 C17.0697828,6.96156209 12.8879217,6.95895979 9.90094036,9.52266077 C9.65731564,9.73171235 9.27117701,9.87642924 8.94939481,9.8797544 C6.2406134,9.90765686 3.53154144,9.89652479 0.822324208,9.89406706 C0.610223979,9.89377792 0.398123751,9.87064635 -7.26370645e-05,9.84722563 C0.101619253,7.99742278 0.0798281339,6.16829376 0.341176292,4.38007872 C0.530468482,3.08384328 1.38598783,2.05217519 2.62183484,1.18054866 L2.62183484,7.44530108 L3.77138903,7.44530108 C3.77138903,5.34220752 3.7973931,3.2769919 3.75642579,1.21322201 C3.74320585,0.54949048 3.99017187,0.316873615 4.67325082,0.344776073 L4.67325082,7.43344615 L5.80072334,7.43344615 L5.80072334,0.100737994 Z" id="Fill-4" fill="#FCECA9" sketch:type="MSShapeGroup" mask="url(#mask-4)"></path>
                    </g>
                    <path d="M14.9794769,10.8830863 C12.5605174,10.8934955 10.6863359,12.7915855 10.7044951,15.2130274 C10.7220733,17.5617493 12.6626451,19.4847057 15.0040283,19.47314 C17.361101,19.4617187 19.3377008,17.463151 19.3119873,15.1171759 C19.2865643,12.7808872 17.3342253,10.8729663 14.9794769,10.8830863 M14.9759904,9.31071775 C18.2426244,9.31172975 20.9068067,11.9617404 20.8857419,15.1891729 C20.8648225,18.37786 18.2016571,21.0272924 15.0014133,21.0429062 C11.760057,21.0588092 9.07902292,18.4100997 9.06551242,15.1784746 C9.05185665,11.9417894 11.7032548,9.30970574 14.9759904,9.31071775" id="Fill-7" fill="#FCECA9" sketch:type="MSShapeGroup"></path>
                </g>
            </g>
        </g>
    </g>
</svg>