<?xml version="1.0" encoding="UTF-8" standalone="no"?>
<svg width="89px" height="101px" viewBox="0 0 89 101" version="1.1" xmlns="http://www.w3.org/2000/svg" xmlns:xlink="http://www.w3.org/1999/xlink" xmlns:sketch="http://www.bohemiancoding.com/sketch/ns">
    <!-- Generator: Sketch 3.4 (15575) - http://www.bohemiancoding.com/sketch -->
    <title>Page 1</title>
    <desc>Created with Sketch.</desc>
    <defs></defs>
    <g id="Page-1" stroke="none" stroke-width="1" fill="none" fill-rule="evenodd" sketch:type="MSPage">
        <g id="Desktop-HD-Copy" sketch:type="MSArtboardGroup" transform="translate(0.000000, -4853.000000)">
            <g id="Page-1" sketch:type="MSLayerGroup" transform="translate(39.114329, 4904.296451) rotate(42.000000) translate(-39.114329, -4904.296451) translate(11.225503, 4846.925152)">
                <path d="M37.2846891,114.448387 C36.5522404,114.448387 35.8265438,114.126814 35.3336455,113.508969 C34.4734954,112.430094 34.6487547,110.856355 35.7252634,109.994021 C35.7469873,109.976368 38.1495363,108.031628 40.4983626,105.145704 C42.5333662,102.645787 44.9588133,98.8987055 44.9588133,95.2448893 C44.9588133,91.4433787 43.1492689,88.5174424 41.0537905,85.1295936 C39.0005858,81.8097078 36.8772187,78.3768446 36.3311848,73.811266 C35.6216343,67.8814273 37.9270128,63.3243809 40.156651,58.9176767 C41.4970761,56.2688879 42.8824168,53.5297761 43.6744595,50.4049527 C45.6064212,42.7786888 40.2147772,32.3647682 40.1604674,32.2606172 C39.5196115,31.0387557 39.9875567,29.526507 41.205858,28.8836543 C42.4247465,28.2402131 43.9319174,28.7074214 44.5751218,29.9278119 C44.8352218,30.4217935 50.9185087,42.134365 48.5112627,51.6359348 C47.5838858,55.2976948 46.0711371,58.2877692 44.6077077,61.1795769 C42.5412925,65.263825 40.7567012,68.7911302 41.2862953,73.2157813 C41.7008113,76.6824789 43.4469454,79.5057352 45.2955342,82.4946328 C47.5835922,86.1937577 49.9494454,90.0190994 49.9494454,95.2448893 C49.9494454,104.8918 39.294446,113.537507 38.8408856,113.900859 C38.3808667,114.269506 37.8307229,114.448387 37.2846891,114.448387" id="Fill-1" fill="#FAD2C9" sketch:type="MSShapeGroup"></path>
                <path d="M11.7174463,112.277869 C11.0933237,112.277869 10.468614,112.044559 9.98452268,111.574997 C9.56707099,111.170456 -0.227191185,101.556497 0.680516714,91.9525416 C1.17194719,86.7499945 3.88714459,83.165318 6.51280418,79.6989147 C8.63470349,76.8980184 10.638589,74.2521718 11.3774962,70.8404918 C12.3210192,66.4852747 10.8760844,62.8049794 9.20304841,58.5436158 C8.01821365,55.5264739 6.7937474,52.406652 6.21454052,48.6736928 C4.71206671,38.9870637 11.8703945,27.9014576 12.1759973,27.4345435 C12.9313441,26.2788796 14.4772658,25.9561293 15.6306889,26.7134304 C16.7829378,27.4701431 17.1052739,29.0197566 16.3505142,30.1748321 C16.2545179,30.3228207 9.94312979,40.1503772 11.1461657,47.9055058 C11.6399447,51.0909369 12.7622498,53.9489102 13.8469783,56.7124416 C15.6521193,61.3103835 17.5189092,66.064846 16.2545179,71.9014196 C15.2816382,76.3949163 12.844742,79.611828 10.4882829,82.7228235 C8.08338544,85.8976629 6.00669537,88.6394226 5.6488377,92.4241631 C5.30507122,96.0615035 7.36737652,100.021006 9.15783916,102.702158 C11.224548,105.797266 13.4339301,107.960311 13.4559476,107.981788 C14.4435056,108.943273 14.4684588,110.526132 13.5099639,111.517037 C13.0202948,112.023376 12.3694577,112.277869 11.7174463,112.277869" id="Fill-3" fill="#FAD2C9" sketch:type="MSShapeGroup"></path>
                <path d="M22.1705893,113.685849 C21.4607453,113.685849 20.7555983,113.383988 20.2618193,112.797329 C19.3734868,111.741403 19.5073532,110.16384 20.5609637,109.273261 C20.5821005,109.255019 22.9332753,107.247612 25.2051871,104.300787 C27.1735511,101.747911 29.4997728,97.9381629 29.403483,94.2858177 C29.3036703,90.4854839 27.417505,87.6083868 25.2339567,84.2770267 C23.0941498,81.0124527 20.8812448,77.6369608 20.2154358,73.0872696 C19.3505886,67.17832 21.5353112,62.562137 23.6481099,58.0980614 C24.918079,55.4145557 26.2314959,52.6398443 26.9404593,49.4953086 C28.6783735,41.788725 23.009309,31.5542736 22.95177,31.4518878 C22.2765668,30.247679 22.7031191,28.7230735 23.9046871,28.0463864 C25.1059616,27.3696992 26.6272237,27.7974832 27.3024269,29.0013978 C27.5754438,29.4883183 33.9646271,41.0361312 31.8083805,50.5980144 C30.9772935,54.2830171 29.5435142,57.3122217 28.1572928,60.2413943 C26.1989101,64.3788948 24.5076729,67.952097 25.1532259,72.3614491 C25.6587475,75.8157898 27.4785668,78.591678 29.4052444,81.5308538 C31.7895922,85.1681942 34.2549644,88.929692 34.3923536,94.1540108 C34.6462887,103.797391 24.2220326,112.721717 23.7781599,113.096837 C23.3099212,113.492552 22.7389342,113.685849 22.1705893,113.685849" id="Fill-5" fill="#FAD2C9" sketch:type="MSShapeGroup"></path>
                <path d="M17.614289,36.6852389 C17.614289,40.2599122 14.5911403,43.1578984 10.8619639,43.1578984 C7.13308103,43.1578984 4.10993227,40.2599122 4.10993227,36.6852389 C4.10993227,33.1105657 7.13308103,30.2125795 10.8619639,30.2125795 C14.5911403,30.2125795 17.614289,33.1105657 17.614289,36.6852389" id="Fill-7" fill="#E49589" sketch:type="MSShapeGroup"></path>
                <path d="M35.8942403,36.6852389 C35.8942403,40.2599122 32.8710915,43.1578984 29.1419151,43.1578984 C25.4130323,43.1578984 22.3898835,40.2599122 22.3898835,36.6852389 C22.3898835,33.1105657 25.4130323,30.2125795 29.1419151,30.2125795 C32.8710915,30.2125795 35.8942403,33.1105657 35.8942403,36.6852389" id="Fill-9" fill="#E49589" sketch:type="MSShapeGroup"></path>
                <path d="M52.4509557,36.6852389 C52.4509557,40.2599122 49.4278069,43.1578984 45.6986305,43.1578984 C41.9697477,43.1578984 38.9465989,40.2599122 38.9465989,36.6852389 C38.9465989,33.1105657 41.9697477,30.2125795 45.6986305,30.2125795 C49.4278069,30.2125795 52.4509557,33.1105657 52.4509557,36.6852389" id="Fill-11" fill="#E49589" sketch:type="MSShapeGroup"></path>
                <path d="M55.7776523,22.2198749 C55.7776523,9.95183156 43.2913845,0.00688455594 27.8891197,0.00688455594 L27.8891197,38.5486293 L46.7939275,38.5486293 L51.0805868,38.5486293 C53.6745412,38.5486293 55.7776523,36.4408961 55.7776523,33.8412407 L55.7776523,22.6611926 C55.7776523,22.6255929 55.7729552,22.5908759 55.7723681,22.5555705 C55.7741295,22.44377 55.7776523,22.3319696 55.7776523,22.2198749" id="Fill-13" fill="#FAD2C9" sketch:type="MSShapeGroup"></path>
                <path d="M27.8888261,0.00688455594 C12.4862678,0.00688455594 0,9.95183156 0,22.2198749 C0,22.3319696 0.0032292325,22.44377 0.00528419864,22.5555705 C0.00469706545,22.5908759 0,22.6255929 0,22.6611926 L0,33.8412407 C0,36.4408961 2.10281749,38.5486293 4.69706545,38.5486293 L8.98372481,38.5486293 L27.8891197,38.5486293 L27.8891197,0.00688455594 L27.8888261,0.00688455594 Z" id="Fill-15" fill="#F3C0B8" sketch:type="MSShapeGroup"></path>
                <path d="M46.854549,13.9068324 C48.3079971,17.1717007 47.4774973,20.7160701 45.0000888,21.8237775 C42.5223868,22.9314849 39.3357214,21.1829842 37.8825668,17.9184102 C36.4291186,14.6535419 37.2596185,11.1091725 39.7373205,10.0014651 C42.214729,8.89375769 45.4016879,10.6422584 46.854549,13.9068324" id="Fill-17" fill="#E49589" sketch:type="MSShapeGroup"></path>
                <path d="M32.8011933,15.9421602 C32.779763,19.5171277 30.5630416,22.4015801 27.8501928,22.3851042 C25.1373439,22.3686283 22.9552634,19.4574027 22.9769874,15.8830236 C22.9984177,12.3077619 25.2151391,9.4236037 27.9276943,9.43978535 C30.6411303,9.45626121 32.8229173,12.3674869 32.8011933,15.9421602" id="Fill-19" fill="#E49589" sketch:type="MSShapeGroup"></path>
                <path d="M17.7731085,16.7239692 C16.0481113,19.8532058 12.7249374,21.3236763 10.3499837,20.009138 C7.97561714,18.6940113 7.44866511,15.0913879 9.1736624,11.9627397 C10.8986597,8.83350311 14.2218335,7.36303257 16.5964936,8.67757086 C18.9714474,9.99269757 19.4981058,13.595321 17.7731085,16.7239692" id="Fill-21" fill="#E49589" sketch:type="MSShapeGroup"></path>
            </g>
        </g>
    </g>
</svg>