<?xml version="1.0" encoding="UTF-8" standalone="no"?>
<svg width="263px" height="105px" viewBox="0 0 263 105" version="1.1" xmlns="http://www.w3.org/2000/svg" xmlns:xlink="http://www.w3.org/1999/xlink" xmlns:sketch="http://www.bohemiancoding.com/sketch/ns">
    <!-- Generator: Sketch 3.4 (15575) - http://www.bohemiancoding.com/sketch -->
    <title>Page 1</title>
    <desc>Created with Sketch.</desc>
    <defs>
        <path id="path-1" d="M0,0 L263,0 L263,105 L0,105"></path>
        <path id="path-3" d="M0,0 L263,0 L263,105 L0,105"></path>
    </defs>
    <g id="Page-1" stroke="none" stroke-width="1" fill="none" fill-rule="evenodd" sketch:type="MSPage">
        <g id="Desktop-HD-Copy" sketch:type="MSArtboardGroup" transform="translate(-61.000000, -65.000000)">
            <g id="Page-1" sketch:type="MSLayerGroup" transform="translate(61.000000, 65.000000)">
                <g id="Group-3">
                    <mask id="mask-2" sketch:name="Clip 2" fill="white">
                        <use xlink:href="#path-1"></use>
                    </mask>
                    <g id="Clip-2"></g>
                    <path d="M233.09077,45.4054054 L209.544787,45.4054054 L209.544787,45.3138851 C209.544787,33.2176014 199.694047,23.4121622 187.541879,23.4121622 L154.572085,23.4121622 C153.390367,23.4121622 151.100342,23.7527027 149.674868,23.9329054 L149.674868,105 L188.137014,105 L210.257524,105 L233.09077,105 C249.609166,105 263.000071,91.6706757 263.000071,75.2282432 L263.000071,75.1771622 C263.000071,58.7347297 249.609166,45.4054054 233.09077,45.4054054" id="Fill-1" fill="#FFFFFF" sketch:type="MSShapeGroup" mask="url(#mask-2)"></path>
                </g>
                <g id="Group-6">
                    <mask id="mask-4" sketch:name="Clip 5" fill="white">
                        <use xlink:href="#path-3"></use>
                    </mask>
                    <g id="Clip-5"></g>
                    <path d="M149.808435,23.9328345 C147.082215,10.2863818 134.988492,-7.0945946e-05 120.478589,-7.0945946e-05 L75.5241206,-7.0945946e-05 C59.0064377,-7.0945946e-05 45.6155325,13.3292534 45.6155325,29.7716858 L45.6155325,29.8227669 C45.6155325,35.5360439 47.235584,40.8718885 50.0387791,45.4053345 L29.9089444,45.4053345 C13.3912615,45.4053345 0.000356368564,58.7346588 0.000356368564,75.1770912 L0.000356368564,75.2281723 C0.000356368564,91.6706047 13.3912615,104.999929 29.9089444,104.999929 L52.7429038,104.999929 L74.8634133,104.999929 L151.099915,104.999929 L151.099915,23.6909088 C150.665858,23.7604358 150.234652,23.8391858 149.808435,23.9328345" id="Fill-4" fill="#FFEEEB" sketch:type="MSShapeGroup" mask="url(#mask-4)"></path>
                </g>
            </g>
        </g>
    </g>
</svg>