<?xml version="1.0" encoding="UTF-8" standalone="no"?>
<svg width="82px" height="125px" viewBox="0 0 82 125" version="1.1" xmlns="http://www.w3.org/2000/svg" xmlns:xlink="http://www.w3.org/1999/xlink" xmlns:sketch="http://www.bohemiancoding.com/sketch/ns">
    <!-- Generator: Sketch 3.4 (15575) - http://www.bohemiancoding.com/sketch -->
    <title>Page 1</title>
    <desc>Created with Sketch.</desc>
    <defs></defs>
    <g id="Page-1" stroke="none" stroke-width="1" fill="none" fill-rule="evenodd" sketch:type="MSPage">
        <g id="Desktop-HD-Copy" sketch:type="MSArtboardGroup" transform="translate(0.000000, -3689.000000)">
            <g id="Page-1" sketch:type="MSLayerGroup" transform="translate(20.000000, 3754.000000) rotate(42.000000) translate(-20.000000, -3754.000000) translate(-15.000000, 3682.000000)">
                <path d="M46.7916474,143.630769 C45.8724368,143.630769 44.9617,143.2272 44.3431211,142.451815 C43.2636474,141.097846 43.4835947,139.122831 44.8345947,138.040615 C44.8618579,138.018462 47.8770158,135.577846 50.8247526,131.956062 C53.3786474,128.818708 56.4225421,124.116185 56.4225421,119.530708 C56.4225421,114.759877 54.1515947,111.087877 51.5218053,106.836185 C48.9450684,102.669785 46.2802789,98.3616 45.5950158,92.6318769 C44.7045421,85.1900308 47.5977526,79.4710154 50.3959105,73.9406769 C52.0781211,70.6164923 53.8167,67.1789538 54.8107,63.2573538 C57.2352789,53.6865231 50.4688579,40.6172308 50.4007,40.4865231 C49.5964368,38.9531077 50.1837,37.0552615 51.7126474,36.2484923 C53.2423316,35.4409846 55.1338053,36.0273231 55.9410158,37.5588923 C56.2674368,38.1788308 63.9018579,52.8779077 60.8808053,64.8022154 C59.7169632,69.3976615 57.8184895,73.1501538 55.9819105,76.7793231 C53.3885947,81.9049846 51.1489632,86.3316923 51.8135947,91.8845538 C52.3338053,96.2352 54.5251737,99.7783385 56.8451211,103.529354 C59.7165947,108.171692 62.6857,112.972431 62.6857,119.530708 C62.6857,131.637415 49.3138579,142.487631 48.7446474,142.943631 C48.1673316,143.406277 47.4769105,143.630769 46.7916474,143.630769" id="Fill-1" fill="#FAD2C9" sketch:type="MSShapeGroup"></path>
                <path d="M14.7051947,140.906806 C13.9219316,140.906806 13.1379316,140.614006 12.5304053,140.024714 C12.0065105,139.517022 -0.285121053,127.451668 0.854036842,115.398868 C1.47077368,108.86976 4.8783,104.371052 8.17345789,100.020775 C10.8364053,96.5056985 13.3512474,93.1852062 14.2785632,88.9036062 C15.4626684,83.4378831 13.6493,78.8191754 11.5496684,73.4712369 C10.0627211,69.6847754 8.52603684,65.7694523 7.79914211,61.0846523 C5.91356316,48.9280985 14.8971421,35.0158523 15.2806684,34.4298831 C16.2286158,32.9795446 18.1687211,32.5744985 19.6162474,33.5248985 C21.0623,34.47456 21.4668263,36.4192985 20.5196158,37.8688985 C20.3991421,38.0546215 12.4784579,50.3880369 13.9882474,60.1205908 C14.6079316,64.1182523 16.0164053,67.70496 17.3777211,71.1731446 C19.6431421,76.9434831 21.9859316,82.9102523 20.3991421,90.2350523 C19.1781947,95.8743138 16.1199316,99.9114831 13.1626158,103.815729 C10.1445105,107.800098 7.5383,111.24096 7.08919474,115.990745 C6.65777368,120.555545 9.24593158,125.524652 11.4929316,128.889452 C14.0866158,132.77376 16.8593526,135.488345 16.8869842,135.515298 C18.1263526,136.721945 18.1576684,138.708406 16.9547737,139.951975 C16.3402474,140.587422 15.5234579,140.906806 14.7051947,140.906806" id="Fill-3" fill="#FAD2C9" sketch:type="MSShapeGroup"></path>
                <path d="M27.8237105,142.673797 C26.9328684,142.673797 26.0479211,142.294966 25.4282368,141.55872 C24.3133947,140.233551 24.4813947,138.253735 25.8036579,137.136074 C25.8301842,137.113182 28.7808684,134.59392 31.6320789,130.895705 C34.1023421,127.691889 37.0217105,122.91072 36.9008684,118.327089 C36.7756053,113.557735 34.4085,109.947028 31.6681842,105.766228 C28.9827632,101.669243 26.2056053,97.4330585 25.3700263,91.7232738 C24.2846579,84.3076431 27.0264474,78.5144123 29.6779737,72.9120738 C31.2717632,69.54432 32.9200789,66.0621046 33.8098158,62.1157662 C35.9908684,52.4441354 28.8762895,39.6000738 28.8040789,39.4715815 C27.9567105,37.96032 28.4920263,36.0469662 29.9999737,35.1977354 C31.5075526,34.3485046 33.4167105,34.8853662 34.2640789,36.3962585 C34.6067105,37.0073354 42.6250263,51.4996431 39.9189737,63.4996431 C38.8759737,68.1242585 37.0766053,71.9258585 35.3369211,75.60192 C32.8791842,80.7944123 30.7567105,85.27872 31.5668684,90.8123815 C32.2012895,95.14752 34.4851316,98.6312123 36.9030789,102.319828 C39.8953947,106.884628 42.9893947,111.605243 43.1618158,118.161674 C43.4805,130.263951 30.3982368,141.463828 29.8411842,141.934597 C29.2535526,142.431212 28.5369737,142.673797 27.8237105,142.673797" id="Fill-5" fill="#FAD2C9" sketch:type="MSShapeGroup"></path>
                <path d="M22.1056316,46.0393477 C22.1056316,50.5255015 18.3116316,54.1624246 13.6315789,54.1624246 C8.95189474,54.1624246 5.15789474,50.5255015 5.15789474,46.0393477 C5.15789474,41.5531938 8.95189474,37.9162708 13.6315789,37.9162708 C18.3116316,37.9162708 22.1056316,41.5531938 22.1056316,46.0393477" id="Fill-7" fill="#E49589" sketch:type="MSShapeGroup"></path>
                <path d="M45.0466579,46.0393477 C45.0466579,50.5255015 41.2526579,54.1624246 36.5726053,54.1624246 C31.8929211,54.1624246 28.0989211,50.5255015 28.0989211,46.0393477 C28.0989211,41.5531938 31.8929211,37.9162708 36.5726053,37.9162708 C41.2526579,37.9162708 45.0466579,41.5531938 45.0466579,46.0393477" id="Fill-9" fill="#E49589" sketch:type="MSShapeGroup"></path>
                <path d="M65.8250526,46.0393477 C65.8250526,50.5255015 62.0310526,54.1624246 57.351,54.1624246 C52.6713158,54.1624246 48.8773158,50.5255015 48.8773158,46.0393477 C48.8773158,41.5531938 52.6713158,37.9162708 57.351,37.9162708 C62.0310526,37.9162708 65.8250526,41.5531938 65.8250526,46.0393477" id="Fill-11" fill="#E49589" sketch:type="MSShapeGroup"></path>
                <path d="M70,27.8855631 C70,12.4893785 54.3299474,0.00864 35.0003684,0.00864 L35.0003684,48.3778708 L58.7255789,48.3778708 L64.1052632,48.3778708 C67.3606316,48.3778708 70,45.7327015 70,42.4701785 L70,28.4394092 C70,28.3947323 69.9941053,28.3511631 69.9933684,28.3068554 C69.9955789,28.1665477 70,28.02624 70,27.8855631" id="Fill-13" fill="#FAD2C9" sketch:type="MSShapeGroup"></path>
                <path d="M35,0.00864 C15.6700526,0.00864 0,12.4893785 0,27.8855631 C0,28.02624 0.00405263158,28.1665477 0.00663157895,28.3068554 C0.00589473684,28.3511631 0,28.3947323 0,28.4394092 L0,42.4701785 C0,45.7327015 2.639,48.3778708 5.89473684,48.3778708 L11.2744211,48.3778708 L35.0003684,48.3778708 L35.0003684,0.00864 L35,0.00864 Z" id="Fill-15" fill="#F3C0B8" sketch:type="MSShapeGroup"></path>
                <path d="M58.8016579,17.4528369 C60.6257105,21.5501908 59.5834474,25.9983138 56.4743421,27.3884677 C53.3648684,28.7786215 49.3656579,26.5842831 47.5419737,22.4872985 C45.7179211,18.3899446 46.7601842,13.9418215 49.8696579,12.5516677 C52.9787632,11.1615138 56.9783421,13.3558523 58.8016579,17.4528369" id="Fill-17" fill="#E49589" sketch:type="MSShapeGroup"></path>
                <path d="M41.1649368,20.0071385 C41.1380421,24.4936615 38.3560947,28.1136 34.9515158,28.0929231 C31.5469368,28.0722462 28.8084632,24.4187077 28.8357263,19.9329231 C28.8626211,15.4460308 31.6445684,11.8264615 35.0487789,11.8467692 C38.4540947,11.8674462 41.1922,15.5209846 41.1649368,20.0071385" id="Fill-19" fill="#E49589" sketch:type="MSShapeGroup"></path>
                <path d="M22.3049474,20.9882954 C20.1401053,24.9154338 15.9695789,26.7608492 12.9890526,25.1111262 C10.0092632,23.4606646 9.34794737,18.9394338 11.5127895,15.0130338 C13.6776316,11.0858954 17.8481579,9.24048 20.8283158,10.8902031 C23.8088421,12.5406646 24.4697895,17.0618954 22.3049474,20.9882954" id="Fill-21" fill="#E49589" sketch:type="MSShapeGroup"></path>
            </g>
        </g>
    </g>
</svg>