<?xml version="1.0" encoding="UTF-8" standalone="no"?>
<svg width="223px" height="89px" viewBox="0 0 223 89" version="1.1" xmlns="http://www.w3.org/2000/svg" xmlns:xlink="http://www.w3.org/1999/xlink" xmlns:sketch="http://www.bohemiancoding.com/sketch/ns">
    <!-- Generator: Sketch 3.4 (15575) - http://www.bohemiancoding.com/sketch -->
    <title>Page 1</title>
    <desc>Created with Sketch.</desc>
    <defs>
        <path id="path-1" d="M0,0 L223,0 L223,89 L0,89"></path>
        <path id="path-3" d="M0,0 L223,0 L223,89 L0,89"></path>
    </defs>
    <g id="Page-1" stroke="none" stroke-width="1" fill="none" fill-rule="evenodd" sketch:type="MSPage">
        <g id="Desktop-HD-Copy" sketch:type="MSArtboardGroup" transform="translate(-134.000000, -5100.000000)">
            <g id="Page-1" sketch:type="MSLayerGroup" transform="translate(134.000000, 5100.000000)">
                <g id="Group-3">
                    <mask id="mask-2" sketch:name="Clip 2" fill="white">
                        <use xlink:href="#path-1"></use>
                    </mask>
                    <g id="Clip-2"></g>
                    <path d="M197.639703,38.4864865 L177.674857,38.4864865 L177.674857,38.4089122 C177.674857,28.1558716 169.322329,19.8445946 159.018399,19.8445946 L131.063022,19.8445946 C130.061033,19.8445946 128.119302,20.1332432 126.91063,20.2859865 L126.91063,89 L159.52302,89 L178.279193,89 L197.639703,89 C211.645795,89 223.00006,77.7018108 223.00006,63.7648919 L223.00006,63.7215946 C223.00006,49.7846757 211.645795,38.4864865 197.639703,38.4864865" id="Fill-1" fill="#FFFFFF" sketch:type="MSShapeGroup" mask="url(#mask-2)"></path>
                </g>
                <g id="Group-6">
                    <mask id="mask-4" sketch:name="Clip 5" fill="white">
                        <use xlink:href="#path-3"></use>
                    </mask>
                    <g id="Clip-5"></g>
                    <path d="M127.023882,20.2859264 C124.712297,8.71893311 114.457923,-6.01351353e-05 102.15485,-6.01351353e-05 L64.0375623,-6.01351353e-05 C50.0320745,-6.01351353e-05 38.6778089,11.2981291 38.6778089,25.235048 L38.6778089,25.2783453 C38.6778089,30.1210277 40.0514648,34.6437912 42.4283184,38.4864264 L25.3600556,38.4864264 C11.3545678,38.4864264 0.000302168022,49.7846155 0.000302168022,63.7215345 L0.000302168022,63.7648318 C0.000302168022,77.7017507 11.3545678,88.9999399 25.3600556,88.9999399 L44.7211694,88.9999399 L63.4773428,88.9999399 L128.118939,88.9999399 L128.118939,20.0808655 C127.750898,20.139798 127.385275,20.206548 127.023882,20.2859264" id="Fill-4" fill-opacity="0.5" fill="#FFFFFF" sketch:type="MSShapeGroup" mask="url(#mask-4)"></path>
                </g>
            </g>
        </g>
    </g>
</svg>