<?xml version="1.0" encoding="UTF-8" standalone="no"?>
<svg width="151px" height="151px" viewBox="0 0 151 151" version="1.1" xmlns="http://www.w3.org/2000/svg" xmlns:xlink="http://www.w3.org/1999/xlink" xmlns:sketch="http://www.bohemiancoding.com/sketch/ns">
    <!-- Generator: Sketch 3.4 (15575) - http://www.bohemiancoding.com/sketch -->
    <title>Oval 1 + Page 1</title>
    <desc>Created with Sketch.</desc>
    <defs>
        <path id="path-1" d="M0,0.0390488506 L71.6972308,0.0390488506 L71.6972308,107 L0,107 L0,0.0390488506 Z"></path>
        <path id="path-3" d="M0,0.0390488506 L71.6972308,0.0390488506 L71.6972308,107 L0,107 L0,0.0390488506 Z"></path>
    </defs>
    <g id="Page-1" stroke="none" stroke-width="1" fill="none" fill-rule="evenodd" sketch:type="MSPage">
        <g id="Desktop-HD-Copy" sketch:type="MSArtboardGroup" transform="translate(-464.000000, -2101.000000)">
            <g id="Oval-1-+-Page-1" sketch:type="MSLayerGroup" transform="translate(466.000000, 2103.000000)">
                <circle id="Oval-1" stroke="#EA5C67" stroke-width="3" sketch:type="MSShapeGroup" cx="73.5" cy="73.5" r="73.5"></circle>
                <g id="Page-1" transform="translate(40.000000, 20.000000)">
                    <g id="Group-3">
                        <mask id="mask-2" sketch:name="Clip 2" fill="white">
                            <use xlink:href="#path-1"></use>
                        </mask>
                        <g id="Clip-2"></g>
                        <path d="M21.4179692,101.236113 C21.9816615,101.164165 22.2918154,101.153711 22.5875077,101.082685 C36.9515077,97.623633 51.3118154,94.1473629 65.6841231,90.7230555 C66.6493538,90.493067 66.7370462,90.0060325 66.7352,89.214294 C66.7192,81.8355986 66.7330462,74.4569032 66.7090462,67.0785152 C66.7075077,66.6083917 66.6105846,65.9860698 66.3075077,65.6955095 C65.0973538,64.5354204 63.7881231,63.4783342 62.4278154,62.3077911 C61.1330462,64.0446963 59.9210462,65.6709118 58.6299692,67.4022825 C60.0958154,68.6518457 61.4918154,69.8392997 62.8844308,71.0301359 C64.3678154,72.2990698 64.6438154,73.6734664 63.6659692,74.8932049 C62.6428923,76.1682882 61.2170462,76.1747451 59.6435077,74.8464693 C56.3164308,72.0371043 53.0096615,69.2037566 49.6952,66.3799405 C47.0579692,64.1323256 44.4216615,61.8837882 41.7355077,59.5934348 C35.0595077,68.5042595 28.4875077,77.2714951 21.9278154,86.0479549 C21.6948923,86.3597307 21.4419692,86.7625181 21.4395077,87.1244118 C21.4068923,91.7755296 21.4179692,96.4269549 21.4179692,101.236113 L21.4179692,101.236113 Z M66.6665846,20.9685871 C66.4564308,20.9685871 66.2988923,20.9387624 66.1567385,20.9728917 C51.6472,24.4565411 37.1413538,27.9552566 22.6247385,31.4112336 C21.5998154,31.6550583 21.3878154,32.1442451 21.3896615,33.1029405 C21.4161231,47.6497135 21.4068923,62.1958716 21.4145846,76.7423371 C21.4145846,77.1039233 21.5127385,77.4648945 21.5988923,78.0623112 C22.1432,77.3542049 22.5185846,76.8763945 22.8828923,76.3905899 C28.1644308,69.3458083 33.4425846,62.2982595 38.7259692,55.2550152 C40.4238154,52.9917193 41.5105846,52.849975 43.6444308,54.6385353 C45.5281231,56.2174003 47.3853538,57.8276273 49.2573538,59.4206359 C51.0745846,60.9669089 52.8961231,62.5088773 54.8016615,64.1258687 C56.4807385,61.8791761 58.0210462,59.7803773 59.6032,57.713248 C61.0995077,55.7580382 62.3681231,55.6495009 64.2462769,57.2508112 C64.9887385,57.8838945 65.7327385,58.515748 66.6665846,59.3102537 L66.6665846,20.9685871 Z M71.6967385,54.9712193 C71.6967385,67.1642997 71.6973538,79.3576876 71.6961231,91.5507681 C71.6958154,93.9182968 71.2761231,94.4825066 68.9478154,95.045794 C52.6527385,98.987883 36.3564308,102.923515 20.0570462,106.847771 C17.6912,107.417515 16.3545846,106.37242 16.3539692,103.962768 C16.3462769,79.423179 16.3472,54.882975 16.3530462,30.3433859 C16.3536615,28.3414405 16.9336615,27.6576244 19.1198154,27.1306187 C33.7788923,23.596544 48.4416615,20.0781503 63.1028923,16.5529922 C64.6927385,16.1711129 66.2788923,15.7735526 67.8702769,15.3969003 C70.4512,14.7856474 71.6939692,15.7547968 71.6948923,18.3919779 C71.6988923,30.5853658 71.6967385,42.7781388 71.6967385,54.9712193 L71.6967385,54.9712193 Z" id="Fill-1" fill="#EB5C67" sketch:type="MSShapeGroup" mask="url(#mask-2)"></path>
                    </g>
                    <g id="Group-6">
                        <mask id="mask-4" sketch:name="Clip 5" fill="white">
                            <use xlink:href="#path-3"></use>
                        </mask>
                        <g id="Clip-5"></g>
                        <path d="M0.00781538462,52.9811422 C0.00781538462,40.8378721 0.00658461538,28.694602 0.00873846154,16.5513319 C0.00935384615,14.4217859 0.5592,13.7173693 2.59735385,13.1989727 C19.7388923,8.84333477 36.8767385,4.47355316 54.0315077,0.170492816 C54.9355077,-0.0561135057 56.1524308,-0.00599568966 56.9047385,0.445679598 C57.4970462,0.800808908 57.8536615,1.97319684 57.8570462,2.78461351 C57.8616615,4.00435201 56.8696615,4.57409626 55.7327385,4.86127443 C51.4213538,5.95003017 47.1164308,7.06399856 42.8072,8.16228592 C30.7216615,11.2419181 18.6410462,14.3406135 6.54104615,17.3624411 C5.31304615,17.6692974 4.94381538,18.1071365 4.94627692,19.3816049 C4.99027692,42.4382601 4.97827692,65.4949152 4.97766154,88.5515704 C4.97766154,89.0638175 5.00166154,89.578217 4.96227692,90.0880043 C4.85089231,91.5211279 3.82258462,92.4936595 2.46781538,92.4798233 C1.14843077,92.466602 0.1112,91.4378032 0.0142769231,90.0249727 C-0.0134153846,89.6166509 0.00781538462,89.2052543 0.00781538462,88.7953951 L0.00781538462,52.9811422 Z" id="Fill-4" fill="#EB5C67" sketch:type="MSShapeGroup" mask="url(#mask-4)"></path>
                    </g>
                    <path d="M7.95704615,60.2115135 C7.95704615,48.1211284 7.95612308,36.0307434 7.95766154,23.9403583 C7.95796923,21.5101055 8.29581538,21.0704216 10.6915077,20.4588612 C27.7764308,16.0964589 44.8610462,11.7331342 61.9536615,7.40332385 C62.7093538,7.21176925 63.6087385,7.1438181 64.3321231,7.36919454 C65.3838154,7.69695891 65.9342769,8.59170029 65.8475077,9.76470316 C65.7564308,10.9952032 65.0604308,11.7319043 63.9041231,12.0347635 C60.4936615,12.928275 57.0807385,13.8125624 53.6641231,14.6817836 C40.6367385,17.9947865 27.6136615,21.3240853 14.5708923,24.575594 C13.1881231,24.9202693 12.8918154,25.5127664 12.8945846,26.8558009 C12.9404308,49.7556457 12.9275077,72.655798 12.9275077,95.5556428 C12.9275077,95.965502 12.9358154,96.3753612 12.9253538,96.7849129 C12.8792,98.6251284 11.8552,99.7984388 10.3293538,99.7670767 C8.86535385,99.737252 7.96073846,98.6229761 7.95981538,96.7898325 C7.95427692,85.6218612 7.95704615,74.4535825 7.95704615,63.2853037 L7.95704615,60.2115135 Z" id="Fill-7" fill="#EB5C67" sketch:type="MSShapeGroup"></path>
                    <path d="M60.6039692,34.3250773 C62.3181231,34.3536721 63.2947385,35.1964509 63.4415077,36.425721 C63.6110462,37.8496204 62.9362769,38.8658129 61.4390462,39.2523043 C59.0147385,39.8786233 56.5750462,40.4468302 54.1396615,41.0301032 C45.2935077,43.1479652 36.4464308,45.263675 27.5987385,47.376925 C25.8144308,47.8033876 24.4861231,47.114652 24.1098154,45.5834451 C23.7719692,44.2096635 24.6488923,42.9714767 26.4104308,42.5437842 C35.9965846,40.2162267 45.5898154,37.9188014 55.1812,35.6124595 C57.1168923,35.1475629 59.0550462,34.6925055 60.6039692,34.3250773" id="Fill-9" fill="#EB5C67" sketch:type="MSShapeGroup"></path>
                    <path d="M31.0438769,33.9911943 C32.6992615,34.0702144 33.5654154,34.6999155 33.8303385,35.9451741 C34.0900308,37.1689098 33.7044923,38.2874902 32.4669538,38.6856655 C30.5860308,39.2910764 28.6568,39.8156224 26.7084923,40.1218638 C25.4168,40.3251023 24.4681846,39.4853983 24.1401846,38.198631 C23.8198769,36.9416885 24.3518769,35.8430937 25.5004923,35.4461483 C27.4134154,34.7853925 29.4223385,34.4032057 31.0438769,33.9911943" id="Fill-11" fill="#EB5C67" sketch:type="MSShapeGroup"></path>
                    <path d="M58.5153231,49.2296239 C58.4882462,51.5467273 56.5639385,53.7251612 54.5322462,53.7377675 C52.9180923,53.7482216 51.8085538,52.4811325 51.8393231,50.6624399 C51.8777846,48.3923796 53.8642462,46.1423049 55.8513231,46.1180147 C57.4220923,46.098644 58.5362462,47.4004773 58.5153231,49.2296239" id="Fill-13" fill="#EB5C67" sketch:type="MSShapeGroup"></path>
                    <path d="M60.5901538,26.8947267 C62.1667692,26.9405399 63.0692308,27.485994 63.3898462,28.7450888 C63.728,30.0727497 63.1473846,31.2134681 61.8470769,31.6749825 C60.8926154,32.0138158 59.8978462,32.2748589 58.8993846,32.4430457 C57.68,32.6478216 56.4618462,31.7570773 56.1569231,30.5075141 C55.8461538,29.2327382 56.3975385,28.2328417 57.5104615,27.7439624 C58.5661538,27.2806032 59.7526154,27.1145687 60.5901538,26.8947267" id="Fill-15" fill="#EB5C67" sketch:type="MSShapeGroup"></path>
                </g>
            </g>
        </g>
    </g>
</svg>