<?xml version="1.0" encoding="UTF-8" standalone="no"?>
<svg width="151px" height="151px" viewBox="0 0 151 151" version="1.1" xmlns="http://www.w3.org/2000/svg" xmlns:xlink="http://www.w3.org/1999/xlink" xmlns:sketch="http://www.bohemiancoding.com/sketch/ns">
    <!-- Generator: Sketch 3.4 (15575) - http://www.bohemiancoding.com/sketch -->
    <title>Oval 1 + Page 1</title>
    <desc>Created with Sketch.</desc>
    <defs>
        <path id="path-1" d="M0,0.307984252 L91.997115,0.307984252 L91.997115,82 L0,82 L0,0.307984252 Z"></path>
        <path id="path-3" d="M0,0.307984252 L91.997115,0.307984252 L91.997115,82 L0,82 L0,0.307984252 Z"></path>
    </defs>
    <g id="Page-1" stroke="none" stroke-width="1" fill="none" fill-rule="evenodd" sketch:type="MSPage">
        <g id="Desktop-HD-Copy" sketch:type="MSArtboardGroup" transform="translate(-825.000000, -2101.000000)">
            <g id="Oval-1-+-Page-1" sketch:type="MSLayerGroup" transform="translate(827.000000, 2103.000000)">
                <circle id="Oval-1" stroke="#EA5C67" stroke-width="3" sketch:type="MSShapeGroup" cx="73.5" cy="73.5" r="73.5"></circle>
                <g id="Page-1" transform="translate(29.000000, 31.000000)">
                    <g id="Group-3">
                        <mask id="mask-2" sketch:name="Clip 2" fill="white">
                            <use xlink:href="#path-1"></use>
                        </mask>
                        <g id="Clip-2"></g>
                        <path d="M87.3328111,12.1614717 C87.3328111,10.528574 87.3347345,8.98510157 87.3324906,7.44162913 C87.3283233,5.02876299 87.2292711,4.93094409 84.7850202,4.93094409 C58.931738,4.93062126 33.0787763,4.93094409 7.22581463,4.93126693 C6.7449784,4.93126693 6.22823972,4.83183386 5.79452544,4.97807795 C5.3951108,5.1127 4.79470662,5.50397559 4.78220488,5.80356614 C4.69437213,7.91716457 4.73572404,10.0362512 4.73572404,12.1614717 L87.3328111,12.1614717 Z M4.7488669,16.9633142 C4.71809338,17.6167315 4.66808641,18.1910543 4.66776585,18.7647315 C4.66359861,37.4872039 4.66359861,56.2096764 4.66520139,74.9324717 C4.66552195,77.155511 4.8302885,77.3362984 7.0126439,77.3366213 C33.0284488,77.3404953 59.0442537,77.3408181 85.0600585,77.3359756 C87.1321422,77.3353299 87.3305672,77.1212906 87.3308878,75.0125346 C87.3337728,56.235826 87.3337728,37.459763 87.3280028,18.6833772 C87.3276822,18.1187394 87.256839,17.5541016 87.2170899,16.9633142 L4.7488669,16.9633142 Z M46.1588042,0.309888976 C59.1413826,0.309566142 72.1236404,0.307951969 85.1062188,0.31085748 C89.9040028,0.31150315 91.9962815,2.44221181 91.9966021,7.31636929 C91.9972432,29.9144717 91.9975638,52.512574 91.9962815,75.1106764 C91.995961,79.7388339 89.7299401,81.9986764 85.0889087,81.9986764 C59.0170063,82.0002906 32.9454244,82.0006134 6.87384251,81.9986764 C2.23665784,81.9983535 0.000769337979,79.7481961 0.000769337979,75.0913063 C-0.000192334495,52.3857 -0.000512891986,29.6797709 0.00108989547,6.97416457 C0.00108989547,2.54810157 2.18825366,0.316345669 6.57059512,0.313440157 C19.7666648,0.304077953 32.9627345,0.309888976 46.1588042,0.309888976 L46.1588042,0.309888976 Z" id="Fill-1" fill="#EB5C67" sketch:type="MSShapeGroup" mask="url(#mask-2)"></path>
                    </g>
                    <mask id="mask-4" sketch:name="Clip 5" fill="white">
                        <use xlink:href="#path-3"></use>
                    </mask>
                    <g id="Clip-5"></g>
                    <path d="M52.8483902,43.4722677 L63.8278049,43.4722677 L63.8278049,33.9428346 L52.8483902,33.9428346 L52.8483902,43.4722677 Z M68.526216,48.0942913 L48.2063972,48.0942913 L48.2063972,29.2116929 L68.526216,29.2116929 L68.526216,48.0942913 Z" id="Fill-4" fill="#EB5C67" sketch:type="MSShapeGroup" mask="url(#mask-4)"></path>
                    <path d="M23.4484599,51.6296535 L69.5064808,51.6296535 L69.5064808,56.0589449 L23.4484599,56.0589449 L23.4484599,51.6296535 Z" id="Fill-6" fill="#EB5C67" sketch:type="MSShapeGroup" mask="url(#mask-4)"></path>
                    <path d="M69.552,63.6778425 L23.5103275,63.6778425 L23.5103275,59.2788976 L69.552,59.2788976 L69.552,63.6778425 Z" id="Fill-7" fill="#EB5C67" sketch:type="MSShapeGroup" mask="url(#mask-4)"></path>
                    <path d="M23.5199443,28.618 L43.8602787,28.618 L43.8602787,33.1496299 L23.5199443,33.1496299 L23.5199443,28.618 Z" id="Fill-8" fill="#EB5C67" sketch:type="MSShapeGroup" mask="url(#mask-4)"></path>
                    <path d="M43.8407247,40.7982283 L23.4696167,40.7982283 L23.4696167,36.3034016 L43.8407247,36.3034016 L43.8407247,40.7982283 Z" id="Fill-9" fill="#EB5C67" sketch:type="MSShapeGroup" mask="url(#mask-4)"></path>
                    <path d="M43.8638049,48.3945276 L23.5029547,48.3945276 L23.5029547,44.0107559 L43.8638049,44.0107559 L43.8638049,48.3945276 Z" id="Fill-10" fill="#EB5C67" sketch:type="MSShapeGroup" mask="url(#mask-4)"></path>
                    <path d="M25.6389575,8.71149921 C25.6412014,9.95699528 24.6760028,10.9677906 23.4447415,11.0084677 C22.0980794,11.0526961 21.1142885,10.0874205 21.1098007,8.7169874 C21.1053129,7.3807748 21.964407,6.48200315 23.2774105,6.44842835 C24.641062,6.41388504 25.636393,7.36786142 25.6389575,8.71149921" id="Fill-11" fill="#EB5C67" sketch:type="MSShapeGroup" mask="url(#mask-4)"></path>
                    <path d="M16.4367136,11.0085323 C15.1900655,10.9852882 14.0985672,9.8476189 14.1537031,8.62956378 C14.2110829,7.36857165 15.3125185,6.39361102 16.6178286,6.44913858 C17.8295359,6.50079213 18.8203791,7.53192598 18.8056334,8.72673701 C18.7899261,10.0041937 17.7224697,11.0327449 16.4367136,11.0085323" id="Fill-12" fill="#EB5C67" sketch:type="MSShapeGroup" mask="url(#mask-4)"></path>
                    <path d="M11.9010174,8.65600394 C11.9273031,9.90827953 10.9867875,10.9439331 9.76546341,11.0085 C8.47650174,11.0766181 7.38532404,10.0580748 7.36160279,8.76512205 C7.33788153,7.45183071 8.20627178,6.50883071 9.49395122,6.44975197 C10.8665784,6.38679921 11.8731289,7.3091378 11.9010174,8.65600394" id="Fill-13" fill="#EB5C67" sketch:type="MSShapeGroup" mask="url(#mask-4)"></path>
                </g>
            </g>
        </g>
    </g>
</svg>